<?xml version="1.0" encoding="UTF-8" standalone="no"?>
<!-- Created with Inkscape (http://www.inkscape.org/) -->

<svg
   xmlns:dc="http://purl.org/dc/elements/1.1/"
   xmlns:cc="http://creativecommons.org/ns#"
   xmlns:rdf="http://www.w3.org/1999/02/22-rdf-syntax-ns#"
   xmlns:svg="http://www.w3.org/2000/svg"
   xmlns="http://www.w3.org/2000/svg"
   xmlns:sodipodi="http://sodipodi.sourceforge.net/DTD/sodipodi-0.dtd"
   xmlns:inkscape="http://www.inkscape.org/namespaces/inkscape"
   width="460"
   height="736"
   viewBox="0 0 121.70833 194.73334"
   version="1.1"
   id="svg8"
   inkscape:version="0.92.4 (5da689c313, 2019-01-14)"
   sodipodi:docname="cover-bg.svg">
  <defs
     id="defs2" />
  <sodipodi:namedview
     id="base"
     pagecolor="#ffffff"
     bordercolor="#666666"
     borderopacity="1.0"
     inkscape:pageopacity="0.0"
     inkscape:pageshadow="2"
     inkscape:zoom="1.1141304"
     inkscape:cx="230"
     inkscape:cy="368"
     inkscape:document-units="px"
     inkscape:current-layer="layer1"
     showgrid="false"
     inkscape:pagecheckerboard="false"
     borderlayer="true"
     inkscape:showpageshadow="false"
     inkscape:window-width="1920"
     inkscape:window-height="1009"
     inkscape:window-x="0"
     inkscape:window-y="0"
     inkscape:window-maximized="1"
     units="px"
     inkscape:snap-global="false" />
  <metadata
     id="metadata5">
    <rdf:RDF>
      <cc:Work
         rdf:about="">
        <dc:format>image/svg+xml</dc:format>
        <dc:type
           rdf:resource="http://purl.org/dc/dcmitype/StillImage" />
        <dc:title />
        <dc:creator>
          <cc:Agent>
            <dc:title>Mirian Margiani</dc:title>
          </cc:Agent>
        </dc:creator>
      </cc:Work>
    </rdf:RDF>
  </metadata>
  <g
     inkscape:label="Ebene 1"
     inkscape:groupmode="layer"
     id="layer1"
     transform="translate(0,-102.26665)">
    <text
       id="text850"
       y="-24.129492"
       x="76.270561"
       style="font-style:normal;font-variant:normal;font-weight:normal;font-stretch:normal;font-size:13.79284763px;line-height:4.59761572px;font-family:Roboto;-inkscape-font-specification:Roboto;letter-spacing:0px;word-spacing:0px;fill:#797979;fill-opacity:0.65306121;stroke:none;stroke-width:0.16255027;stroke-linecap:butt;stroke-linejoin:miter;stroke-miterlimit:4;stroke-dasharray:none;stroke-opacity:1;"
       xml:space="preserve"
       transform="matrix(1.2044595,0.39289738,-1.0456672,0.48914894,0,0)"><tspan
         style="font-style:normal;font-variant:normal;font-weight:normal;font-stretch:normal;line-height:100%;font-family:Renaissance;-inkscape-font-specification:Renaissance;stroke-width:0.16255027;stroke-miterlimit:4;stroke-dasharray:none;fill:#797979;fill-opacity:0.65306121;"
         y="-24.129492"
         x="76.270561"
         sodipodi:role="line"
         id="tspan1182">Lorem ipsum dolor sit amet, consectetuer adipiscing elit. Aenean commodo ligula</tspan><tspan
         style="font-style:normal;font-variant:normal;font-weight:normal;font-stretch:normal;line-height:100%;font-family:Renaissance;-inkscape-font-specification:Renaissance;stroke-width:0.16255027;stroke-miterlimit:4;stroke-dasharray:none;fill:#797979;fill-opacity:0.65306121;"
         y="-10.336645"
         x="76.270561"
         sodipodi:role="line"
         id="tspan1354">eget dolor. Aenean massa. Cum sociis natoque penatibus et magnis dis parturient</tspan><tspan
         style="font-style:normal;font-variant:normal;font-weight:normal;font-stretch:normal;line-height:100%;font-family:Renaissance;-inkscape-font-specification:Renaissance;stroke-width:0.16255027;stroke-miterlimit:4;stroke-dasharray:none;fill:#797979;fill-opacity:0.65306121;"
         y="3.4562032"
         x="76.270561"
         sodipodi:role="line"
         id="tspan1356">montes, nascetur ridiculus mus. Donec quam felis, ultricies nec, pellentesque</tspan><tspan
         style="font-style:normal;font-variant:normal;font-weight:normal;font-stretch:normal;line-height:100%;font-family:Renaissance;-inkscape-font-specification:Renaissance;stroke-width:0.16255027;stroke-miterlimit:4;stroke-dasharray:none;fill:#797979;fill-opacity:0.65306121;"
         y="17.24905"
         x="76.270561"
         sodipodi:role="line"
         id="tspan1358">eu, pretium quis, sem. Nulla consequat massa quis enim. Donec pede justo,</tspan><tspan
         style="font-style:normal;font-variant:normal;font-weight:normal;font-stretch:normal;line-height:100%;font-family:Renaissance;-inkscape-font-specification:Renaissance;stroke-width:0.16255027;stroke-miterlimit:4;stroke-dasharray:none;fill:#797979;fill-opacity:0.65306121;"
         y="31.041899"
         x="76.270561"
         sodipodi:role="line"
         id="tspan1360">fringilla vel, aliquet nec, vulputate eget, arcu. In enim justo, rhoncus ut,</tspan><tspan
         style="font-style:normal;font-variant:normal;font-weight:normal;font-stretch:normal;line-height:100%;font-family:Renaissance;-inkscape-font-specification:Renaissance;stroke-width:0.16255027;stroke-miterlimit:4;stroke-dasharray:none;fill:#797979;fill-opacity:0.65306121;"
         y="44.834747"
         x="76.270561"
         sodipodi:role="line"
         id="tspan1362">imperdiet a, venenatis vitae, justo. Nullam dictum felis eu pede mollis pretium.</tspan><tspan
         style="font-style:normal;font-variant:normal;font-weight:normal;font-stretch:normal;line-height:100%;font-family:Renaissance;-inkscape-font-specification:Renaissance;stroke-width:0.16255027;stroke-miterlimit:4;stroke-dasharray:none;fill:#797979;fill-opacity:0.65306121;"
         y="58.627594"
         x="76.270561"
         sodipodi:role="line"
         id="tspan1364">Integer tincidunt. Cras dapibus. Vivamus elementum semper nisi. Aenean vulputate</tspan><tspan
         style="font-style:normal;font-variant:normal;font-weight:normal;font-stretch:normal;line-height:100%;font-family:Renaissance;-inkscape-font-specification:Renaissance;stroke-width:0.16255027;stroke-miterlimit:4;stroke-dasharray:none;fill:#797979;fill-opacity:0.65306121;"
         y="72.420441"
         x="76.270561"
         sodipodi:role="line"
         id="tspan1366">eleifend tellus. Aenean leo ligula, porttitor eu, consequat vitae, eleifend ac,</tspan><tspan
         style="font-style:normal;font-variant:normal;font-weight:normal;font-stretch:normal;line-height:100%;font-family:Renaissance;-inkscape-font-specification:Renaissance;stroke-width:0.16255027;stroke-miterlimit:4;stroke-dasharray:none;fill:#797979;fill-opacity:0.65306121;"
         y="86.213287"
         x="76.270561"
         sodipodi:role="line"
         id="tspan1368">enim. Aliquam lorem ante, dapibus in, viverra quis, feugiat a, tellus. Phasellus</tspan><tspan
         style="font-style:normal;font-variant:normal;font-weight:normal;font-stretch:normal;line-height:100%;font-family:Renaissance;-inkscape-font-specification:Renaissance;stroke-width:0.16255027;stroke-miterlimit:4;stroke-dasharray:none;fill:#797979;fill-opacity:0.65306121;"
         y="100.00614"
         x="76.270561"
         sodipodi:role="line"
         id="tspan1370">viverra nulla ut metus varius laoreet. Quisque rutrum. Aenean imperdiet. Etiam</tspan><tspan
         style="font-style:normal;font-variant:normal;font-weight:normal;font-stretch:normal;line-height:100%;font-family:Renaissance;-inkscape-font-specification:Renaissance;stroke-width:0.16255027;stroke-miterlimit:4;stroke-dasharray:none;fill:#797979;fill-opacity:0.65306121;"
         y="113.79899"
         x="76.270561"
         sodipodi:role="line"
         id="tspan1372">ultricies nisi vel augue. Curabitur ullamcorper ultricies nisi. Nam eget dui.</tspan><tspan
         style="font-style:normal;font-variant:normal;font-weight:normal;font-stretch:normal;line-height:100%;font-family:Renaissance;-inkscape-font-specification:Renaissance;stroke-width:0.16255027;stroke-miterlimit:4;stroke-dasharray:none;fill:#797979;fill-opacity:0.65306121;"
         y="127.59184"
         x="76.270561"
         sodipodi:role="line"
         id="tspan1374">Lorem ipsum dolor sit amet, consectetuer adipiscing elit. Aenean commodo ligula</tspan><tspan
         style="font-style:normal;font-variant:normal;font-weight:normal;font-stretch:normal;line-height:100%;font-family:Renaissance;-inkscape-font-specification:Renaissance;stroke-width:0.16255027;stroke-miterlimit:4;stroke-dasharray:none;fill:#797979;fill-opacity:0.65306121;"
         y="141.38467"
         x="76.270561"
         sodipodi:role="line"
         id="tspan1376">eget dolor. Aenean massa. Cum sociis natoque penatibus et magnis dis parturient</tspan><tspan
         style="font-style:normal;font-variant:normal;font-weight:normal;font-stretch:normal;line-height:100%;font-family:Renaissance;-inkscape-font-specification:Renaissance;stroke-width:0.16255027;stroke-miterlimit:4;stroke-dasharray:none;fill:#797979;fill-opacity:0.65306121;"
         y="155.17752"
         x="76.270561"
         sodipodi:role="line"
         id="tspan1378">montes, nascetur ridiculus mus. Donec quam felis, ultricies nec, pellentesque</tspan><tspan
         style="font-style:normal;font-variant:normal;font-weight:normal;font-stretch:normal;line-height:100%;font-family:Renaissance;-inkscape-font-specification:Renaissance;stroke-width:0.16255027;stroke-miterlimit:4;stroke-dasharray:none;fill:#797979;fill-opacity:0.65306121;"
         y="168.97038"
         x="76.270561"
         sodipodi:role="line"
         id="tspan1380">eu, pretium quis, sem. Nulla consequat massa quis enim. Donec pede justo,</tspan><tspan
         style="font-style:normal;font-variant:normal;font-weight:normal;font-stretch:normal;line-height:100%;font-family:Renaissance;-inkscape-font-specification:Renaissance;stroke-width:0.16255027;stroke-miterlimit:4;stroke-dasharray:none;fill:#797979;fill-opacity:0.65306121;"
         y="182.76323"
         x="76.270561"
         sodipodi:role="line"
         id="tspan1382">fringilla vel, aliquet nec, vulputate eget, arcu. In enim justo, rhoncus ut,</tspan><tspan
         style="font-style:normal;font-variant:normal;font-weight:normal;font-stretch:normal;line-height:100%;font-family:Renaissance;-inkscape-font-specification:Renaissance;stroke-width:0.16255027;stroke-miterlimit:4;stroke-dasharray:none;fill:#797979;fill-opacity:0.65306121;"
         y="196.55608"
         x="76.270561"
         sodipodi:role="line"
         id="tspan1384">imperdiet a, venenatis vitae, justo. Nullam dictum felis eu pede mollis pretium.</tspan><tspan
         style="font-style:normal;font-variant:normal;font-weight:normal;font-stretch:normal;line-height:100%;font-family:Renaissance;-inkscape-font-specification:Renaissance;stroke-width:0.16255027;stroke-miterlimit:4;stroke-dasharray:none;fill:#797979;fill-opacity:0.65306121;"
         y="210.34892"
         x="76.270561"
         sodipodi:role="line"
         id="tspan1386">Integer tincidunt. Cras dapibus. Vivamus elementum semper nisi. Aenean vulputate</tspan><tspan
         style="font-style:normal;font-variant:normal;font-weight:normal;font-stretch:normal;line-height:100%;font-family:Renaissance;-inkscape-font-specification:Renaissance;stroke-width:0.16255027;stroke-miterlimit:4;stroke-dasharray:none;fill:#797979;fill-opacity:0.65306121;"
         y="224.14177"
         x="76.270561"
         sodipodi:role="line"
         id="tspan1388">eleifend tellus. Aenean leo ligula, porttitor eu, consequat vitae, eleifend ac,</tspan><tspan
         style="font-style:normal;font-variant:normal;font-weight:normal;font-stretch:normal;line-height:100%;font-family:Renaissance;-inkscape-font-specification:Renaissance;stroke-width:0.16255027;stroke-miterlimit:4;stroke-dasharray:none;fill:#797979;fill-opacity:0.65306121;"
         y="237.93462"
         x="76.270561"
         sodipodi:role="line"
         id="tspan1390">enim. Aliquam lorem ante, dapibus in, viverra quis, feugiat a, tellus. Phasellus</tspan><tspan
         style="font-style:normal;font-variant:normal;font-weight:normal;font-stretch:normal;line-height:100%;font-family:Renaissance;-inkscape-font-specification:Renaissance;stroke-width:0.16255027;stroke-miterlimit:4;stroke-dasharray:none;fill:#797979;fill-opacity:0.65306121;"
         y="251.72746"
         x="76.270561"
         sodipodi:role="line"
         id="tspan1392">viverra nulla ut metus varius laoreet. Quisque rutrum. Aenean imperdiet. Etiam</tspan><tspan
         style="font-style:normal;font-variant:normal;font-weight:normal;font-stretch:normal;line-height:100%;font-family:Renaissance;-inkscape-font-specification:Renaissance;stroke-width:0.16255027;stroke-miterlimit:4;stroke-dasharray:none;fill:#797979;fill-opacity:0.65306121;"
         y="265.52029"
         x="76.270561"
         sodipodi:role="line"
         id="tspan1394">ultricies nisi vel augue. Curabitur ullamcorper ultricies nisi. Nam eget dui.</tspan><tspan
         style="font-style:normal;font-variant:normal;font-weight:normal;font-stretch:normal;line-height:100%;font-family:Renaissance;-inkscape-font-specification:Renaissance;stroke-width:0.16255027;stroke-miterlimit:4;stroke-dasharray:none;fill:#797979;fill-opacity:0.65306121;"
         y="279.31314"
         x="76.270561"
         sodipodi:role="line"
         id="tspan1396">Lorem ipsum dolor sit amet, consectetuer adipiscing elit. Aenean commodo ligula</tspan><tspan
         style="font-style:normal;font-variant:normal;font-weight:normal;font-stretch:normal;line-height:100%;font-family:Renaissance;-inkscape-font-specification:Renaissance;stroke-width:0.16255027;stroke-miterlimit:4;stroke-dasharray:none;fill:#797979;fill-opacity:0.65306121;"
         y="293.10599"
         x="76.270561"
         sodipodi:role="line"
         id="tspan1398">eget dolor. Aenean massa. Cum sociis natoque penatibus et magnis dis parturient</tspan><tspan
         style="font-style:normal;font-variant:normal;font-weight:normal;font-stretch:normal;line-height:100%;font-family:Renaissance;-inkscape-font-specification:Renaissance;stroke-width:0.16255027;stroke-miterlimit:4;stroke-dasharray:none;fill:#797979;fill-opacity:0.65306121;"
         y="306.89883"
         x="76.270561"
         sodipodi:role="line"
         id="tspan1400">montes, nascetur ridiculus mus. Donec quam felis, ultricies nec, pellentesque</tspan><tspan
         style="font-style:normal;font-variant:normal;font-weight:normal;font-stretch:normal;line-height:100%;font-family:Renaissance;-inkscape-font-specification:Renaissance;stroke-width:0.16255027;stroke-miterlimit:4;stroke-dasharray:none;fill:#797979;fill-opacity:0.65306121;"
         y="320.69168"
         x="76.270561"
         sodipodi:role="line"
         id="tspan1402">eu, pretium quis, sem. Nulla consequat massa quis enim. Donec pede justo,</tspan><tspan
         style="font-style:normal;font-variant:normal;font-weight:normal;font-stretch:normal;line-height:100%;font-family:Renaissance;-inkscape-font-specification:Renaissance;stroke-width:0.16255027;stroke-miterlimit:4;stroke-dasharray:none;fill:#797979;fill-opacity:0.65306121;"
         y="334.48453"
         x="76.270561"
         sodipodi:role="line"
         id="tspan1404">fringilla vel, aliquet nec, vulputate eget, arcu. In enim justo, rhoncus ut,</tspan><tspan
         style="font-style:normal;font-variant:normal;font-weight:normal;font-stretch:normal;line-height:100%;font-family:Renaissance;-inkscape-font-specification:Renaissance;stroke-width:0.16255027;stroke-miterlimit:4;stroke-dasharray:none;fill:#797979;fill-opacity:0.65306121;"
         y="348.27737"
         x="76.270561"
         sodipodi:role="line"
         id="tspan1406">imperdiet a, venenatis vitae, justo. Nullam dictum felis eu pede mollis pretium.</tspan><tspan
         style="font-style:normal;font-variant:normal;font-weight:normal;font-stretch:normal;line-height:100%;font-family:Renaissance;-inkscape-font-specification:Renaissance;stroke-width:0.16255027;stroke-miterlimit:4;stroke-dasharray:none;fill:#797979;fill-opacity:0.65306121;"
         y="362.07022"
         x="76.270561"
         sodipodi:role="line"
         id="tspan1408">Integer tincidunt. Cras dapibus. Vivamus elementum semper nisi. Aenean vulputate</tspan><tspan
         style="font-style:normal;font-variant:normal;font-weight:normal;font-stretch:normal;line-height:100%;font-family:Renaissance;-inkscape-font-specification:Renaissance;stroke-width:0.16255027;stroke-miterlimit:4;stroke-dasharray:none;fill:#797979;fill-opacity:0.65306121;"
         y="375.86307"
         x="76.270561"
         sodipodi:role="line"
         id="tspan1410">eleifend tellus. Aenean leo ligula, porttitor eu, consequat vitae, eleifend ac,</tspan><tspan
         style="font-style:normal;font-variant:normal;font-weight:normal;font-stretch:normal;line-height:100%;font-family:Renaissance;-inkscape-font-specification:Renaissance;stroke-width:0.16255027;stroke-miterlimit:4;stroke-dasharray:none;fill:#797979;fill-opacity:0.65306121;"
         y="389.65591"
         x="76.270561"
         sodipodi:role="line"
         id="tspan1412">enim. Aliquam lorem ante, dapibus in, viverra quis, feugiat a, tellus. Phasellus</tspan><tspan
         style="font-style:normal;font-variant:normal;font-weight:normal;font-stretch:normal;line-height:100%;font-family:Renaissance;-inkscape-font-specification:Renaissance;stroke-width:0.16255027;stroke-miterlimit:4;stroke-dasharray:none;fill:#797979;fill-opacity:0.65306121;"
         y="403.44876"
         x="76.270561"
         sodipodi:role="line"
         id="tspan1414">viverra nulla ut metus varius laoreet. Quisque rutrum. Aenean imperdiet. Etiam</tspan><tspan
         style="font-style:normal;font-variant:normal;font-weight:normal;font-stretch:normal;line-height:100%;font-family:Renaissance;-inkscape-font-specification:Renaissance;stroke-width:0.16255027;stroke-miterlimit:4;stroke-dasharray:none;fill:#797979;fill-opacity:0.65306121;"
         y="417.24161"
         x="76.270561"
         sodipodi:role="line"
         id="tspan1416">ultricies nisi vel augue. Curabitur ullamcorper ultricies nisi. Nam eget dui.</tspan><tspan
         style="font-style:normal;font-variant:normal;font-weight:normal;font-stretch:normal;line-height:100%;font-family:Renaissance;-inkscape-font-specification:Renaissance;stroke-width:0.16255027;stroke-miterlimit:4;stroke-dasharray:none;fill:#797979;fill-opacity:0.65306121;"
         y="431.03445"
         x="76.270561"
         sodipodi:role="line"
         id="tspan1418">Lorem ipsum dolor sit amet, consectetuer adipiscing elit. Aenean commodo ligula</tspan><tspan
         style="font-style:normal;font-variant:normal;font-weight:normal;font-stretch:normal;line-height:100%;font-family:Renaissance;-inkscape-font-specification:Renaissance;stroke-width:0.16255027;stroke-miterlimit:4;stroke-dasharray:none;fill:#797979;fill-opacity:0.65306121;"
         y="444.8273"
         x="76.270561"
         sodipodi:role="line"
         id="tspan1420">eget dolor. Aenean massa. Cum sociis natoque penatibus et magnis dis parturient</tspan><tspan
         style="font-style:normal;font-variant:normal;font-weight:normal;font-stretch:normal;line-height:100%;font-family:Renaissance;-inkscape-font-specification:Renaissance;stroke-width:0.16255027;stroke-miterlimit:4;stroke-dasharray:none;fill:#797979;fill-opacity:0.65306121;"
         y="458.62015"
         x="76.270561"
         sodipodi:role="line"
         id="tspan1422">montes, nascetur ridiculus mus. Donec</tspan></text>
    <g
       id="g1578"
       transform="matrix(0.57466705,0,0,0.57466705,25.853941,73.715964)">
      <path
         sodipodi:nodetypes="sscccssccccssccccccccssccccssscssccccccccsccscssccsccscscscsccsccscccscscccccccccccccccccssscccsccs"
         inkscape:connector-curvature="0"
         id="rect1040"
         d="m 88.61919,120.40582 c -0.452864,0.23881 -0.91408,0.51064 -1.385103,0.8191 -7.836526,5.11634 -8.99915,6.06127 -13.185336,10.72068 -1.092517,1.21601 -2.360291,2.48612 -2.817371,2.82159 -0.457094,0.33542 -0.894347,0.72328 -0.972342,0.86183 -0.07803,0.13851 -1.37338,1.34343 -2.877715,2.6779 -4.99712,4.43289 -6.068892,5.74282 -10.945456,13.37216 -1.156686,1.80962 -2.868426,4.37174 -3.804137,5.69422 -6.997081,9.88935 -10.577421,15.42851 -12.136257,18.77579 -1.146663,2.46223 -2.047863,3.8201 -2.456831,3.70215 -0.117473,-0.0339 -0.160967,-0.33504 -0.09735,-0.66894 0.09584,-0.50348 0.03538,-0.56231 -0.35078,-0.34903 -0.399139,0.22046 -1.808618,4.58075 -2.529193,7.82241 -0.439948,1.97925 -0.937662,3.22433 -1.044329,2.61478 -0.146108,-0.83487 -0.885332,-0.30269 -0.872982,0.62852 0.0092,0.69736 -0.03514,0.73528 -0.510459,0.43993 -0.427405,-0.26557 -0.560927,-0.2196 -0.745143,0.25076 -0.37629,0.96033 -0.90832,4.95514 -1.110715,8.33514 l -0.192613,3.20062 -1.031893,-2.28144 c -0.567277,-1.25481 -1.315702,-2.96526 -1.663991,-3.80202 -0.385454,-0.92606 -0.739095,-1.46294 -0.904017,-1.37184 -0.408966,0.22588 -0.03092,3.10695 0.697742,5.31589 0.448743,1.36036 0.558019,2.33638 0.356077,3.19015 -0.430993,1.82223 -0.583381,4.38683 -0.361178,6.07927 0.249523,1.90056 1.572588,6.41041 2.249497,7.66713 1.023282,1.8998 0.594469,1.94946 -2.841786,0.32461 -1.817095,-0.85923 -3.408627,-1.50561 -3.534758,-1.43595 -0.492809,0.2722 0.300904,0.9462 3.081175,2.61986 1.666076,1.00294 3.727669,2.56882 4.857769,3.68825 2.233903,2.21283 6.691321,7.06171 6.634367,7.21737 -0.02082,0.0568 -0.59249,1.42276 -1.269517,3.03614 -1.325831,3.15955 -2.970109,7.76785 -5.356101,15.01044 -1.370243,4.15935 -2.054221,7.10049 -2.618396,11.25263 l -0.205222,1.50906 3.095614,-1.93373 c 1.70266,-1.06301 3.407923,-2.3298 3.789181,-2.81559 0.396999,-0.50583 2.196862,-6.05005 4.212932,-12.97456 l 3.520653,-12.09039 3.819167,1.66216 c 2.100514,0.91443 5.93291,2.65912 8.516754,3.87639 3.822064,1.80062 5.119089,2.24681 6.958754,2.39323 1.243678,0.099 2.868747,0.28378 3.610799,0.41081 0.742044,0.12701 1.434294,0.18582 1.53809,0.13067 0.103776,-0.0552 -2.956167,-1.69236 -6.798822,-3.63732 -3.84266,-1.94494 -7.596406,-3.82508 -8.342247,-4.1776 -0.745846,-0.35252 -1.410366,-0.73909 -1.476826,-0.85942 -0.326571,-0.59126 5.214894,-0.2755 8.094686,0.46082 2.987229,0.76377 6.722009,0.8995 7.305432,0.26617 0.129943,-0.14089 -0.79215,-0.38274 -2.049424,-0.53729 -1.257275,-0.15455 -3.009842,-0.62672 -3.89433,-1.04864 -0.884477,-0.42189 -2.173498,-0.91208 -2.863671,-1.08972 -0.981159,-0.25254 -1.116445,-0.35541 -0.622893,-0.47086 0.347251,-0.0811 2.125753,-0.5679 3.951961,-1.08259 1.826202,-0.51471 3.80211,-0.94922 4.391241,-0.96535 1.872811,-0.0513 1.61639,-0.53226 -0.446423,-0.83749 -2.116612,-0.31317 -2.71194,-0.66968 -1.531299,-0.91566 2.725497,-0.56791 4.529874,-0.19568 7.373479,1.5204 2.798411,1.68883 3.283877,1.50466 0.869752,-0.32977 -0.848254,-0.64454 -1.475928,-1.2081 -1.395506,-1.25252 0.08042,-0.0444 -0.499513,-0.40523 -1.288777,-0.80236 -1.718064,-0.86451 -3.397845,-1.96953 -3.333627,-2.19222 0.02542,-0.0885 1.276949,-0.1876 2.780712,-0.22064 1.503768,-0.033 2.761692,-0.15472 2.795258,-0.27111 0.05401,-0.18752 -1.997001,-0.62154 -7.207422,-1.52436 -1.907601,-0.33055 -1.667041,-0.49643 1.847652,-1.27956 3.214185,-0.7161 3.553914,-0.87783 2.27191,-1.08355 -0.537714,-0.0863 -0.867474,-0.22167 -0.732267,-0.30071 0.363908,-0.21232 3.594103,0.043 4.508512,0.35681 0.435273,0.14938 1.020761,0.14429 1.300738,-0.0103 0.406624,-0.2246 0.398454,-0.39929 -0.03965,-0.86908 -0.301637,-0.32344 -0.478877,-0.62646 -0.393974,-0.67335 0.08499,-0.047 1.798068,0.27814 3.805819,0.72153 2.736713,0.60434 3.769834,0.69143 4.128772,0.35001 0.553003,-0.52598 0.416181,-0.98389 -0.265746,-0.88902 -0.257934,0.0354 -1.092026,-0.26106 -1.853222,-0.65886 -0.761196,-0.3978 -2.351011,-1.03127 -3.532464,-1.40795 -1.181449,-0.37668 -1.975846,-0.77777 -1.765328,-0.89172 1.104634,-0.5988 3.846559,-0.98558 5.790717,-0.81811 2.253717,0.19415 4.347896,0.0674 4.445009,-0.26938 0.02995,-0.10406 -1.966796,-0.82281 -4.43729,-1.59727 -2.470484,-0.77446 -4.475307,-1.46537 -4.454841,-1.53636 0.02044,-0.0711 0.467244,-0.18965 0.992884,-0.26309 0.525535,-0.0737 1.940267,-0.67517 3.143074,-1.33659 1.202798,-0.66147 2.785976,-1.40374 3.517752,-1.6489 0.731686,-0.24532 1.502593,-0.64618 1.713971,-0.89116 0.332552,-0.38553 0.129364,-0.53886 -1.51246,-1.14113 l -1.897159,-0.69602 1.281067,-4.48795 c 0.704868,-2.46868 1.467999,-5.66272 1.695132,-7.09691 0.361095,-2.28012 0.622231,-2.89961 2.086575,-4.9314 3.221084,-4.4692 4.097466,-7.23159 5.113955,-16.13486 0.751822,-6.58502 1.414884,-11.01254 1.971568,-13.16009 0.266865,-1.02947 0.564815,-2.93635 0.661394,-4.23783 0.207593,-2.79788 3.031061,-13.88907 4.339904,-17.04893 0.504021,-1.21682 1.320082,-2.86155 1.814506,-3.65458 1.711936,-2.74597 2.658066,-5.25267 2.433736,-6.44568 -0.36713,-1.95244 -1.53829,-3.22896 -4.082947,-4.44685 -3.371816,-1.61374 -6.15645,-1.62387 -9.326256,0.0483 z"
         style="opacity:1;fill:#a5a5a5;fill-opacity:0.83928576;fill-rule:nonzero;stroke:none;stroke-width:1.70478165;stroke-linecap:square;stroke-linejoin:miter;stroke-miterlimit:4;stroke-dasharray:none;stroke-dashoffset:0;stroke-opacity:1;paint-order:normal" />
      <g
         inkscape:transform-center-y="-18.789399"
         inkscape:transform-center-x="-26.091377"
         style="fill:#000000;fill-opacity:1;stroke:none"
         transform="matrix(0.0089953,-0.00306388,-0.0030682,-0.00900795,5.418096,306.55725)"
         id="g897">
        <path
           style="fill:#000000;fill-opacity:1"
           inkscape:connector-curvature="0"
           d="m 14605,15700 c -127,-8 -276,-46 -293,-75 -9,-17 -42,-26 -468,-134 -195,-49 -355,-96 -430,-125 -169,-67 -365,-166 -464,-235 -47,-33 -157,-95 -245,-139 -88,-44 -194,-100 -235,-123 -41,-23 -69,-35 -62,-27 30,37 -14,27 -106,-25 -141,-80 -228,-121 -307,-147 -38,-13 -113,-43 -165,-67 -52,-25 -149,-67 -215,-95 -139,-58 -382,-182 -540,-277 -162,-97 -335,-231 -463,-358 -62,-62 -118,-113 -124,-113 -39,0 -199,-119 -437,-325 -95,-82 -187,-159 -205,-171 -17,-12 -144,-95 -282,-186 -138,-91 -303,-204 -366,-251 -123,-90 -383,-305 -483,-398 -33,-31 -70,-61 -82,-67 -48,-26 -325,-231 -431,-319 -138,-115 -299,-277 -403,-403 -77,-94 -79,-95 -180,-140 -56,-25 -106,-46 -110,-48 -15,-6 22,92 47,125 58,76 -20,40 -108,-50 -172,-177 -344,-453 -432,-696 -15,-40 -35,-85 -46,-99 -24,-30 -24,-30 -5,32 8,27 15,56 15,65 0,30 -74,-65 -99,-125 -44,-108 -123,-247 -132,-232 -6,9 -9,4 -10,-17 -1,-18 -3,-23 -6,-12 -3,10 12,59 32,109 20,50 37,105 39,122 2,17 7,43 11,59 4,15 3,27 -2,27 -17,0 -51,-43 -102,-130 -39,-64 -51,-79 -51,-60 0,46 -13,71 -39,81 -22,9 -29,7 -48,-18 -13,-15 -42,-66 -65,-113 -22,-47 -54,-104 -69,-127 -16,-23 -68,-131 -115,-240 -48,-109 -104,-236 -124,-283 -21,-47 -61,-149 -90,-228 -29,-78 -54,-141 -56,-140 -1,2 -9,53 -18,113 -40,281 -57,442 -61,585 -5,162 -11,210 -25,210 -15,0 -69,-157 -87,-252 -12,-69 -17,-153 -17,-326 l -1,-234 -35,-37 c -75,-79 -216,-367 -255,-518 -84,-330 -98,-914 -30,-1228 4,-19 -63,45 -365,350 -104,105 -255,235 -273,235 -11,0 1,-81 14,-97 80,-96 149,-175 231,-266 117,-130 171,-199 228,-292 91,-148 202,-380 291,-605 51,-129 130,-308 175,-397 l 82,-161 -25,-24 c -30,-28 -398,-446 -504,-573 -80,-96 -193,-245 -274,-360 -26,-38 -74,-97 -105,-130 -63,-67 -164,-197 -318,-408 -57,-78 -152,-207 -211,-287 -182,-245 -307,-449 -433,-705 -43,-88 -88,-177 -100,-197 -12,-21 -20,-40 -17,-42 7,-8 243,41 379,78 69,19 141,37 160,41 57,11 222,66 265,87 49,25 85,57 85,76 0,8 22,38 48,66 26,28 80,96 119,151 39,55 100,140 137,188 37,49 107,157 156,240 58,99 100,159 120,172 49,32 209,255 536,745 347,520 421,625 437,625 6,0 29,-24 51,-53 45,-58 143,-147 331,-299 71,-57 266,-242 475,-452 365,-366 525,-516 618,-578 52,-34 147,-72 250,-98 29,-7 110,-46 180,-86 174,-100 236,-130 241,-118 2,6 -7,17 -18,26 -61,42 -178,154 -242,231 -40,48 -296,310 -569,582 -506,505 -616,622 -588,628 8,2 48,-10 89,-26 113,-45 346,-120 419,-136 51,-11 85,-27 160,-79 52,-35 137,-90 188,-120 51,-31 121,-78 155,-105 60,-47 168,-102 200,-102 9,0 18,-4 21,-9 17,-27 318,-80 341,-60 5,6 1,9 -10,9 -11,0 -60,23 -110,51 -49,28 -141,75 -204,105 -108,51 -119,59 -230,171 -138,139 -198,186 -306,243 -99,51 -114,65 -61,56 21,-4 158,-12 305,-17 441,-16 552,-24 600,-43 87,-32 231,-63 231,-48 0,5 -75,48 -168,95 -92,47 -179,98 -192,113 -14,15 -45,40 -69,55 l -45,29 h 33 c 130,0 395,-69 572,-148 62,-28 72,-37 175,-168 107,-137 279,-336 296,-342 4,-2 8,3 8,11 0,9 -4,17 -8,19 -4,1 -54,75 -110,163 -56,88 -110,171 -120,185 -16,23 -16,24 1,17 9,-3 17,-3 17,1 0,4 -58,62 -129,130 -97,91 -142,142 -176,200 -26,42 -70,106 -98,141 -27,35 -44,62 -36,59 8,-3 58,-24 111,-47 54,-23 126,-48 161,-55 35,-7 77,-21 95,-30 107,-55 282,-97 282,-67 0,5 -23,17 -50,26 -28,9 -56,22 -63,28 -18,16 -47,33 -157,88 -52,26 -133,75 -180,109 -47,34 -123,80 -170,102 -47,22 -119,57 -160,78 -41,20 -99,45 -127,54 -29,10 -53,20 -53,22 0,3 8,3 18,0 9,-3 80,-10 157,-16 77,-6 187,-18 245,-26 58,-9 164,-20 235,-24 72,-4 142,-11 158,-15 17,-5 27,-3 27,4 0,6 -5,11 -11,11 -6,0 -74,31 -152,69 -78,38 -166,77 -195,86 -82,26 -55,29 55,6 263,-56 512,-155 670,-267 34,-24 64,-44 67,-44 2,0 1,14 -4,30 -10,33 -2,33 37,-3 34,-30 37,-15 9,40 -29,59 -83,132 -139,190 -22,24 -39,45 -36,47 3,3 59,-32 126,-77 66,-45 182,-116 258,-157 75,-41 185,-107 244,-146 116,-77 216,-134 237,-134 8,0 19,9 26,20 9,13 24,20 45,20 55,0 43,14 -69,81 -38,22 -68,44 -68,48 0,24 -165,180 -250,237 -52,35 -113,78 -135,95 -48,36 -181,122 -250,161 -27,15 -47,28 -44,28 3,0 50,-7 105,-15 54,-8 171,-18 259,-22 137,-5 171,-10 240,-33 91,-31 233,-93 285,-125 39,-23 110,-48 125,-44 6,2 36,-7 68,-19 60,-23 167,-30 167,-12 0,6 -4,10 -8,10 -5,0 -17,7 -28,16 -10,8 -13,13 -6,9 6,-3 12,-4 12,-1 0,3 -37,24 -82,46 -46,23 -98,57 -117,76 -18,19 -42,34 -54,34 -11,0 -37,17 -57,39 -20,21 -46,44 -58,50 -12,6 -70,50 -129,98 -59,47 -157,120 -216,162 -104,74 -107,76 -75,79 41,4 223,-16 265,-29 18,-6 43,-9 55,-7 13,2 -9,10 -49,18 -40,7 -73,17 -73,22 0,12 54,10 67,-3 17,-17 123,-13 243,11 58,11 132,20 165,21 45,1 54,3 35,9 -23,7 -22,8 10,10 19,1 96,5 170,9 82,5 140,4 148,-2 8,-6 12,-6 12,1 0,12 38,27 58,23 8,-1 20,3 28,10 13,10 12,14 -2,30 -10,11 -25,19 -36,19 -17,0 -88,60 -162,137 -17,17 -55,47 -84,67 -29,19 -47,38 -42,41 6,4 49,57 96,118 46,62 129,171 185,242 143,187 250,361 334,549 39,85 99,189 231,397 16,26 45,48 106,78 149,77 238,144 433,330 143,136 202,200 240,259 27,43 71,103 96,133 34,39 102,164 247,454 110,220 216,438 236,485 62,151 121,274 160,334 22,33 68,125 104,205 35,80 72,157 81,171 29,43 77,132 102,190 12,30 43,81 67,113 137,180 230,357 271,517 21,81 11,64 218,384 96,148 199,296 229,328 63,69 88,112 80,141 -4,15 16,50 73,126 43,58 131,180 195,271 65,91 144,192 176,225 31,33 83,92 115,130 61,72 190,195 207,195 5,0 33,22 61,48 29,26 69,60 89,75 21,15 58,56 82,90 25,34 75,86 110,116 69,56 130,136 121,159 -2,7 2,28 9,47 21,49 18,191 -4,270 -37,128 -79,183 -303,390 -133,123 -194,165 -295,204 -168,65 -287,77 -567,61 z m 320,-190 c 134,-36 316,-100 397,-141 120,-60 182,-151 229,-331 18,-67 21,-103 17,-199 -4,-111 -6,-121 -41,-191 -35,-69 -44,-79 -185,-190 -181,-143 -326,-279 -470,-441 -137,-155 -196,-228 -229,-286 -15,-25 -72,-107 -128,-181 -56,-74 -116,-162 -134,-195 -18,-33 -52,-85 -75,-115 -22,-30 -64,-98 -92,-150 -269,-503 -237,-460 -414,-550 -52,-26 -139,-77 -193,-113 -87,-59 -175,-97 -221,-97 -9,0 -16,-4 -16,-10 0,-20 135,-11 224,15 93,27 158,57 244,111 28,19 52,33 52,31 0,-7 -140,-267 -217,-402 -199,-348 -161,-300 -308,-388 -71,-42 -157,-95 -191,-117 -44,-29 -85,-45 -154,-62 -68,-15 -88,-24 -74,-29 67,-26 287,22 397,87 32,19 60,34 61,34 2,0 -32,-64 -75,-141 -43,-78 -81,-156 -85,-173 -3,-17 -30,-89 -59,-161 -56,-137 -95,-255 -95,-285 0,-19 -136,-322 -208,-466 -22,-44 -67,-113 -101,-154 -33,-41 -115,-149 -182,-240 -67,-91 -139,-188 -161,-217 -53,-73 -139,-155 -233,-224 -44,-32 -117,-86 -162,-119 -45,-33 -88,-60 -96,-60 -18,0 -82,-43 -123,-82 -18,-16 -108,-67 -200,-113 -235,-117 -444,-242 -444,-267 0,-12 103,1 194,24 43,12 120,42 171,68 l 93,48 -85,-136 c -46,-76 -153,-252 -237,-392 -84,-140 -192,-319 -239,-397 -48,-78 -87,-147 -87,-153 0,-7 7,-7 23,1 18,10 17,6 -8,-21 -20,-22 -24,-31 -12,-27 15,6 16,4 7,-13 -17,-31 -28,-32 -74,-5 -24,14 -59,30 -77,35 -27,8 -415,12 -536,7 -44,-3 -42,-13 5,-24 l 37,-10 -43,-18 c -24,-9 -41,-23 -39,-29 1,-6 23,-21 48,-33 36,-19 72,-25 199,-33 85,-6 209,-19 275,-30 102,-17 135,-27 215,-67 l 95,-48 -100,-2 c -150,-3 -354,-21 -614,-54 l -233,-29 -80,25 c -43,14 -86,25 -94,25 -8,0 -70,29 -137,64 -242,126 -505,232 -718,290 -145,40 -269,65 -269,55 0,-5 7,-9 14,-9 21,0 328,-101 323,-106 -2,-3 -26,0 -52,6 -48,11 -85,6 -85,-11 0,-21 60,-71 127,-104 39,-19 129,-57 200,-84 70,-27 146,-57 167,-66 45,-19 170,-102 220,-145 19,-17 81,-55 139,-85 58,-29 102,-56 99,-59 -3,-3 4,-6 15,-6 44,0 266,-118 283,-151 10,-17 7,-19 -22,-19 -46,0 -160,26 -225,50 -65,24 -77,25 -69,5 5,-13 0,-15 -27,-11 -17,3 -81,13 -142,21 -60,9 -167,30 -237,46 -80,19 -192,35 -305,44 -238,20 -241,21 -293,39 -57,20 -72,20 -40,0 17,-10 18,-13 5,-8 -219,76 -349,95 -695,101 -319,6 -549,-6 -735,-37 -114,-19 -272,-64 -290,-82 -7,-7 -3,-8 10,-5 26,8 176,33 280,47 288,39 781,52 1010,25 146,-17 297,-51 398,-89 69,-26 95,-43 336,-222 124,-93 218,-176 181,-161 -8,3 -48,20 -89,36 -40,17 -101,38 -135,47 -33,8 -153,47 -266,84 -188,63 -451,140 -705,204 -55,14 -142,39 -192,55 -51,16 -93,26 -93,22 0,-3 24,-14 52,-23 50,-16 51,-17 13,-12 -105,13 -183,16 -188,7 -9,-14 168,-96 298,-139 61,-19 198,-60 305,-90 367,-103 446,-133 521,-201 22,-20 140,-71 239,-103 23,-7 21,-8 -12,-9 -20,-1 -49,4 -65,10 -74,30 -222,51 -453,64 -268,16 -290,19 -421,70 -49,19 -101,35 -115,35 -15,0 -50,6 -78,14 -190,54 -441,120 -551,146 -71,17 -170,40 -218,51 -49,11 -90,19 -92,17 -2,-2 59,-25 136,-52 77,-27 138,-50 136,-52 -2,-2 -64,10 -138,26 -74,16 -143,29 -154,29 -11,0 90,-27 225,-59 253,-60 319,-84 720,-255 409,-175 421,-181 575,-321 46,-41 48,-41 -65,13 -58,28 -114,47 -175,57 -49,9 -121,23 -159,31 -38,8 -71,13 -74,11 -4,-5 16,-11 68,-22 28,-5 31,-8 16,-14 -14,-4 10,-13 74,-28 81,-19 109,-32 198,-90 209,-135 248,-163 302,-212 l 55,-49 -55,21 c -119,45 -188,59 -325,68 -160,10 -196,16 -355,60 -124,34 -178,59 -328,148 -119,71 -325,168 -383,181 -188,41 -347,61 -494,60 -108,-1 -124,-3 -95,-11 l 35,-11 -30,-7 c -29,-6 -75,-27 -75,-34 0,-2 26,6 58,17 73,25 172,19 297,-17 164,-48 238,-81 380,-173 77,-50 160,-100 184,-112 24,-13 82,-50 130,-84 112,-81 156,-109 219,-141 29,-14 52,-29 52,-32 0,-4 -17,-3 -37,1 -20,3 -133,6 -252,6 -237,-1 -394,14 -546,53 -117,31 -189,41 -180,27 3,-6 14,-11 23,-11 9,0 24,-5 32,-11 22,-15 -88,0 -121,17 -49,25 -120,38 -129,24 -14,-22 -118,17 -212,80 -86,58 -236,135 -244,127 -5,-5 107,-90 173,-131 24,-14 43,-28 43,-30 0,-3 -237,49 -274,60 -14,5 -16,3 -10,-7 6,-12 5,-12 -8,-1 -15,12 -11,22 44,100 34,48 105,143 159,212 53,69 125,172 160,230 64,108 207,300 490,660 88,113 186,241 218,285 32,44 111,148 176,230 117,149 184,245 263,380 45,76 111,170 242,346 47,63 93,126 102,140 9,14 35,48 58,74 24,28 39,54 35,62 -6,18 19,62 97,165 34,46 53,78 46,80 -7,3 9,31 40,69 69,86 236,321 273,386 27,46 276,327 298,335 19,7 274,307 331,388 32,47 77,103 100,125 24,22 85,94 138,160 52,66 170,197 261,290 92,94 226,234 299,312 155,164 406,399 612,573 180,152 309,270 515,471 88,86 194,181 236,212 42,30 99,85 127,120 39,50 71,77 139,117 70,42 118,83 238,205 83,83 177,171 210,194 149,103 192,136 228,167 20,19 42,34 47,34 6,0 16,11 22,25 9,21 9,29 -4,42 -16,16 -43,10 -33,-8 4,-5 -10,-19 -30,-30 -19,-12 -40,-30 -45,-40 -6,-10 -34,-33 -64,-51 -111,-69 -216,-156 -356,-298 -107,-108 -166,-159 -225,-195 -93,-57 -124,-83 -171,-147 -19,-26 -65,-68 -102,-94 -37,-27 -137,-116 -222,-198 -215,-209 -358,-339 -545,-497 -213,-181 -431,-385 -593,-556 -112,-117 -137,-139 -157,-136 -19,4 -31,-5 -67,-52 -24,-32 -79,-98 -123,-148 -44,-49 -102,-117 -130,-151 -120,-149 -358,-402 -759,-811 -473,-482 -526,-536 -855,-894 -284,-309 -376,-413 -503,-570 -246,-304 -470,-568 -499,-586 -30,-19 -110,-112 -318,-365 -52,-63 -122,-146 -156,-185 -35,-38 -102,-120 -151,-181 -49,-61 -145,-179 -213,-263 -67,-85 -147,-190 -176,-235 -56,-87 -144,-196 -158,-196 -4,0 -22,30 -39,68 -17,37 -38,78 -48,92 -23,33 -47,169 -54,307 -6,105 -50,380 -81,503 -19,76 -33,204 -45,412 -5,97 -12,203 -16,235 l -5,58 28,-50 c 15,-27 42,-59 60,-70 17,-11 36,-30 42,-42 6,-13 15,-23 21,-23 18,0 10,71 -25,224 -60,262 -88,449 -80,546 12,162 46,366 83,499 35,127 37,132 44,95 4,-21 19,-95 32,-164 13,-69 27,-150 31,-180 4,-30 16,-94 27,-143 18,-80 19,-100 9,-244 -24,-348 -4,-710 55,-1008 19,-95 80,-285 96,-300 8,-7 9,-4 3,10 -29,77 -53,311 -61,615 -7,283 -8,273 52,715 26,191 42,261 30,130 -31,-339 -32,-648 -1,-1075 24,-338 63,-610 87,-610 5,0 7,4 4,8 -10,16 -53,636 -66,957 -16,365 5,697 65,1018 14,76 36,169 49,205 49,138 68,182 76,177 4,-3 18,7 30,22 16,22 20,24 16,8 -3,-11 -12,-60 -21,-110 -20,-108 -143,-684 -151,-705 -3,-10 -2,-12 4,-5 36,37 157,509 205,795 17,107 33,182 35,165 1,-16 5,-41 8,-53 l 5,-24 27,29 27,28 3,-43 c 4,-58 24,-50 36,14 11,64 36,157 41,152 6,-5 -8,-90 -44,-268 -17,-85 -43,-234 -57,-330 -25,-174 -49,-558 -39,-635 2,-22 9,-79 16,-127 8,-65 8,-134 0,-270 -17,-264 -30,-448 -37,-488 -4,-23 -2,-32 4,-25 15,15 50,238 67,430 22,249 23,255 38,310 8,28 20,115 27,195 6,80 18,188 25,240 20,137 72,683 80,831 9,185 83,496 149,629 18,36 49,108 70,160 34,90 76,168 76,144 0,-7 -16,-74 -35,-150 -20,-76 -34,-145 -32,-153 2,-9 9,9 17,39 14,59 80,224 86,217 2,-2 -5,-48 -16,-102 -11,-53 -20,-131 -20,-172 0,-84 17,-166 34,-160 6,2 16,32 22,68 8,47 13,59 18,44 22,-58 40,-95 48,-95 4,0 8,1 8,3 1,1 5,58 10,127 9,125 20,174 101,435 72,233 102,315 147,400 42,79 53,93 97,117 53,29 155,71 161,65 2,-1 -8,-27 -21,-56 -24,-51 -32,-91 -18,-91 3,0 16,8 27,18 11,9 1,-7 -21,-36 -37,-47 -47,-82 -23,-82 5,0 52,51 107,113 104,119 405,427 382,390 -8,-12 -35,-51 -62,-87 -51,-70 -78,-145 -42,-116 14,11 10,-2 -13,-42 -58,-105 -7,-61 113,97 104,136 246,303 315,370 l 61,60 -21,-50 c -37,-86 -70,-233 -70,-308 0,-39 2,-68 5,-66 2,3 23,74 45,158 44,170 79,260 140,362 34,58 57,81 136,139 52,39 136,101 188,139 52,39 109,85 127,104 19,19 88,75 154,124 164,122 331,260 435,359 60,56 165,134 343,253 141,94 258,171 260,171 2,0 -23,-51 -55,-114 -32,-63 -80,-176 -107,-253 -27,-76 -63,-176 -79,-222 -17,-46 -28,-90 -25,-97 6,-15 32,-18 48,-6 31,23 104,138 185,292 50,96 95,179 100,184 5,5 0,-19 -11,-54 -20,-64 -40,-172 -33,-179 8,-8 63,128 103,255 36,114 49,142 105,220 87,122 164,207 346,381 121,116 188,171 306,250 218,146 427,270 604,356 85,41 184,92 220,112 l 65,37 -82,-79 c -45,-43 -99,-103 -121,-133 -21,-30 -46,-61 -55,-69 -10,-7 -17,-19 -17,-25 0,-7 -11,-23 -25,-36 -43,-41 -28,-54 18,-16 53,46 196,146 206,146 4,0 16,10 27,22 36,41 298,229 482,346 101,64 275,177 385,251 243,161 309,195 587,301 215,83 774,280 792,280 5,0 6,-5 2,-12 -5,-8 -2,-9 12,-4 48,20 78,25 209,36 77,6 185,20 240,30 120,22 211,19 320,-10 z m -4860,-2660 c -9,-16 -18,-30 -21,-30 -2,0 2,14 11,30 9,17 18,30 21,30 2,0 -2,-13 -11,-30 z m -40,-77 c -19,-46 -41,-71 -26,-30 14,37 30,67 36,67 3,0 -2,-17 -10,-37 z M 7980,11647 c 0,-1 -26,-27 -57,-57 l -58,-55 55,58 c 50,53 60,62 60,54 z M 6567,10378 c -25,-51 -48,-103 -52,-116 -4,-13 -9,-21 -12,-18 -6,5 12,63 65,216 l 37,105 3,-47 c 2,-38 -5,-63 -41,-140 z m 2698,-20 c -63,-76 -208,-229 -213,-224 -2,3 48,62 113,131 113,121 156,160 100,93 z m -2634,-184 c -7,-30 -17,-56 -22,-59 -5,-3 -7,0 -4,7 2,7 9,40 16,73 6,33 14,54 17,46 2,-7 -1,-38 -7,-67 z m 2239,-231 c -12,-16 -46,-66 -77,-113 -103,-157 -305,-431 -448,-610 -51,-63 -106,-142 -123,-175 -17,-33 -99,-148 -183,-255 -84,-107 -187,-239 -228,-292 -42,-53 -130,-161 -197,-240 -66,-79 -196,-249 -289,-378 -93,-129 -196,-273 -230,-320 -34,-47 -128,-179 -210,-295 -82,-115 -163,-226 -180,-245 -71,-80 -116,-154 -199,-327 -67,-138 -239,-381 -591,-833 -292,-375 -407,-527 -509,-673 l -66,-95 -97,35 c -54,20 -103,40 -110,45 -6,5 -41,22 -77,37 l -66,28 102,124 c 234,285 271,332 391,499 127,177 159,217 391,486 183,212 458,558 556,699 46,66 139,188 205,270 165,204 270,343 342,450 33,50 165,216 293,370 230,276 320,390 433,548 31,44 105,128 163,185 59,57 113,121 123,142 22,49 366,425 665,728 127,127 232,232 234,232 2,0 -6,-12 -18,-27 z M 6007,9328 c -2,-13 -4,-5 -4,17 -1,22 1,32 4,23 2,-10 2,-28 0,-40 z m 2452,-50 c -53,-65 -65,-78 -53,-58 19,33 88,119 92,115 3,-2 -15,-28 -39,-57 z M 6137,9048 c -3,-7 -5,-2 -5,12 0,14 2,19 5,13 2,-7 2,-19 0,-25 z m 1773,-113 c -24,-25 -46,-45 -49,-45 -3,0 15,20 39,45 24,25 46,45 49,45 3,0 -15,-20 -39,-45 z m 1490,-2556 25,-7 -25,-1 c -14,0 -38,6 -55,14 l -30,14 30,-6 c 17,-3 41,-10 55,-14 z m -2801,-70 c 64,-26 109,-48 99,-49 -9,0 -18,-5 -20,-11 -4,-13 -179,69 -218,101 l -25,21 24,-6 c 13,-4 76,-29 140,-56 z m 246,-100 40,-18 h -31 c -31,-1 -164,35 -164,44 0,11 117,-9 155,-26 z m -67,-65 c 41,-8 92,-14 115,-14 39,0 47,-5 133,-92 50,-51 113,-127 141,-168 28,-41 87,-122 132,-180 45,-58 122,-158 172,-222 94,-122 191,-227 294,-318 58,-51 58,-52 16,-27 -24,13 -73,51 -110,84 -36,33 -91,78 -121,100 -30,23 -208,193 -395,378 -187,186 -386,374 -442,418 -57,44 -103,81 -103,82 0,2 21,-4 48,-12 26,-8 80,-21 120,-29 z m 1582,-594 c 45,-24 28,-24 -25,0 -22,10 -33,19 -25,19 8,0 31,-8 50,-19 z M 5114,5095 c 50,-19 97,-35 104,-35 7,0 31,-9 53,-20 46,-24 46,-20 -29,-129 -25,-36 -89,-129 -141,-206 -53,-77 -133,-192 -178,-255 -45,-63 -99,-144 -121,-180 -33,-54 -45,-67 -78,-76 -21,-6 -67,-23 -101,-38 -34,-14 -106,-32 -160,-41 -104,-15 -134,-24 -250,-74 -40,-17 -74,-31 -77,-31 -17,0 1,29 61,103 36,45 75,102 86,127 11,25 38,70 61,100 74,100 340,487 406,591 36,56 88,127 117,157 l 51,55 52,-7 c 29,-4 94,-23 144,-41 z"
           id="path877" />
        <path
           style="fill:#000000;fill-opacity:1"
           inkscape:connector-curvature="0"
           d="m 13945,14475 c -134,-43 -422,-187 -516,-257 -88,-66 -244,-165 -409,-260 -117,-68 -341,-245 -400,-316 -33,-40 -32,-56 3,-25 12,11 37,28 55,37 18,9 78,55 135,103 116,97 115,96 337,228 91,53 217,135 281,181 135,96 383,221 557,278 60,20 118,43 128,51 36,27 -63,16 -171,-20 z"
           id="path879" />
        <path
           style="fill:#000000;fill-opacity:1"
           inkscape:connector-curvature="0"
           d="m 8966,11648 c -148,-228 -286,-526 -391,-844 -46,-138 -120,-422 -113,-430 3,-2 33,80 68,184 141,420 352,922 470,1120 50,82 25,61 -34,-30 z"
           id="path881" />
        <path
           style="fill:#000000;fill-opacity:1"
           inkscape:connector-curvature="0"
           d="m 8398,11513 c -314,-437 -596,-1200 -680,-1843 -15,-117 -16,-516 -2,-530 8,-8 13,43 17,162 15,410 81,762 227,1198 119,359 329,827 455,1014 25,37 44,70 42,72 -2,2 -29,-31 -59,-73 z"
           id="path883" />
        <path
           style="fill:#000000;fill-opacity:1"
           inkscape:connector-curvature="0"
           d="m 7433,10203 c -134,-338 -233,-745 -221,-906 3,-36 6,-27 22,58 28,149 75,335 170,669 47,165 84,301 82,303 -2,2 -26,-54 -53,-124 z"
           id="path885" />
        <path
           style="fill:#000000;fill-opacity:1"
           inkscape:connector-curvature="0"
           d="m 7196,10019 c -140,-419 -269,-1144 -265,-1499 1,-127 9,-90 49,225 17,138 42,320 56,405 28,170 136,732 158,820 8,30 12,57 10,59 -2,2 -6,-2 -8,-10 z"
           id="path887" />
        <path
           style="fill:#000000;fill-opacity:1"
           inkscape:connector-curvature="0"
           d="m 10405,10011 c 11,-5 74,-21 140,-36 169,-39 538,-142 610,-171 76,-30 45,-3 -42,36 -155,71 -321,118 -548,155 -156,26 -195,30 -160,16 z"
           id="path889" />
        <path
           style="fill:#000000;fill-opacity:1"
           inkscape:connector-curvature="0"
           d="m 9720,9349 c 30,-4 125,-15 210,-24 336,-36 778,-106 909,-145 35,-10 60,-15 55,-11 -45,40 -434,131 -689,160 -141,17 -362,31 -455,30 -84,-2 -84,-2 -30,-10 z"
           id="path891" />
        <path
           style="fill:#000000;fill-opacity:1"
           inkscape:connector-curvature="0"
           d="m 9010,8817 c 6,-7 813,-54 1093,-64 157,-5 177,-4 177,10 0,21 -53,24 -595,37 -247,6 -502,13 -565,16 -63,4 -113,4 -110,1 z"
           id="path893" />
        <path
           style="fill:#000000;fill-opacity:1"
           inkscape:connector-curvature="0"
           d="m 8753,8443 c -24,-2 -43,-8 -43,-12 0,-7 209,-43 330,-56 161,-18 394,-54 735,-112 569,-97 707,-113 957,-113 111,0 118,1 118,20 0,17 -3,18 -18,9 -27,-17 -168,16 -175,40 -6,24 -56,35 -300,67 -109,14 -251,39 -315,55 -64,17 -207,44 -317,60 -110,16 -211,31 -225,34 -32,6 -692,13 -747,8 z"
           id="path895" />
      </g>
    </g>
    <path
       style="opacity:1;fill:#dfdfdf;fill-opacity:1;fill-rule:nonzero;stroke:none;stroke-width:0.99999994;stroke-linecap:square;stroke-linejoin:miter;stroke-miterlimit:4;stroke-dasharray:none;stroke-dashoffset:0;stroke-opacity:1;paint-order:normal"
       d="M -487.98438,-437.24023 V 1208.4102 H 1136.9004 V -437.24023 Z M -6.3007813,-6.0000001 H 467.69922 V 742 H -6.3007813 Z"
       id="rect1056"
       transform="matrix(0.26458333,0,0,0.26458333,0,102.26665)"
       inkscape:connector-curvature="0"
       sodipodi:nodetypes="cccccccccc" />
  </g>
</svg>
