<?xml version="1.0" encoding="UTF-8" standalone="no"?>
<!-- Created with Inkscape (http://www.inkscape.org/) -->

<svg
   xmlns:dc="http://purl.org/dc/elements/1.1/"
   xmlns:cc="http://creativecommons.org/ns#"
   xmlns:rdf="http://www.w3.org/1999/02/22-rdf-syntax-ns#"
   xmlns:svg="http://www.w3.org/2000/svg"
   xmlns="http://www.w3.org/2000/svg"
   xmlns:sodipodi="http://sodipodi.sourceforge.net/DTD/sodipodi-0.dtd"
   xmlns:inkscape="http://www.inkscape.org/namespaces/inkscape"
   width="172"
   height="172"
   viewBox="0 0 45.508332 45.508335"
   version="1.1"
   id="svg8"
   inkscape:version="0.92.4 (5da689c313, 2019-01-14)"
   sodipodi:docname="cover-bg-small.svg">
  <defs
     id="defs2" />
  <sodipodi:namedview
     id="base"
     pagecolor="#ffffff"
     bordercolor="#666666"
     borderopacity="1.0"
     inkscape:pageopacity="0.0"
     inkscape:pageshadow="2"
     inkscape:zoom="4.7674419"
     inkscape:cx="86"
     inkscape:cy="86"
     inkscape:document-units="px"
     inkscape:current-layer="layer1"
     showgrid="false"
     inkscape:pagecheckerboard="false"
     borderlayer="true"
     inkscape:showpageshadow="false"
     inkscape:window-width="1920"
     inkscape:window-height="1009"
     inkscape:window-x="0"
     inkscape:window-y="0"
     inkscape:window-maximized="1"
     units="px"
     inkscape:snap-global="false" />
  <metadata
     id="metadata5">
    <rdf:RDF>
      <cc:Work
         rdf:about="">
        <dc:format>image/svg+xml</dc:format>
        <dc:type
           rdf:resource="http://purl.org/dc/dcmitype/StillImage" />
        <dc:title />
        <dc:creator>
          <cc:Agent>
            <dc:title>Mirian Margiani</dc:title>
          </cc:Agent>
        </dc:creator>
      </cc:Work>
    </rdf:RDF>
  </metadata>
  <g
     inkscape:label="Ebene 1"
     inkscape:groupmode="layer"
     id="layer1"
     transform="translate(0,-251.49165)">
    <g
       id="g1119"
       transform="matrix(0.86804395,0,0,0.86804395,0.87421236,-10.85742)">
      <g
         inkscape:transform-center-y="-18.789399"
         inkscape:transform-center-x="-26.091377"
         style="fill:#000000;stroke:none"
         transform="matrix(0.00377511,6.7270643e-4,6.73652e-4,-0.00378042,-18.276793,366.43048)"
         id="g897">
        <path
           inkscape:connector-curvature="0"
           d="m 14605,15700 c -127,-8 -276,-46 -293,-75 -9,-17 -42,-26 -468,-134 -195,-49 -355,-96 -430,-125 -169,-67 -365,-166 -464,-235 -47,-33 -157,-95 -245,-139 -88,-44 -194,-100 -235,-123 -41,-23 -69,-35 -62,-27 30,37 -14,27 -106,-25 -141,-80 -228,-121 -307,-147 -38,-13 -113,-43 -165,-67 -52,-25 -149,-67 -215,-95 -139,-58 -382,-182 -540,-277 -162,-97 -335,-231 -463,-358 -62,-62 -118,-113 -124,-113 -39,0 -199,-119 -437,-325 -95,-82 -187,-159 -205,-171 -17,-12 -144,-95 -282,-186 -138,-91 -303,-204 -366,-251 -123,-90 -383,-305 -483,-398 -33,-31 -70,-61 -82,-67 -48,-26 -325,-231 -431,-319 -138,-115 -299,-277 -403,-403 -77,-94 -79,-95 -180,-140 -56,-25 -106,-46 -110,-48 -15,-6 22,92 47,125 58,76 -20,40 -108,-50 -172,-177 -344,-453 -432,-696 -15,-40 -35,-85 -46,-99 -24,-30 -24,-30 -5,32 8,27 15,56 15,65 0,30 -74,-65 -99,-125 -44,-108 -123,-247 -132,-232 -6,9 -9,4 -10,-17 -1,-18 -3,-23 -6,-12 -3,10 12,59 32,109 20,50 37,105 39,122 2,17 7,43 11,59 4,15 3,27 -2,27 -17,0 -51,-43 -102,-130 -39,-64 -51,-79 -51,-60 0,46 -13,71 -39,81 -22,9 -29,7 -48,-18 -13,-15 -42,-66 -65,-113 -22,-47 -54,-104 -69,-127 -16,-23 -68,-131 -115,-240 -48,-109 -104,-236 -124,-283 -21,-47 -61,-149 -90,-228 -29,-78 -54,-141 -56,-140 -1,2 -9,53 -18,113 -40,281 -57,442 -61,585 -5,162 -11,210 -25,210 -15,0 -69,-157 -87,-252 -12,-69 -17,-153 -17,-326 l -1,-234 -35,-37 c -75,-79 -216,-367 -255,-518 -84,-330 -98,-914 -30,-1228 4,-19 -63,45 -365,350 -104,105 -255,235 -273,235 -11,0 1,-81 14,-97 80,-96 149,-175 231,-266 117,-130 171,-199 228,-292 91,-148 202,-380 291,-605 51,-129 130,-308 175,-397 l 82,-161 -25,-24 c -30,-28 -398,-446 -504,-573 -80,-96 -193,-245 -274,-360 -26,-38 -74,-97 -105,-130 -63,-67 -164,-197 -318,-408 -57,-78 -152,-207 -211,-287 -182,-245 -307,-449 -433,-705 -43,-88 -88,-177 -100,-197 -12,-21 -20,-40 -17,-42 7,-8 243,41 379,78 69,19 141,37 160,41 57,11 222,66 265,87 49,25 85,57 85,76 0,8 22,38 48,66 26,28 80,96 119,151 39,55 100,140 137,188 37,49 107,157 156,240 58,99 100,159 120,172 49,32 209,255 536,745 347,520 421,625 437,625 6,0 29,-24 51,-53 45,-58 143,-147 331,-299 71,-57 266,-242 475,-452 365,-366 525,-516 618,-578 52,-34 147,-72 250,-98 29,-7 110,-46 180,-86 174,-100 236,-130 241,-118 2,6 -7,17 -18,26 -61,42 -178,154 -242,231 -40,48 -296,310 -569,582 -506,505 -616,622 -588,628 8,2 48,-10 89,-26 113,-45 346,-120 419,-136 51,-11 85,-27 160,-79 52,-35 137,-90 188,-120 51,-31 121,-78 155,-105 60,-47 168,-102 200,-102 9,0 18,-4 21,-9 17,-27 318,-80 341,-60 5,6 1,9 -10,9 -11,0 -60,23 -110,51 -49,28 -141,75 -204,105 -108,51 -119,59 -230,171 -138,139 -198,186 -306,243 -99,51 -114,65 -61,56 21,-4 158,-12 305,-17 441,-16 552,-24 600,-43 87,-32 231,-63 231,-48 0,5 -75,48 -168,95 -92,47 -179,98 -192,113 -14,15 -45,40 -69,55 l -45,29 h 33 c 130,0 395,-69 572,-148 62,-28 72,-37 175,-168 107,-137 279,-336 296,-342 4,-2 8,3 8,11 0,9 -4,17 -8,19 -4,1 -54,75 -110,163 -56,88 -110,171 -120,185 -16,23 -16,24 1,17 9,-3 17,-3 17,1 0,4 -58,62 -129,130 -97,91 -142,142 -176,200 -26,42 -70,106 -98,141 -27,35 -44,62 -36,59 8,-3 58,-24 111,-47 54,-23 126,-48 161,-55 35,-7 77,-21 95,-30 107,-55 282,-97 282,-67 0,5 -23,17 -50,26 -28,9 -56,22 -63,28 -18,16 -47,33 -157,88 -52,26 -133,75 -180,109 -47,34 -123,80 -170,102 -47,22 -119,57 -160,78 -41,20 -99,45 -127,54 -29,10 -53,20 -53,22 0,3 8,3 18,0 9,-3 80,-10 157,-16 77,-6 187,-18 245,-26 58,-9 164,-20 235,-24 72,-4 142,-11 158,-15 17,-5 27,-3 27,4 0,6 -5,11 -11,11 -6,0 -74,31 -152,69 -78,38 -166,77 -195,86 -82,26 -55,29 55,6 263,-56 512,-155 670,-267 34,-24 64,-44 67,-44 2,0 1,14 -4,30 -10,33 -2,33 37,-3 34,-30 37,-15 9,40 -29,59 -83,132 -139,190 -22,24 -39,45 -36,47 3,3 59,-32 126,-77 66,-45 182,-116 258,-157 75,-41 185,-107 244,-146 116,-77 216,-134 237,-134 8,0 19,9 26,20 9,13 24,20 45,20 55,0 43,14 -69,81 -38,22 -68,44 -68,48 0,24 -165,180 -250,237 -52,35 -113,78 -135,95 -48,36 -181,122 -250,161 -27,15 -47,28 -44,28 3,0 50,-7 105,-15 54,-8 171,-18 259,-22 137,-5 171,-10 240,-33 91,-31 233,-93 285,-125 39,-23 110,-48 125,-44 6,2 36,-7 68,-19 60,-23 167,-30 167,-12 0,6 -4,10 -8,10 -5,0 -17,7 -28,16 -10,8 -13,13 -6,9 6,-3 12,-4 12,-1 0,3 -37,24 -82,46 -46,23 -98,57 -117,76 -18,19 -42,34 -54,34 -11,0 -37,17 -57,39 -20,21 -46,44 -58,50 -12,6 -70,50 -129,98 -59,47 -157,120 -216,162 -104,74 -107,76 -75,79 41,4 223,-16 265,-29 18,-6 43,-9 55,-7 13,2 -9,10 -49,18 -40,7 -73,17 -73,22 0,12 54,10 67,-3 17,-17 123,-13 243,11 58,11 132,20 165,21 45,1 54,3 35,9 -23,7 -22,8 10,10 19,1 96,5 170,9 82,5 140,4 148,-2 8,-6 12,-6 12,1 0,12 38,27 58,23 8,-1 20,3 28,10 13,10 12,14 -2,30 -10,11 -25,19 -36,19 -17,0 -88,60 -162,137 -17,17 -55,47 -84,67 -29,19 -47,38 -42,41 6,4 49,57 96,118 46,62 129,171 185,242 143,187 250,361 334,549 39,85 99,189 231,397 16,26 45,48 106,78 149,77 238,144 433,330 143,136 202,200 240,259 27,43 71,103 96,133 34,39 102,164 247,454 110,220 216,438 236,485 62,151 121,274 160,334 22,33 68,125 104,205 35,80 72,157 81,171 29,43 77,132 102,190 12,30 43,81 67,113 137,180 230,357 271,517 21,81 11,64 218,384 96,148 199,296 229,328 63,69 88,112 80,141 -4,15 16,50 73,126 43,58 131,180 195,271 65,91 144,192 176,225 31,33 83,92 115,130 61,72 190,195 207,195 5,0 33,22 61,48 29,26 69,60 89,75 21,15 58,56 82,90 25,34 75,86 110,116 69,56 130,136 121,159 -2,7 2,28 9,47 21,49 18,191 -4,270 -37,128 -79,183 -303,390 -133,123 -194,165 -295,204 -168,65 -287,77 -567,61 z m 320,-190 c 134,-36 316,-100 397,-141 120,-60 182,-151 229,-331 18,-67 21,-103 17,-199 -4,-111 -6,-121 -41,-191 -35,-69 -44,-79 -185,-190 -181,-143 -326,-279 -470,-441 -137,-155 -196,-228 -229,-286 -15,-25 -72,-107 -128,-181 -56,-74 -116,-162 -134,-195 -18,-33 -52,-85 -75,-115 -22,-30 -64,-98 -92,-150 -269,-503 -237,-460 -414,-550 -52,-26 -139,-77 -193,-113 -87,-59 -175,-97 -221,-97 -9,0 -16,-4 -16,-10 0,-20 135,-11 224,15 93,27 158,57 244,111 28,19 52,33 52,31 0,-7 -140,-267 -217,-402 -199,-348 -161,-300 -308,-388 -71,-42 -157,-95 -191,-117 -44,-29 -85,-45 -154,-62 -68,-15 -88,-24 -74,-29 67,-26 287,22 397,87 32,19 60,34 61,34 2,0 -32,-64 -75,-141 -43,-78 -81,-156 -85,-173 -3,-17 -30,-89 -59,-161 -56,-137 -95,-255 -95,-285 0,-19 -136,-322 -208,-466 -22,-44 -67,-113 -101,-154 -33,-41 -115,-149 -182,-240 -67,-91 -139,-188 -161,-217 -53,-73 -139,-155 -233,-224 -44,-32 -117,-86 -162,-119 -45,-33 -88,-60 -96,-60 -18,0 -82,-43 -123,-82 -18,-16 -108,-67 -200,-113 -235,-117 -444,-242 -444,-267 0,-12 103,1 194,24 43,12 120,42 171,68 l 93,48 -85,-136 c -46,-76 -153,-252 -237,-392 -84,-140 -192,-319 -239,-397 -48,-78 -87,-147 -87,-153 0,-7 7,-7 23,1 18,10 17,6 -8,-21 -20,-22 -24,-31 -12,-27 15,6 16,4 7,-13 -17,-31 -28,-32 -74,-5 -24,14 -59,30 -77,35 -27,8 -415,12 -536,7 -44,-3 -42,-13 5,-24 l 37,-10 -43,-18 c -24,-9 -41,-23 -39,-29 1,-6 23,-21 48,-33 36,-19 72,-25 199,-33 85,-6 209,-19 275,-30 102,-17 135,-27 215,-67 l 95,-48 -100,-2 c -150,-3 -354,-21 -614,-54 l -233,-29 -80,25 c -43,14 -86,25 -94,25 -8,0 -70,29 -137,64 -242,126 -505,232 -718,290 -145,40 -269,65 -269,55 0,-5 7,-9 14,-9 21,0 328,-101 323,-106 -2,-3 -26,0 -52,6 -48,11 -85,6 -85,-11 0,-21 60,-71 127,-104 39,-19 129,-57 200,-84 70,-27 146,-57 167,-66 45,-19 170,-102 220,-145 19,-17 81,-55 139,-85 58,-29 102,-56 99,-59 -3,-3 4,-6 15,-6 44,0 266,-118 283,-151 10,-17 7,-19 -22,-19 -46,0 -160,26 -225,50 -65,24 -77,25 -69,5 5,-13 0,-15 -27,-11 -17,3 -81,13 -142,21 -60,9 -167,30 -237,46 -80,19 -192,35 -305,44 -238,20 -241,21 -293,39 -57,20 -72,20 -40,0 17,-10 18,-13 5,-8 -219,76 -349,95 -695,101 -319,6 -549,-6 -735,-37 -114,-19 -272,-64 -290,-82 -7,-7 -3,-8 10,-5 26,8 176,33 280,47 288,39 781,52 1010,25 146,-17 297,-51 398,-89 69,-26 95,-43 336,-222 124,-93 218,-176 181,-161 -8,3 -48,20 -89,36 -40,17 -101,38 -135,47 -33,8 -153,47 -266,84 -188,63 -451,140 -705,204 -55,14 -142,39 -192,55 -51,16 -93,26 -93,22 0,-3 24,-14 52,-23 50,-16 51,-17 13,-12 -105,13 -183,16 -188,7 -9,-14 168,-96 298,-139 61,-19 198,-60 305,-90 367,-103 446,-133 521,-201 22,-20 140,-71 239,-103 23,-7 21,-8 -12,-9 -20,-1 -49,4 -65,10 -74,30 -222,51 -453,64 -268,16 -290,19 -421,70 -49,19 -101,35 -115,35 -15,0 -50,6 -78,14 -190,54 -441,120 -551,146 -71,17 -170,40 -218,51 -49,11 -90,19 -92,17 -2,-2 59,-25 136,-52 77,-27 138,-50 136,-52 -2,-2 -64,10 -138,26 -74,16 -143,29 -154,29 -11,0 90,-27 225,-59 253,-60 319,-84 720,-255 409,-175 421,-181 575,-321 46,-41 48,-41 -65,13 -58,28 -114,47 -175,57 -49,9 -121,23 -159,31 -38,8 -71,13 -74,11 -4,-5 16,-11 68,-22 28,-5 31,-8 16,-14 -14,-4 10,-13 74,-28 81,-19 109,-32 198,-90 209,-135 248,-163 302,-212 l 55,-49 -55,21 c -119,45 -188,59 -325,68 -160,10 -196,16 -355,60 -124,34 -178,59 -328,148 -119,71 -325,168 -383,181 -188,41 -347,61 -494,60 -108,-1 -124,-3 -95,-11 l 35,-11 -30,-7 c -29,-6 -75,-27 -75,-34 0,-2 26,6 58,17 73,25 172,19 297,-17 164,-48 238,-81 380,-173 77,-50 160,-100 184,-112 24,-13 82,-50 130,-84 112,-81 156,-109 219,-141 29,-14 52,-29 52,-32 0,-4 -17,-3 -37,1 -20,3 -133,6 -252,6 -237,-1 -394,14 -546,53 -117,31 -189,41 -180,27 3,-6 14,-11 23,-11 9,0 24,-5 32,-11 22,-15 -88,0 -121,17 -49,25 -120,38 -129,24 -14,-22 -118,17 -212,80 -86,58 -236,135 -244,127 -5,-5 107,-90 173,-131 24,-14 43,-28 43,-30 0,-3 -237,49 -274,60 -14,5 -16,3 -10,-7 6,-12 5,-12 -8,-1 -15,12 -11,22 44,100 34,48 105,143 159,212 53,69 125,172 160,230 64,108 207,300 490,660 88,113 186,241 218,285 32,44 111,148 176,230 117,149 184,245 263,380 45,76 111,170 242,346 47,63 93,126 102,140 9,14 35,48 58,74 24,28 39,54 35,62 -6,18 19,62 97,165 34,46 53,78 46,80 -7,3 9,31 40,69 69,86 236,321 273,386 27,46 276,327 298,335 19,7 274,307 331,388 32,47 77,103 100,125 24,22 85,94 138,160 52,66 170,197 261,290 92,94 226,234 299,312 155,164 406,399 612,573 180,152 309,270 515,471 88,86 194,181 236,212 42,30 99,85 127,120 39,50 71,77 139,117 70,42 118,83 238,205 83,83 177,171 210,194 149,103 192,136 228,167 20,19 42,34 47,34 6,0 16,11 22,25 9,21 9,29 -4,42 -16,16 -43,10 -33,-8 4,-5 -10,-19 -30,-30 -19,-12 -40,-30 -45,-40 -6,-10 -34,-33 -64,-51 -111,-69 -216,-156 -356,-298 -107,-108 -166,-159 -225,-195 -93,-57 -124,-83 -171,-147 -19,-26 -65,-68 -102,-94 -37,-27 -137,-116 -222,-198 -215,-209 -358,-339 -545,-497 -213,-181 -431,-385 -593,-556 -112,-117 -137,-139 -157,-136 -19,4 -31,-5 -67,-52 -24,-32 -79,-98 -123,-148 -44,-49 -102,-117 -130,-151 -120,-149 -358,-402 -759,-811 -473,-482 -526,-536 -855,-894 -284,-309 -376,-413 -503,-570 -246,-304 -470,-568 -499,-586 -30,-19 -110,-112 -318,-365 -52,-63 -122,-146 -156,-185 -35,-38 -102,-120 -151,-181 -49,-61 -145,-179 -213,-263 -67,-85 -147,-190 -176,-235 -56,-87 -144,-196 -158,-196 -4,0 -22,30 -39,68 -17,37 -38,78 -48,92 -23,33 -47,169 -54,307 -6,105 -50,380 -81,503 -19,76 -33,204 -45,412 -5,97 -12,203 -16,235 l -5,58 28,-50 c 15,-27 42,-59 60,-70 17,-11 36,-30 42,-42 6,-13 15,-23 21,-23 18,0 10,71 -25,224 -60,262 -88,449 -80,546 12,162 46,366 83,499 35,127 37,132 44,95 4,-21 19,-95 32,-164 13,-69 27,-150 31,-180 4,-30 16,-94 27,-143 18,-80 19,-100 9,-244 -24,-348 -4,-710 55,-1008 19,-95 80,-285 96,-300 8,-7 9,-4 3,10 -29,77 -53,311 -61,615 -7,283 -8,273 52,715 26,191 42,261 30,130 -31,-339 -32,-648 -1,-1075 24,-338 63,-610 87,-610 5,0 7,4 4,8 -10,16 -53,636 -66,957 -16,365 5,697 65,1018 14,76 36,169 49,205 49,138 68,182 76,177 4,-3 18,7 30,22 16,22 20,24 16,8 -3,-11 -12,-60 -21,-110 -20,-108 -143,-684 -151,-705 -3,-10 -2,-12 4,-5 36,37 157,509 205,795 17,107 33,182 35,165 1,-16 5,-41 8,-53 l 5,-24 27,29 27,28 3,-43 c 4,-58 24,-50 36,14 11,64 36,157 41,152 6,-5 -8,-90 -44,-268 -17,-85 -43,-234 -57,-330 -25,-174 -49,-558 -39,-635 2,-22 9,-79 16,-127 8,-65 8,-134 0,-270 -17,-264 -30,-448 -37,-488 -4,-23 -2,-32 4,-25 15,15 50,238 67,430 22,249 23,255 38,310 8,28 20,115 27,195 6,80 18,188 25,240 20,137 72,683 80,831 9,185 83,496 149,629 18,36 49,108 70,160 34,90 76,168 76,144 0,-7 -16,-74 -35,-150 -20,-76 -34,-145 -32,-153 2,-9 9,9 17,39 14,59 80,224 86,217 2,-2 -5,-48 -16,-102 -11,-53 -20,-131 -20,-172 0,-84 17,-166 34,-160 6,2 16,32 22,68 8,47 13,59 18,44 22,-58 40,-95 48,-95 4,0 8,1 8,3 1,1 5,58 10,127 9,125 20,174 101,435 72,233 102,315 147,400 42,79 53,93 97,117 53,29 155,71 161,65 2,-1 -8,-27 -21,-56 -24,-51 -32,-91 -18,-91 3,0 16,8 27,18 11,9 1,-7 -21,-36 -37,-47 -47,-82 -23,-82 5,0 52,51 107,113 104,119 405,427 382,390 -8,-12 -35,-51 -62,-87 -51,-70 -78,-145 -42,-116 14,11 10,-2 -13,-42 -58,-105 -7,-61 113,97 104,136 246,303 315,370 l 61,60 -21,-50 c -37,-86 -70,-233 -70,-308 0,-39 2,-68 5,-66 2,3 23,74 45,158 44,170 79,260 140,362 34,58 57,81 136,139 52,39 136,101 188,139 52,39 109,85 127,104 19,19 88,75 154,124 164,122 331,260 435,359 60,56 165,134 343,253 141,94 258,171 260,171 2,0 -23,-51 -55,-114 -32,-63 -80,-176 -107,-253 -27,-76 -63,-176 -79,-222 -17,-46 -28,-90 -25,-97 6,-15 32,-18 48,-6 31,23 104,138 185,292 50,96 95,179 100,184 5,5 0,-19 -11,-54 -20,-64 -40,-172 -33,-179 8,-8 63,128 103,255 36,114 49,142 105,220 87,122 164,207 346,381 121,116 188,171 306,250 218,146 427,270 604,356 85,41 184,92 220,112 l 65,37 -82,-79 c -45,-43 -99,-103 -121,-133 -21,-30 -46,-61 -55,-69 -10,-7 -17,-19 -17,-25 0,-7 -11,-23 -25,-36 -43,-41 -28,-54 18,-16 53,46 196,146 206,146 4,0 16,10 27,22 36,41 298,229 482,346 101,64 275,177 385,251 243,161 309,195 587,301 215,83 774,280 792,280 5,0 6,-5 2,-12 -5,-8 -2,-9 12,-4 48,20 78,25 209,36 77,6 185,20 240,30 120,22 211,19 320,-10 z m -4860,-2660 c -9,-16 -18,-30 -21,-30 -2,0 2,14 11,30 9,17 18,30 21,30 2,0 -2,-13 -11,-30 z m -40,-77 c -19,-46 -41,-71 -26,-30 14,37 30,67 36,67 3,0 -2,-17 -10,-37 z M 7980,11647 c 0,-1 -26,-27 -57,-57 l -58,-55 55,58 c 50,53 60,62 60,54 z M 6567,10378 c -25,-51 -48,-103 -52,-116 -4,-13 -9,-21 -12,-18 -6,5 12,63 65,216 l 37,105 3,-47 c 2,-38 -5,-63 -41,-140 z m 2698,-20 c -63,-76 -208,-229 -213,-224 -2,3 48,62 113,131 113,121 156,160 100,93 z m -2634,-184 c -7,-30 -17,-56 -22,-59 -5,-3 -7,0 -4,7 2,7 9,40 16,73 6,33 14,54 17,46 2,-7 -1,-38 -7,-67 z m 2239,-231 c -12,-16 -46,-66 -77,-113 -103,-157 -305,-431 -448,-610 -51,-63 -106,-142 -123,-175 -17,-33 -99,-148 -183,-255 -84,-107 -187,-239 -228,-292 -42,-53 -130,-161 -197,-240 -66,-79 -196,-249 -289,-378 -93,-129 -196,-273 -230,-320 -34,-47 -128,-179 -210,-295 -82,-115 -163,-226 -180,-245 -71,-80 -116,-154 -199,-327 -67,-138 -239,-381 -591,-833 -292,-375 -407,-527 -509,-673 l -66,-95 -97,35 c -54,20 -103,40 -110,45 -6,5 -41,22 -77,37 l -66,28 102,124 c 234,285 271,332 391,499 127,177 159,217 391,486 183,212 458,558 556,699 46,66 139,188 205,270 165,204 270,343 342,450 33,50 165,216 293,370 230,276 320,390 433,548 31,44 105,128 163,185 59,57 113,121 123,142 22,49 366,425 665,728 127,127 232,232 234,232 2,0 -6,-12 -18,-27 z M 6007,9328 c -2,-13 -4,-5 -4,17 -1,22 1,32 4,23 2,-10 2,-28 0,-40 z m 2452,-50 c -53,-65 -65,-78 -53,-58 19,33 88,119 92,115 3,-2 -15,-28 -39,-57 z M 6137,9048 c -3,-7 -5,-2 -5,12 0,14 2,19 5,13 2,-7 2,-19 0,-25 z m 1773,-113 c -24,-25 -46,-45 -49,-45 -3,0 15,20 39,45 24,25 46,45 49,45 3,0 -15,-20 -39,-45 z m 1490,-2556 25,-7 -25,-1 c -14,0 -38,6 -55,14 l -30,14 30,-6 c 17,-3 41,-10 55,-14 z m -2801,-70 c 64,-26 109,-48 99,-49 -9,0 -18,-5 -20,-11 -4,-13 -179,69 -218,101 l -25,21 24,-6 c 13,-4 76,-29 140,-56 z m 246,-100 40,-18 h -31 c -31,-1 -164,35 -164,44 0,11 117,-9 155,-26 z m -67,-65 c 41,-8 92,-14 115,-14 39,0 47,-5 133,-92 50,-51 113,-127 141,-168 28,-41 87,-122 132,-180 45,-58 122,-158 172,-222 94,-122 191,-227 294,-318 58,-51 58,-52 16,-27 -24,13 -73,51 -110,84 -36,33 -91,78 -121,100 -30,23 -208,193 -395,378 -187,186 -386,374 -442,418 -57,44 -103,81 -103,82 0,2 21,-4 48,-12 26,-8 80,-21 120,-29 z m 1582,-594 c 45,-24 28,-24 -25,0 -22,10 -33,19 -25,19 8,0 31,-8 50,-19 z M 5114,5095 c 50,-19 97,-35 104,-35 7,0 31,-9 53,-20 46,-24 46,-20 -29,-129 -25,-36 -89,-129 -141,-206 -53,-77 -133,-192 -178,-255 -45,-63 -99,-144 -121,-180 -33,-54 -45,-67 -78,-76 -21,-6 -67,-23 -101,-38 -34,-14 -106,-32 -160,-41 -104,-15 -134,-24 -250,-74 -40,-17 -74,-31 -77,-31 -17,0 1,29 61,103 36,45 75,102 86,127 11,25 38,70 61,100 74,100 340,487 406,591 36,56 88,127 117,157 l 51,55 52,-7 c 29,-4 94,-23 144,-41 z"
           id="path877" />
        <path
           inkscape:connector-curvature="0"
           d="m 13945,14475 c -134,-43 -422,-187 -516,-257 -88,-66 -244,-165 -409,-260 -117,-68 -341,-245 -400,-316 -33,-40 -32,-56 3,-25 12,11 37,28 55,37 18,9 78,55 135,103 116,97 115,96 337,228 91,53 217,135 281,181 135,96 383,221 557,278 60,20 118,43 128,51 36,27 -63,16 -171,-20 z"
           id="path879" />
        <path
           inkscape:connector-curvature="0"
           d="m 8966,11648 c -148,-228 -286,-526 -391,-844 -46,-138 -120,-422 -113,-430 3,-2 33,80 68,184 141,420 352,922 470,1120 50,82 25,61 -34,-30 z"
           id="path881" />
        <path
           inkscape:connector-curvature="0"
           d="m 8398,11513 c -314,-437 -596,-1200 -680,-1843 -15,-117 -16,-516 -2,-530 8,-8 13,43 17,162 15,410 81,762 227,1198 119,359 329,827 455,1014 25,37 44,70 42,72 -2,2 -29,-31 -59,-73 z"
           id="path883" />
        <path
           inkscape:connector-curvature="0"
           d="m 7433,10203 c -134,-338 -233,-745 -221,-906 3,-36 6,-27 22,58 28,149 75,335 170,669 47,165 84,301 82,303 -2,2 -26,-54 -53,-124 z"
           id="path885" />
        <path
           inkscape:connector-curvature="0"
           d="m 7196,10019 c -140,-419 -269,-1144 -265,-1499 1,-127 9,-90 49,225 17,138 42,320 56,405 28,170 136,732 158,820 8,30 12,57 10,59 -2,2 -6,-2 -8,-10 z"
           id="path887" />
        <path
           inkscape:connector-curvature="0"
           d="m 10405,10011 c 11,-5 74,-21 140,-36 169,-39 538,-142 610,-171 76,-30 45,-3 -42,36 -155,71 -321,118 -548,155 -156,26 -195,30 -160,16 z"
           id="path889" />
        <path
           inkscape:connector-curvature="0"
           d="m 9720,9349 c 30,-4 125,-15 210,-24 336,-36 778,-106 909,-145 35,-10 60,-15 55,-11 -45,40 -434,131 -689,160 -141,17 -362,31 -455,30 -84,-2 -84,-2 -30,-10 z"
           id="path891" />
        <path
           inkscape:connector-curvature="0"
           d="m 9010,8817 c 6,-7 813,-54 1093,-64 157,-5 177,-4 177,10 0,21 -53,24 -595,37 -247,6 -502,13 -565,16 -63,4 -113,4 -110,1 z"
           id="path893" />
        <path
           inkscape:connector-curvature="0"
           d="m 8753,8443 c -24,-2 -43,-8 -43,-12 0,-7 209,-43 330,-56 161,-18 394,-54 735,-112 569,-97 707,-113 957,-113 111,0 118,1 118,20 0,17 -3,18 -18,9 -27,-17 -168,16 -175,40 -6,24 -56,35 -300,67 -109,14 -251,39 -315,55 -64,17 -207,44 -317,60 -110,16 -211,31 -225,34 -32,6 -692,13 -747,8 z"
           id="path895" />
      </g>
      <path
         sodipodi:nodetypes="sscccssccccssccccccccssccccssscssccccccccsccscssccsccscscscsccsccscccscscccccccccccccccccssscccsccs"
         inkscape:connector-curvature="0"
         id="rect1040"
         d="m 47.42922,316.90941 c -0.206555,-0.004 -0.4225,0.002 -0.649057,0.0191 -3.766228,0.27834 -4.361247,0.38529 -6.748942,1.2144 -0.623141,0.21638 -1.318744,0.41768 -1.545643,0.447 -0.226896,0.0293 -0.457017,0.081 -0.511595,0.11472 -0.05458,0.0337 -0.74721,0.20659 -1.538926,0.38447 -2.629945,0.59089 -3.264082,0.84449 -6.475055,2.58796 -0.761619,0.41354 -1.866106,0.98459 -2.454632,1.26917 -4.400912,2.12806 -6.746241,3.38612 -7.949901,4.26434 -0.8854,0.64601 -1.468639,0.94982 -1.590084,0.82837 -0.03488,-0.0349 0.0085,-0.14975 0.09612,-0.25528 0.13208,-0.15914 0.122202,-0.19172 -0.05581,-0.19172 -0.183996,0 -1.532534,1.26518 -2.419491,2.26963 -0.541546,0.61329 -0.960259,0.95598 -0.879016,0.71986 0.111271,-0.3234 -0.253669,-0.27964 -0.430981,0.0517 -0.132788,0.24812 -0.155861,0.25286 -0.266134,0.0558 -0.09916,-0.17719 -0.155291,-0.187 -0.312126,-0.0568 -0.320271,0.2658 -1.287569,1.57307 -2.018481,2.72748 l -0.692464,1.09296 0.08061,-1.00718 c 0.04443,-0.5539 0.113771,-1.30409 0.153996,-1.6676 0.04452,-0.40231 0.02435,-0.66094 -0.05168,-0.66094 -0.188528,0 -0.617075,1.09142 -0.790649,2.01383 -0.106893,0.56806 -0.258712,0.93413 -0.4966106,1.19631 -0.5077455,0.55957 -1.0619158,1.43572 -1.313615,2.07688 -0.2826525,0.72001 -0.6951675,2.57112 -0.701249,3.14709 -0.00919,0.87069 -0.1703485,0.80457 -1.0671183,-0.43976 -0.4742098,-0.65801 -0.9102709,-1.19683 -0.9684165,-1.19683 -0.2271757,0 -0.078308,0.39292 0.5772258,1.52652 0.3928274,0.67931 0.8155385,1.63462 0.9963216,2.25051 0.3573566,1.21745 0.9858272,3.79982 0.9353434,3.84369 -0.018434,0.016 -0.4868585,0.38696 -1.0407634,0.82476 -1.0847337,0.85737 -2.5645896,2.16434 -4.8203775,4.2571 -1.2954766,1.20186 -2.11087678,2.1073 -3.12022289,3.46387 l -0.36690271,0.493 1.47071128,-0.0791 c 0.80880922,-0.0433 1.65829602,-0.15807 1.88774002,-0.25528 0.2389163,-0.10122 1.9563244,-1.70843 4.019393,-3.76101 l 3.602364,-3.58376 1.0247438,1.33222 c 0.563553,0.7328 1.576867,2.09675 2.252059,3.03082 0.998752,1.38169 1.369843,1.79234 1.991093,2.20297 0.419985,0.2776 0.957946,0.65992 1.195275,0.84956 0.23733,0.18963 0.470375,0.34546 0.517798,0.34623 0.04742,7.9e-4 -0.714017,-1.17452 -1.691886,-2.61121 -0.977869,-1.43669 -1.936979,-2.83314 -2.131653,-3.10317 -0.194674,-0.27003 -0.353983,-0.53622 -0.353983,-0.59169 0,-0.27256 1.89578,0.92009 2.76934,1.74201 0.906153,0.85258 2.198889,1.62916 2.528527,1.51928 0.07338,-0.0244 -0.205136,-0.28974 -0.619083,-0.58962 -0.413947,-0.29988 -0.94088,-0.80858 -1.170988,-1.13017 -0.230109,-0.32158 -0.589789,-0.74621 -0.798918,-0.94361 -0.2973,-0.28062 -0.325017,-0.34335 -0.128158,-0.28784 0.138477,0.0391 0.861662,0.21413 1.607138,0.38861 0.745476,0.17448 1.528187,0.40649 1.739428,0.51573 0.671531,0.34726 0.674792,0.12734 0.0057,-0.38292 -0.686541,-0.52356 -0.827274,-0.76563 -0.362252,-0.62218 1.073503,0.33115 1.638239,0.81464 2.307869,1.97558 0.658985,1.14249 0.866395,1.17215 0.371554,0.0532 -0.173874,-0.39316 -0.285636,-0.71468 -0.248564,-0.71468 0.03707,0 -0.09738,-0.24059 -0.29869,-0.53485 -0.438199,-0.64055 -0.815956,-1.35859 -0.749825,-1.42472 0.02624,-0.0263 0.487651,0.18286 1.025261,0.46457 0.53761,0.28171 1.005683,0.48414 1.040246,0.44958 0.05566,-0.0557 -0.58413,-0.60915 -2.248441,-1.94458 -0.609326,-0.48892 -0.49199,-0.50058 0.90227,-0.0915 1.275038,0.37413 1.426593,0.38328 1.013892,0.0605 -0.173096,-0.13539 -0.263165,-0.24754 -0.199988,-0.24908 0.169965,-0.004 1.261139,0.71638 1.522905,1.00563 0.124603,0.13768 0.332405,0.25011 0.46147,0.25011 0.187445,0 0.218642,-0.0633 0.155546,-0.31471 -0.04344,-0.1731 -0.04693,-0.31471 -0.0078,-0.31471 0.03918,0 0.580858,0.44904 1.203544,0.99736 0.848768,0.74739 1.1967,0.97971 1.390095,0.92914 0.297952,-0.0779 0.33896,-0.26634 0.07958,-0.36587 -0.09809,-0.0376 -0.334801,-0.30526 -0.526065,-0.59428 -0.191262,-0.28902 -0.629239,-0.82294 -0.973067,-1.18649 -0.343829,-0.36355 -0.546176,-0.66021 -0.449585,-0.65939 0.507008,0.004 1.55098,0.40232 2.205032,0.84077 0.75819,0.50827 1.522643,0.87205 1.622642,0.77205 0.03088,-0.0309 -0.534194,-0.67435 -1.255739,-1.42989 -0.721542,-0.75554 -1.294902,-1.39072 -1.273823,-1.4118 0.02108,-0.0211 0.202033,0.0242 0.402042,0.10077 0.200007,0.0765 0.817071,0.14005 1.370976,0.14108 0.553905,0.001 1.257935,0.0477 1.564246,0.10387 0.30631,0.0561 0.656822,0.0649 0.77928,0.0196 0.192682,-0.0713 0.150823,-0.1651 -0.311608,-0.69815 l -0.534334,-0.61598 1.328084,-1.33532 c 0.730604,-0.73448 1.623306,-1.71381 1.98334,-2.17609 0.572389,-0.73495 0.785487,-0.90282 1.699123,-1.33481 2.009687,-0.95021 2.85818,-1.75498 4.954219,-4.70152 1.550268,-2.17931 2.64827,-3.61386 3.263882,-4.26382 0.295108,-0.31157 0.772377,-0.927 1.060402,-1.36787 0.619183,-0.94778 3.780343,-4.31461 4.859134,-5.1754 0.41543,-0.33148 1.024562,-0.75323 1.353923,-0.93689 1.140423,-0.63595 1.963666,-1.33679 2.117183,-1.80196 0.251243,-0.76127 0.08659,-1.44066 -0.574641,-2.3673 -0.876173,-1.22784 -1.857796,-1.77469 -3.303675,-1.80247 z"
         style="opacity:0.969;fill:#000000;fill-opacity:0.22983871;fill-rule:nonzero;stroke:none;stroke-width:0.68791664;stroke-linecap:square;stroke-linejoin:miter;stroke-miterlimit:4;stroke-dasharray:none;stroke-dashoffset:0;stroke-opacity:1;paint-order:normal" />
    </g>
    <g
       id="g1093"
       transform="matrix(0.86804395,0,0,0.86804395,45.568045,27.061324)">
      <path
         sodipodi:nodetypes="scscssccccssccccccscssssccccsscscccccscccccsccccscscsssscsssccs"
         inkscape:connector-curvature="0"
         id="path1062"
         d="m -13.743967,268.4071 c -0.463158,-0.0143 -0.948629,0.0642 -1.461926,0.23409 -0.419573,0.13889 -1.413949,0.42588 -2.209686,0.63717 -0.830278,0.22046 -2.112767,0.75734 -3.010151,1.26039 -0.860047,0.48212 -1.630384,0.87695 -1.711524,0.87695 -0.520745,0 -5.372938,2.57932 -6.243029,3.31866 -1.345066,1.14294 -3.107208,2.49425 -4.857585,3.72536 -0.78334,0.55095 -1.664267,1.21877 -1.95802,1.48414 -0.293752,0.26537 -0.980717,0.81706 -1.526522,1.22628 -0.545802,0.40923 -1.331347,1.1057 -1.745629,1.54771 -0.754857,0.80537 -1.089856,0.98728 -1.089856,0.59222 0,-0.37857 -1.013024,0.74845 -1.522388,1.69343 -0.273252,0.50694 -0.549918,0.96183 -0.61495,1.01079 -0.06503,0.049 -0.209342,0.2491 -0.320393,0.44494 l -0.202055,0.35605 -0.01085,-0.35605 c -0.0098,-0.32205 -0.02772,-0.3273 -0.188103,-0.0522 -0.09753,0.16729 -0.281985,0.26422 -0.41031,0.21498 -0.25074,-0.0962 -1.076492,1.33457 -1.631942,2.82877 -0.368324,0.99081 -0.601088,0.83991 -0.633036,-0.41032 -0.01126,-0.44062 -0.07599,-1.00112 -0.144178,-1.24591 -0.115801,-0.41574 -0.132918,-0.42201 -0.259932,-0.0915 -0.07479,0.19463 -0.180816,0.87593 -0.235645,1.5136 -0.06651,0.77352 -0.283552,1.53964 -0.652156,2.3027 -0.516433,1.06909 -0.553106,1.27493 -0.557589,3.15382 l -0.0047,2.01021 -1.01906,-1.00718 c -0.560464,-0.55397 -1.070807,-0.95594 -1.13378,-0.89296 -0.06297,0.063 0.330136,0.64989 0.873331,1.30431 0.678658,0.81762 1.242382,1.78115 1.802474,3.07992 0.448296,1.03952 0.814765,1.95738 0.813904,2.03915 -8.47e-4,0.0818 -0.472628,0.68219 -1.047998,1.3348 -2.128475,2.41421 -5.229791,6.7299 -5.39502,7.50704 -0.03123,0.14687 -0.09548,0.33261 -0.193401,0.40605 -0.106844,0.0801 0.818169,-1.00653 0.818169,-1.00653 0.969876,-1.23691 4.675736,-4.73737 6.96495,-6.57842 0.538546,-0.43311 1.050053,-0.84688 1.136365,-0.91984 0.294133,-0.24861 -0.778677,-4.09088 -1.61799,-5.79499 -0.442131,-0.89769 -0.76966,-1.73418 -0.72812,-1.8588 0.04154,-0.12462 0.468809,0.32484 0.949812,0.9989 l 0.874366,1.22577 0.144694,-0.70229 c 0.619834,-3.00777 0.994684,-4.0015 1.850533,-4.90822 0.268728,-0.2847 0.571589,-0.97385 0.77463,-1.7632 0.183332,-0.71274 0.463022,-1.4235 0.621667,-1.57975 0.265696,-0.26169 0.279328,-0.15765 0.175183,1.31827 l -0.113171,1.60197 0.401525,-0.62322 c 0.220576,-0.34271 0.796381,-1.16596 1.280026,-1.82987 0.687445,-0.94366 0.95285,-1.18388 1.214913,-1.1007 0.198373,0.063 0.334863,0.0209 0.334863,-0.10284 0,-0.11499 0.116362,-0.16457 0.258382,-0.11007 0.163674,0.0628 0.809188,-0.45159 1.762683,-1.40508 1.426906,-1.42691 2.010577,-1.83196 1.78232,-1.23714 -0.159671,0.4161 0.03282,0.33246 1.475879,-0.6413 0.740356,-0.49959 3.40029,-1.94947 5.911267,-3.22151 2.51098,-1.27204 5.140253,-2.62753 5.842537,-3.01274 1.607164,-0.88154 2.71894,-1.26773 5.844087,-2.0283 1.370844,-0.33361 1.317665,-0.46007 1.189757,-0.46007 -0.127912,0 0.926677,-0.66715 1.631776,-1.36669 1.151631,-1.14254 1.282091,-1.34191 1.282094,-1.96215 0,-0.56434 -0.138621,-0.8411 -0.75706,-1.51464 -0.873281,-0.95107 -1.785536,-1.43252 -2.80448,-1.46399 z"
         style="opacity:0.969;fill:#000000;fill-opacity:0.17741939;fill-rule:nonzero;stroke:none;stroke-width:0.4628827;stroke-linecap:square;stroke-linejoin:miter;stroke-miterlimit:4;stroke-dasharray:none;stroke-dashoffset:0;stroke-opacity:1;paint-order:normal" />
      <path
         sodipodi:nodetypes="cccccccccccccccccccsccccccccccccccccccccccccccccccccccccccccccccccccccccccccccccccccccccccccccccccccccccccccccccccccccccccccccccccccccccccccccccccccccccccccccccccccccccccccccccccccccccccccccccccccccccccccccccccccccccccccccccccccccccccccccccccccccccccccccccccccccccccccccccccccccccccccccccccccccccccccccccccccccccccccccccccccccccccccccccccccccccccccccccccccccccccccccccccccccccccccccccccccc"
         style="fill:#000000;fill-opacity:0.62903227;stroke:none;stroke-width:0.00357394"
         d="m -13.790614,268.48831 c -0.189843,8.8e-4 -0.403746,0.009 -0.653708,0.0243 v 0.001 c -0.453497,0.0298 -0.985482,0.1669 -1.045931,0.27078 -0.03199,0.0609 -0.149749,0.0931 -1.670181,0.48318 -0.695979,0.17703 -1.266682,0.34673 -1.534274,0.45113 -0.602956,0.24117 -1.302258,0.59723 -1.655197,0.84491 -0.167553,0.11845 -0.559967,0.34104 -0.873848,0.4992 -0.313882,0.15817 -0.691974,0.35971 -0.838191,0.44235 -0.146216,0.0826 -0.246102,0.12533 -0.221175,0.0966 0.106801,-0.1326 -0.05018,-0.0964 -0.378273,0.0904 -0.502835,0.2874 -0.81312,0.43494 -1.095023,0.52865 -0.135593,0.0469 -0.4031,0.15502 -0.588594,0.24133 -0.185484,0.0899 -0.531421,0.24084 -0.766879,0.34158 -0.495897,0.20871 -1.362567,0.65459 -1.92598,0.9958 -0.577681,0.3484 -1.194567,0.8293 -1.650545,1.28468 -0.22086,0.22231 -0.420405,0.40509 -0.441834,0.40514 -0.139285,3.6e-4 -0.709416,0.42742 -1.557528,1.16634 -0.338534,0.29414 -0.66653,0.57032 -0.730706,0.6134 -0.0606,0.0431 -0.5136,0.34094 -1.005622,0.66766 -0.492023,0.32672 -1.080261,0.73256 -1.30483,0.90123 -0.43846,0.32301 -1.365052,1.0943 -1.721342,1.42782 -0.117572,0.11118 -0.24917,0.21873 -0.291972,0.2403 -0.17119,0.0934 -1.158577,0.82894 -1.53634,1.14463 -0.491803,0.41256 -1.065298,0.9938 -1.435571,1.44539 -0.274139,0.33689 -0.281521,0.34044 -0.641822,0.5023 -0.199771,0.0899 -0.377957,0.16541 -0.392224,0.1726 -0.05352,0.0216 0.07742,-0.32927 0.166398,-0.44752 0.206446,-0.27234 -0.07152,-0.14286 -0.384989,0.17983 -0.612663,0.6346 -1.224282,1.62299 -1.536342,2.49287 -0.05321,0.14319 -0.124657,0.30433 -0.163814,0.3545 -0.08544,0.10751 -0.08538,0.10771 -0.01809,-0.1142 0.02832,-0.0966 0.05331,-0.20035 0.05323,-0.23254 -2.75e-4,-0.10729 -0.263697,0.23322 -0.352433,0.44803 -0.156153,0.38666 -0.436941,0.88453 -0.469222,0.83096 -0.02151,-0.0321 -0.03228,-0.0141 -0.03566,0.061 -0.0034,0.0644 -0.01037,0.0822 -0.02119,0.0429 -0.01081,-0.0357 0.0422,-0.21115 0.113171,-0.39016 0.07097,-0.179 0.130989,-0.37585 0.137976,-0.43667 0.007,-0.0608 0.02462,-0.15409 0.03876,-0.21135 0.01415,-0.0537 0.01064,-0.0962 -0.0072,-0.0961 -0.06072,1.6e-4 -0.18194,0.15399 -0.363285,0.4656 -0.1387,0.22925 -0.181211,0.28293 -0.181385,0.21498 -4.21e-4,-0.16452 -0.04709,-0.25386 -0.140043,-0.28939 -0.07865,-0.032 -0.103421,-0.0245 -0.171049,0.0651 -0.04629,0.0538 -0.149798,0.23633 -0.23151,0.40463 -0.07814,0.16829 -0.191586,0.37235 -0.244947,0.45475 -0.05693,0.0824 -0.241902,0.46912 -0.40876,0.85938 -0.17043,0.39027 -0.369286,0.8451 -0.440283,1.01337 -0.07457,0.16829 -0.216513,0.53317 -0.319361,0.81598 -0.102856,0.27922 -0.191285,0.50482 -0.198437,0.50126 -0.0036,-0.007 -0.03294,-0.1891 -0.06563,-0.4036 -0.145432,-1.00462 -0.207647,-1.58047 -0.223242,-2.09186 -0.01934,-0.57934 -0.04095,-0.75098 -0.09095,-0.75086 -0.05357,1.4e-4 -0.245093,0.56235 -0.308508,0.90227 -0.04223,0.24689 -0.05946,0.54709 -0.05788,1.16582 l -10e-4,0.83716 -0.125057,0.13229 c -0.267133,0.28323 -0.767986,1.31479 -0.905888,1.85519 -0.296976,1.18099 -0.341335,3.2696 -0.0956,4.39198 0.01446,0.0679 -0.225534,-0.16046 -1.306898,-1.2485 -0.372389,-0.37459 -0.912915,-0.83784 -0.977201,-0.83768 -0.03929,1e-4 0.0041,0.28965 0.05064,0.34675 0.286593,0.34261 0.534166,0.62459 0.827857,0.94929 0.419047,0.46388 0.612581,0.71024 0.817004,1.04232 0.326355,0.52848 0.724463,1.35722 1.044381,2.16111 0.183324,0.46089 0.467372,1.10011 0.628902,1.418 l 0.294039,0.57516 -0.08888,0.0858 c -0.106886,0.10042 -1.417315,1.59897 -1.794722,2.05414 -0.284834,0.34407 -0.686903,0.87781 -0.975134,1.28984 -0.09251,0.13614 -0.263726,0.34781 -0.374138,0.46612 -0.224386,0.2402 -0.583648,0.7059 -1.131714,1.46193 -0.202856,0.27949 -0.540878,0.74171 -0.750858,1.02836 -0.647754,0.8779 -1.092305,1.60871 -1.539958,2.52543 -0.07723,0.15931 -0.115025,0.2278 -0.179834,0.35656 0.101064,-0.14609 0.215875,-0.30865 0.353467,-0.49195 0.35557,-0.4737 1.032295,-1.22337 1.78542,-1.99885 0.235889,-0.34785 0.481116,-0.71108 0.576193,-0.86196 0.128058,-0.20061 0.312699,-0.45521 0.415995,-0.56276 l 0.181901,-0.1974 0.185518,0.0248 c 0.04888,0.007 0.129484,0.0262 0.216525,0.0507 0.088,-0.0818 0.170665,-0.15625 0.255798,-0.23358 -0.05305,-0.0264 -0.08798,-0.047 -0.165365,-0.0791 l -0.236161,-0.0992 0.363285,-0.44442 c 0.833101,-1.02143 0.964606,-1.19016 1.391647,-1.78853 0.451948,-0.63419 0.566058,-0.7773 1.392163,-1.74149 0.572957,-0.66814 1.374846,-1.68036 1.80299,-2.26498 -0.05218,-0.21371 -0.100806,-0.42049 -0.156062,-0.63562 -0.04573,0.0568 -0.08793,0.10941 -0.129192,0.16071 -0.238506,0.30462 -0.523159,0.68113 -0.626318,0.84233 -0.199202,0.31166 -0.512756,0.70215 -0.562756,0.70228 -0.01429,4e-5 -0.07846,-0.10712 -0.139526,-0.24288 -0.06105,-0.13217 -0.136757,-0.27868 -0.1726,-0.32866 -0.08244,-0.11781 -0.169072,-0.6036 -0.195337,-1.09709 -0.02239,-0.37547 -0.182198,-1.35872 -0.294039,-1.79834 -0.06855,-0.27163 -0.119568,-0.7295 -0.164331,-1.47329 -0.01875,-0.34687 -0.04485,-0.72586 -0.05943,-0.84026 l -0.0186,-0.20723 0.100769,0.17829 c 0.05382,0.0964 0.150587,0.21094 0.214974,0.25011 0.06081,0.0392 0.12884,0.10701 0.150378,0.14986 0.02155,0.0464 0.0535,0.0822 0.07493,0.0822 0.06429,-1.7e-4 0.03493,-0.2541 -0.09147,-0.80099 -0.216686,-0.93647 -0.318104,-1.60534 -0.290422,-1.95233 0.04137,-0.57949 0.161048,-1.30942 0.291972,-1.78542 0.123836,-0.45453 0.130724,-0.47229 0.156063,-0.34003 0.01448,0.0751 0.06869,0.33987 0.115755,0.58653 0.04706,0.24665 0.0981,0.53611 0.112655,0.64337 0.01456,0.10726 0.05793,0.33594 0.09767,0.51108 0.06502,0.28596 0.0685,0.35771 0.03411,0.87281 -0.03447,0.52001 -0.03973,1.04775 -0.02067,1.56476 0.09995,0.13118 0.227819,0.30958 0.350366,0.47698 -0.01203,-0.616 0.01267,-0.83843 0.188102,-2.15801 0.09111,-0.68334 0.147594,-0.93371 0.105937,-0.46509 -0.08547,0.96319 -0.100649,1.86788 -0.04703,2.96055 0.02338,0.0327 0.04218,0.0564 0.06563,0.0894 l 0.10697,0.15037 c -0.01203,-0.21672 -0.02595,-0.44775 -0.03359,-0.62528 -0.06049,-1.30526 0.0119,-2.49306 0.223242,-3.64164 0.0493,-0.27194 0.127018,-0.60442 0.173117,-0.73329 0.173735,-0.494 0.241133,-0.65188 0.269751,-0.63407 0.01431,0.0107 0.06425,-0.0247 0.10697,-0.0786 0.05694,-0.0788 0.07098,-0.0861 0.05684,-0.0289 -0.01061,0.0394 -0.04221,0.21434 -0.0739,0.39325 -0.07044,0.38644 -0.504405,2.44767 -0.532784,2.52285 -0.01062,0.0358 -0.0069,0.0431 0.01447,0.0181 0.128232,-0.13266 0.555696,-1.822 0.724503,-2.8453 0.05973,-0.38283 0.116209,-0.65093 0.123507,-0.59015 0.0037,0.0572 0.01811,0.14625 0.02894,0.18914 l 0.01809,0.0858 0.09663,-0.10387 0.09612,-0.10025 0.01085,0.15348 c 0.01482,0.2074 0.0864,0.17888 0.128674,-0.0501 0.0387,-0.22899 0.126791,-0.56199 0.144694,-0.54415 0.02147,0.0178 -0.02757,0.32218 -0.154512,0.95912 -0.05994,0.30415 -0.151385,0.83734 -0.200505,1.1808 -0.08769,0.62253 -0.169745,1.99589 -0.133325,2.27118 0.0054,0.0581 0.025,0.20422 0.04289,0.33538 0.137749,-0.55747 0.303674,-1.07345 0.478007,-1.48466 0.07958,-0.65545 0.229836,-2.28752 0.254765,-2.77244 0.03045,-0.66172 0.291571,-1.77476 0.526066,-2.25103 0.06396,-0.12892 0.17404,-0.38641 0.248564,-0.57257 0.120603,-0.3222 0.270048,-0.60156 0.270268,-0.51573 6.4e-5,0.025 -0.05634,0.26442 -0.123507,0.5364 -0.07073,0.27199 -0.120387,0.51917 -0.113171,0.54777 0.0072,0.0322 0.03216,-0.0322 0.06046,-0.13953 0.04946,-0.21114 0.283915,-0.80219 0.305408,-0.77721 0.0072,0.007 -0.01754,0.17212 -0.05633,0.36535 -0.0388,0.18965 -0.07014,0.46832 -0.06976,0.61495 7.7e-4,0.30042 0.06182,0.59367 0.122473,0.57206 0.02141,-0.007 0.05693,-0.11459 0.07803,-0.2434 0.02814,-0.16817 0.04609,-0.21121 0.06408,-0.15761 0.0791,0.20723 0.143511,0.33959 0.172083,0.33951 0.01428,-3e-5 0.02896,-0.004 0.02894,-0.0109 0.0036,-0.004 0.01688,-0.20742 0.03411,-0.45424 0.031,-0.44713 0.07019,-0.62282 0.357084,-1.55701 0.255007,-0.83397 0.361481,-1.12754 0.521416,-1.43195 0.149276,-0.28293 0.188275,-0.33287 0.345198,-0.4191 0.189019,-0.10421 0.552641,-0.25549 0.574125,-0.23409 0.0072,0.004 -0.02824,0.0966 -0.07441,0.2005 -0.08525,0.18261 -0.113564,0.3257 -0.06356,0.32557 0.01071,-3e-5 0.05744,-0.0288 0.09663,-0.0646 0.0392,-0.0323 0.0033,0.0252 -0.07493,0.12919 -0.131712,0.16843 -0.166848,0.29374 -0.08113,0.29352 0.01786,-5e-5 0.184996,-0.1829 0.380856,-0.40514 0.370337,-0.42655 1.442444,-1.53089 1.36064,-1.39836 -0.02846,0.043 -0.12456,0.18261 -0.220658,0.31161 -0.181501,0.25082 -0.277133,0.51952 -0.148828,0.41547 0.0499,-0.0395 0.03578,0.007 -0.04599,0.15038 -0.206181,0.37606 -0.02456,0.21788 0.402559,-0.3483 0.370182,-0.48734 0.87608,-1.08576 1.121894,-1.32601 l 0.217041,-0.21498 -0.07441,0.1788 c -0.131355,0.30791 -0.2477,0.83403 -0.247013,1.10226 3.58e-4,0.13948 0.0074,0.24334 0.01809,0.23616 0.0071,-0.0107 0.08187,-0.26524 0.15968,-0.56586 0.155585,-0.60838 0.279688,-0.93016 0.49661,-1.29552 0.120898,-0.20774 0.202599,-0.29052 0.484209,-0.49868 0.185356,-0.13996 0.484879,-0.3623 0.670244,-0.49868 0.185357,-0.13996 0.388573,-0.30498 0.452685,-0.3731 0.06768,-0.0681 0.31354,-0.26909 0.548804,-0.44494 0.584595,-0.43783 1.179772,-0.93275 1.550293,-1.28777 0.213772,-0.20082 0.58804,-0.48074 1.222663,-0.90796 0.50271,-0.33748 0.919935,-0.61389 0.927078,-0.61391 0.0071,-2e-5 -0.08162,0.18212 -0.195337,0.40772 -0.11371,0.22561 -0.2841,0.63026 -0.379824,0.90589 -0.09573,0.27206 -0.223365,0.63011 -0.280086,0.79478 -0.06029,0.16467 -0.09915,0.32226 -0.08837,0.34727 0.02157,0.0536 0.114533,0.0643 0.171566,0.0212 0.110503,-0.0825 0.369968,-0.49494 0.657843,-1.04645 0.177692,-0.3438 0.337723,-0.64095 0.355534,-0.65887 0.01781,-0.0179 2.06e-4,0.0679 -0.03876,0.19327 -0.07084,0.22908 -0.141336,0.61581 -0.116272,0.64078 0.02864,0.0285 0.223659,-0.45854 0.365353,-0.91312 0.127526,-0.40804 0.173818,-0.5086 0.373103,-0.78807 0.309597,-0.43712 0.583563,-0.74184 1.231967,-1.3658 0.431079,-0.41598 0.670186,-0.61297 1.090889,-0.89659 0.777231,-0.52416 1.52252,-0.9698 2.153875,-1.27899 0.303194,-0.14741 0.656061,-0.33071 0.784447,-0.40256 l 0.232027,-0.13281 -0.291971,0.28319 c -0.160321,0.1542 -0.352687,0.36948 -0.430982,0.47697 -0.07473,0.10749 -0.163785,0.21832 -0.195853,0.24701 -0.03565,0.0251 -0.06052,0.0684 -0.06046,0.0899 6.3e-5,0.025 -0.039,0.0821 -0.08888,0.12868 -0.153194,0.14703 -0.09986,0.19364 0.06408,0.0574 0.188865,-0.165 0.698609,-0.52391 0.734322,-0.524 0.01429,-3e-5 0.05745,-0.0361 0.09664,-0.0791 0.128194,-0.14696 1.06217,-0.82166 1.718242,-1.24178 0.360127,-0.22982 0.980347,-0.63558 1.372525,-0.90124 0.866379,-0.57803 1.101527,-0.70046 2.09341,-1.0821 0.767096,-0.29881 2.761901,-1.00805 2.826187,-1.00821 0.01786,-5e-5 0.0214,0.0178 0.0072,0.0429 -0.01778,0.0287 -0.0071,0.0319 0.04289,0.0139 0.171243,-0.072 0.278452,-0.0902 0.746206,-0.13074 0.274945,-0.0222 0.660462,-0.0733 0.856796,-0.10955 0.428369,-0.0798 0.753533,-0.0696 1.143082,0.0331 v -5.2e-4 c 0.478901,0.12752 1.129374,0.35486 1.419037,0.50075 0.42912,0.21349 0.651116,0.53799 0.820621,1.18132 0.0649,0.23946 0.07593,0.36821 0.06253,0.71159 -0.01327,0.39702 -0.01982,0.43301 -0.144177,0.68368 -0.124367,0.2471 -0.156839,0.28281 -0.659392,0.68109 -0.645117,0.51309 -1.161518,1.00112 -1.674317,1.58182 -0.242766,0.27647 -0.416163,0.47928 -0.544153,0.63975 0.05605,-0.0153 0.156263,-0.0399 0.198438,-0.0522 0.240906,-0.07 0.485235,-0.12607 0.68213,-0.16433 0.01331,-0.015 0.03953,-0.0495 0.05013,-0.0605 0.110413,-0.11831 0.295857,-0.32941 0.409794,-0.46561 0.217197,-0.25806 0.676709,-0.69955 0.737423,-0.6997 0.01786,-5e-5 0.117279,-0.0788 0.217041,-0.17208 0.103333,-0.0933 0.246001,-0.2154 0.317293,-0.26923 0.07486,-0.0538 0.206568,-0.20065 0.291971,-0.32247 0.08897,-0.12182 0.267499,-0.30838 0.392225,-0.41599 0.245913,-0.20091 0.462816,-0.4873 0.430463,-0.56948 -0.0072,-0.025 0.0067,-0.10044 0.03152,-0.16846 0.07455,-0.17543 0.06276,-0.68298 -0.01654,-0.96532 -0.133316,-0.45744 -0.283826,-0.65388 -1.085721,-1.39216 -0.476126,-0.43868 -0.694677,-0.58853 -1.055749,-0.72709 -0.450445,-0.17319 -0.801965,-0.23982 -1.371491,-0.23719 z m -2.501656,4.29069 c -0.120499,0.0142 -0.30547,0.0566 -0.49816,0.12144 -0.478176,0.15501 -1.505128,0.67276 -1.840199,0.92398 -0.313679,0.23685 -0.869894,0.59252 -1.458309,0.93379 -0.417233,0.24427 -1.21569,0.87931 -1.425752,1.13378 -0.117491,0.14336 -0.113861,0.20057 0.01085,0.0894 0.04276,-0.0394 0.131651,-0.10046 0.195854,-0.13281 0.0642,-0.0324 0.278492,-0.19729 0.481623,-0.36948 0.413396,-0.34798 0.409832,-0.34444 1.20148,-0.81856 0.324511,-0.19039 0.77334,-0.48499 1.001487,-0.65009 0.481261,-0.34457 1.366054,-0.79398 1.98696,-0.99942 0.214101,-0.0721 0.42118,-0.15475 0.456819,-0.18345 0.06416,-0.0485 0.0078,-0.0627 -0.112654,-0.0486 z m -5.322673,3.35019 c -0.02677,0.006 -0.04223,0.0283 -0.02429,0.0605 0.01433,0.0179 -0.03513,0.0679 -0.106452,0.10748 -0.06775,0.0431 -0.142947,0.10734 -0.160714,0.14315 -0.02134,0.0358 -0.120917,0.11828 -0.227893,0.18293 -0.395796,0.24779 -0.769959,0.56005 -1.268656,1.06919 -0.381154,0.38723 -0.591635,0.57041 -0.802018,0.6997 -0.331621,0.20471 -0.441995,0.29778 -0.609267,0.5271 -0.06762,0.0932 -0.231381,0.24361 -0.363283,0.33693 -0.131895,0.0969 -0.488348,0.4165 -0.791169,0.71055 -0.191889,0.18775 -0.339194,0.32235 -0.505395,0.48059 0.15311,-0.0758 0.306215,-0.1493 0.458886,-0.22273 0.02423,-0.0237 0.03975,-0.0371 0.0646,-0.0615 0.313497,-0.30838 0.691577,-0.6489 0.841294,-0.76016 0.149725,-0.10767 0.352488,-0.30504 0.452167,-0.43047 0.138827,-0.17918 0.253088,-0.27593 0.495578,-0.41961 0.249616,-0.15085 0.420558,-0.29794 0.848011,-0.73536 0.295666,-0.29761 0.630629,-0.613 0.748273,-0.69556 0.531199,-0.36973 0.684586,-0.48825 0.812872,-0.59945 0.07125,-0.0681 0.149574,-0.1219 0.167431,-0.12195 0.02143,-5e-5 0.05725,-0.0398 0.07855,-0.0899 0.03195,-0.0752 0.03156,-0.10349 -0.01499,-0.14986 -0.02865,-0.0285 -0.06677,-0.0378 -0.09353,-0.0315 z m -8.978781,2.51147 c 0.0071,-2e-5 -0.0067,0.0461 -0.03876,0.10697 -0.032,0.0573 -0.06421,0.10746 -0.07493,0.10749 -0.0071,2e-5 0.0073,-0.0502 0.03927,-0.10749 0.03199,-0.0609 0.06369,-0.10694 0.07441,-0.10697 z m -0.145728,0.25063 c 0.01071,-2e-5 -0.0068,0.0607 -0.03514,0.13229 -0.06744,0.16469 -0.145699,0.25426 -0.0925,0.10749 0.04966,-0.13246 0.106211,-0.23972 0.12764,-0.23978 z m -3.590995,3.87677 c -0.0011,-0.021 -0.08483,0.0851 -0.216007,0.28887 -0.526481,0.81678 -1.01646,1.88377 -1.388546,3.02204 -0.02191,0.0664 -0.04781,0.15766 -0.07235,0.23926 0.05394,-0.0671 0.109637,-0.14077 0.165881,-0.22479 0.03134,-0.0468 0.07185,-0.0977 0.10697,-0.14625 0.454327,-1.22477 0.980757,-2.44354 1.308965,-2.99827 0.06668,-0.11014 0.09577,-0.16827 0.09508,-0.18086 z m -3.746024,0.29249 c 0.0061,-0.002 0.0088,0.002 0.0088,0.009 9e-6,0.004 -0.09265,0.0966 -0.203089,0.20412 l -0.206705,0.19741 0.195853,-0.20774 c 0.133565,-0.14251 0.186755,-0.19666 0.205156,-0.20257 z m 1.712556,0.22272 c -0.0072,-0.007 -0.103049,0.111 -0.209807,0.26148 -0.717388,1.00524 -1.384061,2.49128 -1.848982,4.0349 0.09793,-0.12427 0.183005,-0.22459 0.267684,-0.32453 0.0092,-0.0282 0.01695,-0.0548 0.02636,-0.0832 0.421709,-1.28503 1.167119,-2.96083 1.615405,-3.63078 0.08895,-0.13256 0.156505,-0.25073 0.149345,-0.25787 z m -6.604765,3.66851 0.01085,0.16795 c 0.0075,0.13588 -0.01683,0.22555 -0.144694,0.50126 -0.08882,0.18263 -0.170835,0.36843 -0.185002,0.41496 -0.01417,0.0465 -0.03163,0.0753 -0.04237,0.0646 -0.02147,-0.0178 0.04208,-0.2254 0.22996,-0.77308 z m 3.148646,0.84284 c -0.0072,-0.007 -0.09231,0.1933 -0.188103,0.4439 -0.21225,0.54017 -0.396558,1.1269 -0.534851,1.66502 l -0.03566,0.75396 c 0.103239,-0.44186 0.246064,-0.98845 0.468188,-1.77819 0.166345,-0.59055 0.297583,-1.07756 0.290422,-1.08469 z m -3.039092,0.31265 c 0.0045,-0.005 0.0087,-0.004 0.01137,0.003 0.0072,0.025 -0.0031,0.13549 -0.02429,0.23926 -0.02472,0.10736 -0.0602,0.20058 -0.07803,0.21135 -0.01783,0.0108 -0.02512,2.7e-4 -0.01447,-0.0248 0.0071,-0.0251 0.03163,-0.14339 0.05633,-0.26148 0.01584,-0.0886 0.03557,-0.15282 0.04909,-0.16743 z m -2.241724,3.11919 c 0.0021,-6e-5 0.0045,0.004 0.0072,0.0119 0.0072,0.0358 0.0076,0.0997 5.17e-4,0.14263 -0.007,0.0465 -0.01427,0.0182 -0.01447,-0.0605 -0.0028,-0.059 3.58e-4,-0.0939 0.0067,-0.0941 z m 0.467155,1.05678 c 0.0022,5.6e-4 0.0045,0.003 0.0072,0.009 0.0072,0.025 0.0071,0.0679 0,0.0894 -0.01065,0.0251 -0.01744,0.007 -0.01757,-0.0429 -9.6e-5,-0.0376 0.0038,-0.057 0.01033,-0.0553 z m -0.619083,3.40134 c 0.03988,0.41264 0.09604,0.8106 0.170015,1.17977 0.06873,0.33959 0.288435,1.01827 0.345715,1.07177 0.02864,0.025 0.03241,0.0143 0.01085,-0.0357 -0.08527,-0.22497 -0.158075,-0.83643 -0.199471,-1.64228 -0.07659,-0.13831 -0.153743,-0.27692 -0.248047,-0.43563 -0.02852,-0.048 -0.05183,-0.091 -0.07906,-0.13798 z m 0.62115,1.14308 c 0.0887,1.05665 0.211342,1.87658 0.289388,1.87637 0.01786,-4e-5 0.02522,-0.0142 0.01447,-0.0284 -0.01893,-0.0301 -0.07218,-0.6667 -0.125574,-1.42575 -0.05409,-0.14004 -0.112219,-0.2806 -0.178284,-0.4222 z m 1.191659,4.25349 c -0.270641,0.46155 -0.790124,1.18696 -1.617989,2.26911 0.179128,-0.14781 0.36138,-0.30234 0.526582,-0.43408 0.165732,-0.13216 0.173076,-0.13897 0.319878,-0.25632 0.263737,-0.38237 0.387073,-0.542 0.417545,-0.54208 0.01528,-4e-5 0.06393,0.0501 0.117822,0.11266 0.0614,-0.0494 0.214024,-0.17066 0.242363,-0.19379 -0.0031,-0.002 -0.01121,-0.007 -0.01395,-0.009 l -0.08992,-0.0749 0.08578,0.0212 c 0.0059,0.002 0.05266,0.0212 0.06408,0.0253 0.0057,-0.005 0.06166,-0.0492 0.0646,-0.0517 -0.06885,-0.0162 -0.184979,-0.0409 -0.21084,-0.0486 -0.05005,-0.0177 -0.05718,-0.0109 -0.03566,0.0248 0.02154,0.0429 0.01811,0.043 -0.02842,0.004 -0.05368,-0.0428 -0.03965,-0.0787 0.156063,-0.35812 0.01778,-0.0253 0.06034,-0.0799 0.0832,-0.11162 -0.01844,-0.0977 -0.05598,-0.25704 -0.08113,-0.37724 z m -9.022189,9.79785 c -0.02277,0.047 -0.0386,0.0864 -0.03101,0.0915 0.01201,0.0137 0.216431,-0.0211 0.474389,-0.0744 -0.202461,0.002 -0.381303,3.1e-4 -0.443383,-0.0171 z"
         id="path1067"
         inkscape:connector-curvature="0" />
    </g>
    <g
       id="g1087"
       transform="matrix(0.86804395,0,0,0.86804395,0,39.190942)">
      <path
         sodipodi:nodetypes="cccccccccccccccccccccccccccccccccccccccccccccccccccccccccccccccccccccccccccccccccccccccccccccccccccccccccccccccccccccccccccccccccccccccccccccccccccccccccccccccccccccccccccccccccccccccccccccccccccccccccccscccccccccccccccccccccccccccccccccccccccccccccccccccccccccccccccccccccccccccccccccccccccccccccccccccccccccccccccccccccccccccccccccccccccccccccccccccccccccccccccccccccccccccccccccccccccccccccccccccccc"
         inkscape:connector-curvature="0"
         id="path961"
         d="m 25.564006,253.2688 c -0.376715,-0.007 -0.740744,0.0664 -1.367359,0.25218 v 5.2e-4 c -0.378424,0.11463 -0.80176,0.33569 -0.832507,0.43563 -0.0151,0.0579 -0.108314,0.10863 -1.319816,0.73897 -0.554872,0.28721 -1.00564,0.54349 -1.211813,0.68471 -0.463401,0.32323 -0.98533,0.76286 -1.235583,1.04232 -0.118635,0.1334 -0.407535,0.3994 -0.642338,0.59531 -0.234802,0.19591 -0.515086,0.44065 -0.622701,0.5395 -0.107614,0.0989 -0.183935,0.1553 -0.168465,0.12609 0.06436,-0.13342 -0.06162,-0.0716 -0.302824,0.15142 -0.369446,0.34268 -0.60331,0.52853 -0.823722,0.66352 -0.105668,0.0664 -0.310962,0.21068 -0.451136,0.32039 -0.139459,0.11273 -0.403245,0.30901 -0.582911,0.4408 -0.379078,0.27461 -1.025398,0.82299 -1.43557,1.22319 -0.420845,0.40911 -0.848526,0.93808 -1.14515,1.41386 -0.143333,0.23192 -0.276407,0.42671 -0.294555,0.43098 -0.11796,0.0278 -0.517352,0.50167 -1.090373,1.29502 -0.228888,0.31599 -0.452272,0.61488 -0.498161,0.66404 -0.04286,0.0485 -0.367838,0.39044 -0.72037,0.76429 -0.352532,0.37386 -0.77106,0.83341 -0.9281098,1.02061 -0.307875,0.36014 -0.941018,1.1964 -1.177189,1.54926 -0.07772,0.11738 -0.167969,0.23477 -0.199988,0.26148 -0.126648,0.11292 -0.818538,0.9308 -1.07642,1.27279 -0.335424,0.44655 -0.706979,1.05174 -0.931726,1.50741 -0.165892,0.33952 -0.171008,0.34423 -0.444417,0.55242 -0.151558,0.11558 -0.288017,0.21486 -0.29869,0.22376 -0.04109,0.0288 0.0011,-0.29463 0.05323,-0.41238 0.121255,-0.27148 -0.08892,-0.10683 -0.290939,0.22841 -0.394066,0.65854 -0.717846,1.6167 -0.810802,2.41535 -0.01686,0.13183 -0.04492,0.28257 -0.06821,0.3328 -0.05121,0.10795 -0.05152,0.10782 -0.03824,-0.0935 0.0049,-0.0875 0.0054,-0.17997 -10e-4,-0.20723 -0.02138,-0.0909 -0.177475,0.24954 -0.210323,0.44907 -0.0561,0.35844 -0.195664,0.83537 -0.233577,0.79634 -0.02456,-0.023 -0.03003,-0.006 -0.01809,0.0589 0.0098,0.0552 0.0071,0.0715 -0.0098,0.0403 -0.0162,-0.0281 -0.0057,-0.18727 0.01912,-0.35295 0.02485,-0.16568 0.03708,-0.34448 0.03101,-0.39739 -0.0061,-0.0529 -0.0095,-0.13472 -0.0088,-0.18603 0.0014,-0.0483 -0.0102,-0.0841 -0.02532,-0.0806 -0.05142,0.0121 -0.123766,0.16631 -0.216008,0.46612 -0.07234,0.22161 -0.09756,0.27562 -0.111104,0.21808 -0.03279,-0.13933 -0.08993,-0.20578 -0.1757,-0.21756 -0.07296,-0.0116 -0.09264,-3.8e-4 -0.132292,0.0889 -0.02863,0.0547 -0.08021,0.22988 -0.116272,0.38861 -0.03304,0.15802 -0.08936,0.35323 -0.118338,0.43357 -0.032,0.0811 -0.112272,0.44513 -0.176734,0.80873 -0.06749,0.36432 -0.146125,0.78909 -0.173116,0.94568 -0.03002,0.15731 -0.07815,0.49455 -0.109554,0.75448 -0.03211,0.25689 -0.063,0.46565 -0.06976,0.46405 -0.0045,-0.005 -0.06489,-0.15438 -0.134876,-0.32969 -0.321281,-0.82264 -0.487485,-1.29779 -0.601513,-1.72806 -0.130597,-0.48712 -0.182965,-0.62854 -0.22531,-0.61857 -0.04537,0.0107 -0.09699,0.52471 -0.08372,0.82527 0.01289,0.21753 0.05755,0.47542 0.180868,0.99942 l 0.163814,0.70952 -0.07958,0.13694 c -0.170535,0.29267 -0.391715,1.26516 -0.402042,1.75028 -0.01884,1.05932 0.355472,2.8382 0.784965,3.74086 0.02564,0.0547 -0.223087,-0.0912 -1.353923,-0.79995 -0.38940299,-0.244 -0.93877799,-0.53061 -0.99322099,-0.5178 -0.03327,0.008 0.0609,0.24502 0.111621,0.28422 0.310397,0.23383 0.575435,0.42353 0.88831799,0.64079 0.446543,0.31047 0.658927,0.48133 0.89762,0.72244 0.380733,0.3835 0.881977,1.00708 1.311547,1.62522 0.246207,0.35442 0.612807,0.84043 0.812354,1.07797 l 0.362768,0.42943 -0.05839,0.0904 c -0.07078,0.10615 -0.886127,1.63381 -1.11621,2.09392 -0.173541,0.34772 -0.409037,0.87974 -0.572059,1.28572 -0.05155,0.1336 -0.154552,0.34617 -0.224792,0.46818 -0.142793,0.24778 -0.355887,0.71374 -0.671277,1.46245 -0.116804,0.27682 -0.312137,0.73527 -0.433565,1.01957 -0.279757,0.64879 -0.47984499,1.20616 -0.64595499,1.80558 0.308206,-0.50907 0.70988099,-1.12022 1.16220199,-1.77922 0.08853,-0.23269 0.19717,-0.51367 0.234611,-0.62167 0.06897,-0.19524 0.175516,-0.44763 0.241846,-0.55914 l 0.114722,-0.20257 0.162264,-0.016 c 0.04996,-0.005 0.137094,-0.003 0.232027,0.003 0.0591,-0.0814 0.112807,-0.15967 0.172599,-0.24133 -0.04762,-0.013 -0.105854,-0.0283 -0.19637,-0.0434 l -0.219625,-0.0377 0.220142,-0.44855 c 0.504611,-1.02979 0.582907,-1.19832 0.826823,-1.78955 0.25796,-0.6265 0.326674,-0.77039 0.836641,-1.75029 0.4023902,-0.77236 0.9874822,-2.01619 1.1833892,-2.51302 0.05724,-0.14462 0.152732,-0.3623 0.251665,-0.58136 -0.07786,-0.16801 -0.154087,-0.32801 -0.228927,-0.48214 -0.0011,0.002 -0.002,0.004 -0.0031,0.007 -0.104725,0.21964 -0.31102,0.64491 -0.456819,0.94774 -0.142061,0.30514 -0.309198,0.68022 -0.364835,0.83716 -0.107365,0.30337 -0.2961362,0.69645 -0.3384812,0.70642 -0.0121,0.003 -0.08789,-0.0753 -0.166398,-0.17829 -0.07779,-0.1 -0.170615,-0.20915 -0.21084,-0.24443 -0.09309,-0.0836 -0.26235,-0.47841 -0.381889,-0.89141 -0.09299,-0.31376 -0.422143,-1.11558 -0.60358,-1.46606 -0.111641,-0.21667 -0.245391,-0.59449 -0.429948,-1.21595 -0.08427,-0.29024 -0.1811,-0.60614 -0.216008,-0.70022 l -0.05633,-0.17208 0.120406,0.13126 c 0.06461,0.0711 0.169227,0.14899 0.231511,0.1695 0.05926,0.0212 0.129878,0.0651 0.156579,0.0971 0.02741,0.0351 0.06195,0.0591 0.0801,0.0548 0.05444,-0.0128 -0.02021,-0.22193 -0.235128,-0.66043 -0.368229,-0.75085 -0.586541,-1.29731 -0.631486,-1.5968 -0.07918,-0.49922 -0.121494,-1.14128 -0.104386,-1.57045 0.01534,-0.40958 0.01757,-0.42645 0.06511,-0.31936 0.02707,0.0608 0.125437,0.27414 0.21394,0.47387 0.0885,0.19975 0.188727,0.43547 0.222209,0.52349 0.03348,0.088 0.115254,0.27335 0.183451,0.41393 0.111467,0.2295 0.128625,0.28897 0.201022,0.73225 0.175463,1.07112 0.494351,2.15368 0.885217,3.01429 0.125183,0.27422 0.44476,0.80622 0.503845,0.84026 0.02919,0.0155 0.03019,0.006 0.0021,-0.0326 -0.142599,-0.21258 -0.381813,-0.90393 -0.622701,-1.81901 -0.153896,-0.58838 -0.199845,-0.77654 -0.257348,-1.27848 -0.03766,-0.0526 -0.06993,-0.10194 -0.09198,-0.14314 -0.139602,-0.26085 -0.107927,-0.34707 0.04547,-0.29301 -0.01517,-0.15226 -0.02837,-0.27939 -0.04858,-0.48834 -0.05751,-0.59702 -0.05914,-0.82029 -0.0021,-0.41496 0.04577,0.32466 0.101959,0.64013 0.164331,0.95653 0.04683,0.0264 0.09661,0.056 0.155546,0.0971 -0.141258,-0.68756 -0.232079,-1.35573 -0.263033,-2.01951 -0.01183,-0.24016 -0.01159,-0.53748 0.0021,-0.65577 0.04984,-0.45286 0.07611,-0.60012 0.103869,-0.59067 0.01424,0.006 0.04933,-0.0338 0.07493,-0.0879 0.03271,-0.078 0.04307,-0.087 0.04237,-0.0356 -0.0012,0.0355 0.0066,0.19045 0.01499,0.3483 0.01649,0.34134 0.05522,2.17345 0.04599,2.24275 -0.0019,0.0324 0.0023,0.0379 0.0155,0.0124 0.08251,-0.13769 0.112423,-1.65343 0.05374,-2.55385 -0.02485,-0.33619 -0.03005,-0.57459 -0.01189,-0.52452 0.01443,0.0478 0.04439,0.1203 0.06201,0.15451 l 0.03204,0.0693 0.06098,-0.10697 0.06201,-0.10439 0.03927,0.12816 c 0.05344,0.17283 0.108543,0.13466 0.09922,-0.0677 -0.01235,-0.20168 -0.0032,-0.50147 0.0155,-0.48989 0.02171,0.0109 0.03989,0.2786 0.05788,0.84336 0.0092,0.26956 0.03696,0.739 0.06304,1.03973 0.04841,0.54482 0.249215,1.72519 0.334347,1.9513 0.02173,0.0652 0.08362,0.23271 0.1390102,0.37311 0.07053,0.19119 0.120009,0.40042 0.192752,0.81803 0.02748,0.16312 0.04313,0.26393 0.06666,0.40567 l 0.133843,0.12609 c -0.01226,-0.10215 -0.02441,-0.2047 -0.03876,-0.30438 -0.110946,-0.76985 -0.112102,-0.78909 -0.105937,-0.96635 0.0042,-0.0905 -0.02151,-0.36249 -0.05736,-0.60978 -0.03888,-0.24658 -0.07971,-0.58218 -0.0956,-0.74466 -0.03716,-0.42919 -0.2690692,-2.12003 -0.3503662,-2.574 -0.104647,-0.56674 -0.102242,-1.56143 0.0026,-2.01125 0.02878,-0.12185 0.07122,-0.36188 0.09767,-0.53433 0.03869,-0.2968 0.1100172,-0.5631 0.1271242,-0.49041 0.005,0.0212 0.0043,0.23584 0.001,0.47956 -0.0063,0.24443 6.51e-4,0.46346 0.0124,0.48627 0.01247,0.0258 0.02044,-0.0337 0.02326,-0.13022 2.89e-4,-0.18866 0.0828,-0.73576 0.105936,-0.71882 0.0075,0.005 0.01907,0.149 0.02429,0.32039 0.0045,0.16836 0.03279,0.41118 0.06201,0.53537 0.05987,0.25442 0.169383,0.49072 0.216525,0.46044 0.01672,-0.0103 0.0256,-0.10839 0.01809,-0.2217 -0.0093,-0.14805 -0.0026,-0.18811 0.02326,-0.14624 0.107883,0.16001 0.188709,0.25942 0.212906,0.25373 0.0121,-0.003 0.02365,-0.009 0.02222,-0.015 0.0023,-0.004 -0.0264,-0.17916 -0.06046,-0.39171 -0.06188,-0.38501 -0.06361,-0.5414 -0.0046,-1.38958 0.05169,-0.75698 0.08416,-1.02672 0.15968,-1.3162 0.07072,-0.26918 0.09383,-0.31922 0.209806,-0.42323 0.139633,-0.12557 0.418376,-0.32551 0.4408,-0.31161 0.0068,0.002 -0.0051,0.0874 -0.02377,0.18449 -0.03624,0.17155 -0.03201,0.29884 0.01033,0.28887 0.0091,-0.002 0.0431,-0.0358 0.06925,-0.0739 0.02685,-0.0351 0.0076,0.0205 -0.03824,0.12402 -0.07841,0.1687 -0.08344,0.28167 -0.01085,0.26459 0.01512,-0.004 0.12072,-0.19113 0.24288,-0.41807 0.229736,-0.43446 0.920658,-1.58208 0.877466,-1.45365 -0.01564,0.0421 -0.06957,0.17973 -0.125574,0.30799 -0.104359,0.24832 -0.132657,0.49483 -0.04444,0.38137 0.0345,-0.0433 0.03175,-0.001 -0.0093,0.13643 -0.100584,0.35931 0.02252,0.18932 0.272851,-0.37466 0.217619,-0.48595 0.527906,-1.09257 0.688847,-1.34462 l 0.141594,-0.22531 -0.02739,0.1664 c -0.05061,0.28682 -0.04571,0.75573 0.0077,0.98289 0.0278,0.11813 0.05436,0.20456 0.06201,0.19637 0.0039,-0.0105 0.01659,-0.24049 0.02326,-0.51057 0.01191,-0.54623 0.05408,-0.84395 0.165881,-1.19631 0.06149,-0.19988 0.114524,-0.28588 0.312125,-0.51779 0.129481,-0.15514 0.339029,-0.4029 0.469223,-0.55501 0.12948,-0.15514 0.269158,-0.33478 0.310058,-0.40514 0.04392,-0.0711 0.213058,-0.28985 0.377755,-0.48524 0.4090746,-0.48626 0.8153726,-1.02293 1.0593656,-1.39682 0.141559,-0.21232 0.403755,-0.52366 0.857314,-1.01079 0.359467,-0.38508 0.658509,-0.70137 0.664559,-0.7028 0.006,-10e-4 -0.03339,0.17088 -0.08527,0.38447 -0.05188,0.2136 -0.116365,0.58989 -0.143144,0.84233 -0.02749,0.24941 -0.06502,0.57792 -0.08061,0.72864 -0.01863,0.15142 -0.02076,0.29254 -0.0067,0.31161 0.02884,0.0412 0.110021,0.0317 0.149862,-0.016 0.07737,-0.0917 0.216177,-0.49186 0.3514,-1.01596 0.0828,-0.32636 0.159489,-0.60969 0.171049,-0.62839 0.01156,-0.0187 0.01351,0.0572 0.0052,0.17105 -0.01487,0.20808 0.0017,0.54964 0.02791,0.56586 0.0299,0.0185 0.09925,-0.4323 0.129708,-0.84543 0.02763,-0.37092 0.04694,-0.46544 0.160714,-0.74155 0.176179,-0.43145 0.348695,-0.74335 0.775147,-1.39992 0.283293,-0.43747 0.446648,-0.65186 0.747241,-0.97513 0.555297,-0.59739 1.098974,-1.12197 1.573029,-1.50844 0.227868,-0.18469 0.490865,-0.40938 0.585495,-0.49558 l 0.170532,-0.15864 -0.191719,0.29765 c -0.105457,0.16227 -0.226144,0.38285 -0.271301,0.48938 -0.04213,0.10581 -0.09578,0.21741 -0.117307,0.24805 -0.02526,0.0283 -0.03786,0.0697 -0.03359,0.0879 0.005,0.0212 -0.01705,0.0773 -0.05013,0.1266 -0.100833,0.15479 -0.0459,0.18345 0.06615,0.0357 0.127517,-0.17705 0.488586,-0.58147 0.518833,-0.58859 0.0121,-0.003 0.04143,-0.0416 0.06615,-0.0858 0.07966,-0.1498 0.738165,-0.90578 1.211296,-1.39113 0.259866,-0.26574 0.70551,-0.73213 0.985469,-1.03456 0.620221,-0.66062 0.795345,-0.81069 1.560628,-1.32963 0.591129,-0.40443 2.141806,-1.39899 2.196249,-1.4118 0.01512,-0.004 0.02158,0.0111 0.01447,0.0351 -0.0094,0.0278 4.91e-4,0.0288 0.03927,0.004 0.130925,-0.0948 0.217781,-0.1313 0.606164,-0.25786 0.228618,-0.073 0.545642,-0.19256 0.704867,-0.262 0.347272,-0.15205 0.624263,-0.20766 0.974617,-0.19741 v 5.2e-4 c 0.430958,0.0137 1.02751,0.0777 1.30173,0.14418 0.40572,0.0963 0.658165,0.328 0.928625,0.83974 0.1022,0.19012 0.136424,0.29704 0.192754,0.59066 0.06702,0.33905 0.06836,0.37078 0.0124,0.60771 -0.05668,0.23391 -0.07691,0.27037 -0.424262,0.70694 -0.445525,0.56196 -0.78684,1.07753 -1.106911,1.6707 -0.303888,0.56699 -0.430388,0.82971 -0.488858,1.02888 -0.01604,0.0503 -0.06437,0.17404 -0.122473,0.31677 0.217765,-0.12556 0.436156,-0.24952 0.666624,-0.37155 0.126768,-0.30417 0.275295,-0.62809 0.34365,-0.74259 0.07024,-0.12202 0.185579,-0.33806 0.255281,-0.47594 0.133178,-0.2615 0.435891,-0.72584 0.48731,-0.73794 0.01512,-0.004 0.08422,-0.0899 0.150379,-0.18862 0.06918,-0.0994 0.16569,-0.23075 0.21549,-0.29042 0.05283,-0.0604 0.135612,-0.21119 0.183967,-0.33125 0.05138,-0.12078 0.165637,-0.31365 0.250113,-0.42943 0.168783,-0.21873 0.296315,-0.50467 0.252699,-0.56792 -0.01104,-0.0198 -0.01433,-0.0863 -0.0067,-0.14883 0.02859,-0.16336 -0.08127,-0.59132 -0.204121,-0.81494 -0.20315,-0.36136 -0.369697,-0.49778 -1.194761,-0.96531 -0.489948,-0.27788 -0.704378,-0.36202 -1.037663,-0.40825 -0.138615,-0.0193 -0.265618,-0.0306 -0.391189,-0.0331 z m -1.985926,4.20749 c -0.0583,-0.007 -0.278614,0.0856 -0.504362,0.22531 -0.374648,0.22562 -1.142759,0.86674 -1.377178,1.14567 -0.219121,0.26255 -0.620788,0.6733 -1.052132,1.07849 -0.305408,0.28925 -0.856592,0.98526 -0.984435,1.2423 -0.0713,0.14465 -0.05689,0.19218 0.02687,0.0734 0.02845,-0.0419 0.09201,-0.11134 0.140043,-0.15141 0.04803,-0.0401 0.196675,-0.22178 0.334864,-0.40773 0.281713,-0.37637 0.279421,-0.37286 0.856794,-0.93069 0.237461,-0.2253 0.5601,-0.5634 0.720886,-0.74828 0.339895,-0.38686 1.001079,-0.94167 1.486732,-1.23816 0.16722,-0.10329 0.325822,-0.21463 0.350366,-0.24598 0.02241,-0.0269 0.02098,-0.0404 0.0016,-0.0429 z m -3.916556,3.90468 c -0.04497,-0.003 -0.08037,0.027 -0.04806,0.0625 0.01566,0.0123 -0.01711,0.0646 -0.06976,0.11214 -0.04891,0.0499 -0.09949,0.11912 -0.107487,0.15296 -0.01102,0.0346 -0.07918,0.12412 -0.157096,0.19999 -0.286549,0.288 -0.542319,0.62625 -0.864547,1.156 -0.246651,0.40328 -0.388777,0.59983 -0.541569,0.75086 -0.240659,0.23885 -0.315841,0.33959 -0.412377,0.56689 -0.03894,0.0923 -0.147951,0.25251 -0.24133,0.3576 -0.09267,0.10812 -0.331557,0.44871 -0.5302,0.75758 -0.501317,0.78607 -0.841515,1.28175 -1.294495,1.89342 -0.07971,0.10828 -0.158594,0.22026 -0.237711,0.33125 0.139366,-0.1209 0.290095,-0.24849 0.442349,-0.37724 0.392858,-0.53474 0.695719,-0.97814 1.144118,-1.68413 0.204865,-0.32312 0.457819,-0.6865 0.562756,-0.81029 0.105649,-0.12076 0.238949,-0.32778 0.29869,-0.45372 0.08232,-0.1792 0.159768,-0.28364 0.33693,-0.4532 0.181785,-0.17704 0.297616,-0.33572 0.573608,-0.79065 0.19188,-0.31048 0.41371,-0.64376 0.497128,-0.73691 0.377249,-0.41803 0.483718,-0.54865 0.570507,-0.66817 0.04695,-0.0718 0.1027,-0.13288 0.117823,-0.13643 0.01815,-0.004 0.0404,-0.0448 0.04858,-0.0915 0.01225,-0.07 0.0067,-0.0944 -0.04186,-0.12454 -0.01495,-0.009 -0.031,-0.0135 -0.04599,-0.0145 z m -7.153052,3.9057 c 0.006,-0.001 0.0032,0.0408 -0.01189,0.0987 -0.01582,0.0549 -0.03279,0.1038 -0.04186,0.10594 -0.006,10e-4 -0.0039,-0.0438 0.01188,-0.0987 0.0151,-0.0579 0.03279,-0.10381 0.04186,-0.10594 z m -0.0739,0.24133 c 0.0091,-0.002 0.0059,0.0526 -0.0041,0.11885 -0.02468,0.15285 -0.07351,0.24442 -0.05736,0.10956 0.01597,-0.12203 0.04335,-0.22414 0.0615,-0.22841 z m -2.278932,3.99304 c -0.0051,-0.0176 -0.0551,0.0888 -0.12609,0.28732 -0.2851248,0.79592 -0.4904468,1.79653 -0.5813608,2.83445 -0.003,0.0329 -0.005,0.0805 -0.0077,0.11782 0.04165,-0.0309 0.07899,-0.0479 0.10697,-0.0372 0.0059,0.002 0.01248,0.002 0.0186,0.004 0.143343,-1.20215 0.363971,-2.46186 0.5446708,-3.03444 0.03479,-0.10649 0.04802,-0.16155 0.04496,-0.17208 z m -1.6216068,0.83715 c -0.0075,-0.005 -0.06581,0.11447 -0.126607,0.26304 -0.606259,1.4696 -0.909903,3.80495 -0.764295,5.75624 0.01066,-0.0526 0.05021,-0.16453 0.110071,-0.31678 -0.03426,-0.64406 -0.0173,-1.30819 0.05168,-2.05931 0.104033,-1.17207 0.405383,-2.73906 0.65319,-3.39514 0.04924,-0.12987 0.08344,-0.24341 0.075961,-0.24805 z m -1.494999,0.14935 c 0.0048,-0.003 0.0074,-3.7e-4 0.0088,0.006 7.13e-4,0.003 -0.0594,0.1 -0.131775,0.21291 l -0.136426,0.20826 0.125057,-0.21498 c 0.08509,-0.14709 0.119932,-0.20323 0.134359,-0.21187 z m -3.3786052,4.26176 0.04238,0.14004 c 0.03314,0.11367 0.02971,0.19436 -0.02429,0.4532 -0.03926,0.17227 -0.07158,0.34639 -0.07441,0.38861 -0.0028,0.0422 -0.01256,0.0699 -0.02377,0.063 -0.02171,-0.0109 -0.0084,-0.19959 0.04289,-0.70073 z m 2.8339352,0.0935 c -0.0075,-0.005 -0.04006,0.18217 -0.07183,0.41341 -0.08241,0.5611 -0.125917,1.1684 -0.129708,1.69499 0.04399,-0.062 0.08961,-0.11433 0.135909,-0.16175 0.0078,-0.28672 0.01523,-0.56817 0.03359,-0.97048 0.02455,-0.53322 0.03952,-0.97153 0.032039,-0.97617 z m -2.5135412,0.86351 c 0.0029,-0.005 0.0066,-0.005 0.01034,5.2e-4 0.01104,0.0198 0.02383,0.11563 0.02635,0.20774 v 5.2e-4 c 2.12e-4,0.0958 -0.0113,0.18165 -0.02429,0.1943 -0.01298,0.0126 -0.02114,0.005 -0.01705,-0.0186 0.0011,-0.0226 -0.0013,-0.12762 -0.0036,-0.23255 -0.004,-0.0782 -3.08e-4,-0.13687 0.0083,-0.15193 z m 1.8732702,0.23978 c -0.0075,-0.005 -0.01671,0.0105 -0.01705,0.0362 -0.05382,0.5904 -0.05857,1.35147 -0.0279,2.11254 0.03628,-0.13113 0.07274,-0.26201 0.113688,-0.37931 -0.03086,-0.68564 -0.05927,-1.40374 -0.05684,-1.58336 0.0028,-0.0966 -0.0044,-0.18141 -0.01189,-0.18604 z m -3.1579462,2.84582 c 0.0018,-4.7e-4 0.0049,0.002 0.0088,0.008 0.01318,0.0289 0.02592,0.0837 0.02842,0.12144 0.0032,0.0408 -0.0086,0.018 -0.02429,-0.0486 -0.01403,-0.0494 -0.01827,-0.0797 -0.01292,-0.0811 z m 0.60048,0.80874 c 10e-4,-0.007 0.0047,-0.008 0.01137,5.2e-4 0.01104,0.0198 0.01986,0.0564 0.01809,0.076 -0.0041,0.0233 -0.01379,0.01 -0.02377,-0.0331 -0.005,-0.0212 -0.0067,-0.036 -0.0057,-0.0434 z m 0.354501,1.9234 c 0.120921,0.51165 0.270305,1.04945 0.464054,1.66811 0.313516,1.00667 0.6255582,1.80302 0.6981482,1.78594 0.01512,-0.004 0.01812,-0.0174 0.0062,-0.0274 -0.04165,-0.0413 -0.6134712,-1.8885 -0.8816002,-2.85151 -0.03569,-0.12654 -0.06352,-0.24893 -0.0956,-0.37362 -0.06506,-0.0632 -0.128712,-0.13059 -0.191202,-0.20153 z m 2.6489332,4.33151 c -0.05883,0.1771 -0.113181,0.39004 -0.179318,0.69195 -0.104282,0.46568 -0.451248,1.32389 -1.193724,2.94349 -0.05182,0.11306 -0.06854,0.15207 -0.115239,0.25425 0.218117,-0.27026 0.434987,-0.53718 0.643371,-0.78341 0.297006,-0.78187 0.460848,-1.19021 0.495577,-1.19838 0.01815,-0.004 0.104507,0.0523 0.19172,0.12454 0.04047,0.0328 0.09348,0.0696 0.154512,0.10903 l 0.250631,-0.2837 c -0.133929,-0.0311 -0.264874,-0.0668 -0.321428,-0.0946 l -0.09043,-0.0455 0.07648,10e-4 c 0.03677,0.003 0.221874,0.0309 0.40411,0.061 l 0.100252,-0.11369 c -0.23162,0.005 -0.512222,0.009 -0.588594,0.004 -0.04591,-0.005 -0.0506,0.002 -0.02532,0.0284 0.0267,0.0321 0.02339,0.0331 -0.02377,0.009 -0.05392,-0.0257 -0.04874,-0.0589 0.06201,-0.33435 0.06862,-0.16959 0.21555,-0.50808 0.329695,-0.75551 0.01604,-0.0356 0.03407,-0.0823 0.05116,-0.12195 z m -0.06873,1.32344 c -0.01081,0.0175 0.332422,0.16932 0.564823,0.25269 l 0.0894,-0.10077 c -0.291603,-0.0941 -0.638899,-0.17669 -0.65422,-0.15189 z"
         style="fill:#000000;fill-opacity:0.31451613;stroke:none;stroke-width:0.00310942" />
      <path
         sodipodi:nodetypes="scsscsscsccscsscccccssscssscccsccccscccscscsccsssscsscssscssssscscsscccccccss"
         inkscape:connector-curvature="0"
         id="path1080"
         d="m 25.711103,253.31652 c -0.646961,-0.0311 -1.554444,0.18539 -2.086694,0.51728 -0.232751,0.14514 -0.977985,0.56107 -1.65623,0.92449 -0.83544,0.44766 -1.586721,0.98411 -2.329057,1.66243 -0.60266,0.5507 -1.271339,1.1206 -1.486214,1.26659 -1.828097,1.24204 -3.621242,2.78258 -4.393013,3.77445 -0.346191,0.44492 -0.995807,1.28228 -1.443323,1.86035 -0.447516,0.57807 -1.185678,1.44752 -1.64021,1.93218 -0.454533,0.48467 -1.1044536,1.24908 -1.4443561,1.69912 -0.3399023,0.45005 -0.8890717,1.1362 -1.2205973,1.52446 -0.3315258,0.38826 -0.8378002,1.09633 -1.1249961,1.57355 -0.5658612,0.94026 -0.8501131,1.30844 -1.0102742,1.30844 -0.056334,0 -0.069826,-0.0853 -0.029972,-0.18913 0.039854,-0.10386 0.018902,-0.18862 -0.046509,-0.18862 -0.1783059,0 -0.7697094,1.27934 -0.9425781,2.03915 -0.083506,0.36704 -0.22449,0.74205 -0.3136757,0.83354 -0.089185,0.0915 -0.1687018,0.28996 -0.1767335,0.4408 -0.011337,0.21293 -0.027648,0.22479 -0.072347,0.0537 -0.077227,-0.29552 -0.2462985,-0.27897 -0.3276286,0.032 -0.040815,0.15607 -0.1353973,0.22564 -0.2480468,0.18241 -0.2149121,-0.0825 -0.4920081,0.82115 -0.7358724,2.39779 -0.085675,0.5539 -0.1937814,1.05184 -0.2397787,1.10639 -0.045997,0.0546 -0.2471461,-0.39872 -0.4470011,-1.00717 -0.1998549,-0.60846 -0.407248,-1.15999 -0.4609537,-1.22577 -0.1450812,-0.17769 -0.1180958,0.95586 0.040308,1.69447 0.1135987,0.5297 0.099166,0.78568 -0.081649,1.45366 -0.2748974,1.01555 -0.1932598,2.6255 0.1963705,3.87573 0.1477354,0.47405 0.2505679,0.87913 0.2284098,0.90021 -0.022158,0.0211 -0.4935763,-0.23774 -1.0474813,-0.57568 -0.55390501,-0.33793 -1.04785185,-0.61561 -1.09760738,-0.61701 -0.22934248,-0.006 0.09681299,0.35595 0.72760417,0.80873 0.93717741,0.6727 1.47263191,1.21807 2.29391671,2.33578 0.3815694,0.51928 0.8331504,1.09479 1.0030397,1.27899 l 0.3085083,0.33486 -0.5689576,1.05007 c -0.7339271,1.35413 -2.0627987,4.24358 -2.6541015,5.7707 -0.25468579,0.65777 -0.57315585,1.43638 -0.70796715,1.73065 -0.0925709,0.20206 -0.15047621,0.37089 -0.16329752,0.4594 l 0.23771158,-0.48834 c 0.63313559,-1.30082 3.20326369,-4.82666 5.32370589,-7.30343 0.770287,-0.89973 1.0040252,-1.25615 0.947746,-1.44591 -0.173141,-0.58379 -1.2159835,-2.87856 -1.6262575,-3.57859 -0.2442567,-0.41676 -0.7534841,-1.14153 -1.1311969,-1.61076 -0.6192941,-0.76934 -0.8281445,-1.16788 -0.612366,-1.16788 0.04257,0 0.524265,0.43454 1.070219,0.96583 l 0.9927044,0.96635 v -1.51567 c 0,-1.82529 0.1221976,-2.53458 0.642338,-3.71967 0.2175499,-0.49567 0.4518109,-1.27249 0.5203817,-1.72599 0.4235381,-2.80113 0.5289534,-2.84689 0.79375,-0.3452 0.045278,0.42777 0.1325213,0.71271 0.2103231,0.68678 0.073127,-0.0244 0.3427468,-0.53104 0.5989296,-1.12552 0.6240801,-1.44818 1.1035937,-2.24379 1.3523724,-2.24379 0.1127964,0 0.3084965,-0.0937 0.4351163,-0.20825 0.214951,-0.19453 0.230477,-0.19304 0.230477,0.0191 0,0.26304 0.431214,-0.3026 1.191141,-1.56115 0.592146,-0.98067 1.163357,-1.64847 1.409733,-1.64847 0.100771,0 0.148212,0.0568 0.10542,0.12609 -0.04279,0.0692 -0.0012,0.12557 0.09198,0.12557 0.09324,0 0.45068,-0.28909 0.794267,-0.64234 0.701115,-0.72082 4.278143,-3.62333 5.723164,-4.64416 1.072929,-0.75796 2.97113,-2.2089 4.589384,-3.50728 0.827608,-0.66402 2.075842,-1.28661 2.075842,-1.3565 0,-0.13199 1.019962,-1.86318 1.139982,-1.93735 0.06611,-0.0409 0.325398,-0.42475 0.576192,-0.85266 0.495327,-0.84515 0.533045,-1.42391 0.132292,-2.03554 -0.259408,-0.39591 -1.494533,-1.09167 -2.156974,-1.21543 -0.07994,-0.0149 -0.166993,-0.0245 -0.259416,-0.0289 z M 0.34624339,296.38624 c 0.0829232,-0.0468 0,0 0,0 z m 0,0 c -0.005669,0.003 -0.019989,0.0168 -0.0232545,0.017 -0.0159888,0.001 -0.0167026,-0.0273 -0.0108521,-0.0677 l -0.0992187,0.20412 z m -0.30799154,0.59377 c 0.04279155,-0.0692 -0.04279155,0.0692 0,0 z"
         style="opacity:1;fill:#000000;fill-opacity:0.0564516;fill-rule:nonzero;stroke:none;stroke-width:0.32730749;stroke-linecap:square;stroke-linejoin:miter;stroke-miterlimit:4;stroke-dasharray:none;stroke-dashoffset:0;stroke-opacity:1;paint-order:normal" />
    </g>
  </g>
</svg>
