<?xml version="1.0" encoding="UTF-8" standalone="no"?>
<!DOCTYPE svg PUBLIC "-//W3C//DTD SVG 1.1//EN" "http://www.w3.org/Graphics/SVG/1.1/DTD/svg11.dtd">
<svg width="100%" height="100%" viewBox="0 0 86 86" version="1.1" xmlns="http://www.w3.org/2000/svg" xmlns:xlink="http://www.w3.org/1999/xlink" xml:space="preserve" xmlns:serif="http://www.serif.com/" style="fill-rule:evenodd;clip-rule:evenodd;stroke-linejoin:round;stroke-miterlimit:2;">
    <g transform="matrix(-1,-1.22465e-16,1.22465e-16,-1,86,86)">
        <path d="M84.277,0.3L43,0.3C19.417,0.3 0.3,19.418 0.3,43L0.3,84.277C0.3,85.063 0.937,85.7 1.723,85.7L43,85.7C66.583,85.7 85.7,66.582 85.7,43L85.7,1.723C85.7,0.937 85.063,0.3 84.277,0.3Z" style="fill:url(#_Linear1);fill-rule:nonzero;"/>
    </g>
    <g transform="matrix(0.574334,0.0676186,-0.0648877,0.551139,-20.5832,-34.1722)">
        <path d="M139.6,118.8C134.5,117.5 129.4,117.6 125,118.8C130.4,116.1 137.9,115.4 145.6,117.3C146.9,117.6 148.1,118 149.3,118.4C150.3,116.9 151.3,115.3 152.3,113.8C150.2,112.7 148,111.8 145.5,111.2C140.4,109.9 135.3,110 130.9,111.2C136.3,108.5 143.8,107.8 151.5,109.7C152.5,109.9 153.4,110.2 154.3,110.5C158.5,103.4 162,96.3 164.6,90C161,90 157.7,90.7 154.7,91.9C157.6,90 161.3,88.7 165.4,88.1C169.6,77.1 170.9,68.3 168.2,64.4C167.7,63.7 167.2,62.9 166.4,62.6C165.6,62.3 164.8,62.5 164,62.7C156,64.5 148.6,68.4 141.6,73.2C141.1,74.8 141,76.5 141,78.2C140.3,77.1 139.7,76 139.2,74.9C136.3,77 133.6,79.2 130.9,81.5C128.2,83.8 125.6,86.1 123,88.6C122.5,91.1 122.4,93.7 122.6,96.1C122,94.2 121.7,92.1 121.7,89.9C117.8,93.7 114.1,97.6 110.7,101.7C109,106 108.4,110.5 108.7,114.5C107.9,111.7 107.6,108.5 107.9,105.1C101.3,113.6 95.9,123 92.5,133.1C90.2,139.9 88.4,159.9 91.2,153.8C113.6,106.2 151,80.4 151.3,81.2C151.7,82 133.2,97.1 120.6,113.4C112.1,124.4 91.5,154.8 80.8,187.4C81,187.5 86.3,184.1 86.3,184.1C89.2,170.2 96,159 96.4,159.1C101.5,160.4 106.9,161.1 111.3,158.3C124.6,149.9 137.1,136.1 147.1,121.7C144.8,120.5 142.3,119.5 139.6,118.8Z" style="fill:white;fill-rule:nonzero;"/>
    </g>
    <defs>
        <linearGradient id="_Linear1" x1="0" y1="0" x2="1" y2="0" gradientUnits="userSpaceOnUse" gradientTransform="matrix(-84.5662,84.5662,-84.5662,-84.5662,85.2831,0.7169)"><stop offset="0" style="stop-color:rgb(238,81,81);stop-opacity:1"/><stop offset="1" style="stop-color:rgb(230,188,0);stop-opacity:1"/></linearGradient>
    </defs>
</svg>
