<?xml version="1.0" encoding="UTF-8"?>
<svg id="svg21" width="86px" height="86px" enable-background="new 0 0 86 86" version="1.1" viewBox="0 0 86 86" xml:space="preserve" xmlns="http://www.w3.org/2000/svg" xmlns:cc="http://creativecommons.org/ns#" xmlns:dc="http://purl.org/dc/elements/1.1/" xmlns:rdf="http://www.w3.org/1999/02/22-rdf-syntax-ns#" xmlns:xlink="http://www.w3.org/1999/xlink"><metadata id="metadata27"><rdf:RDF><cc:Work rdf:about=""><dc:format>image/svg+xml</dc:format><dc:type rdf:resource="http://purl.org/dc/dcmitype/StillImage"/><cc:license rdf:resource="http://creativecommons.org/licenses/by-sa/4.0/"/><dc:date>2020-2023</dc:date><dc:creator><cc:Agent><dc:title>Mirian Margiani</dc:title></cc:Agent></dc:creator><dc:contributor><cc:Agent><dc:title>JSEHV
Mirian Margiani</dc:title></cc:Agent></dc:contributor></cc:Work><cc:License rdf:about="http://creativecommons.org/licenses/by-sa/4.0/"><cc:permits rdf:resource="http://creativecommons.org/ns#Reproduction"/><cc:permits rdf:resource="http://creativecommons.org/ns#Distribution"/><cc:requires rdf:resource="http://creativecommons.org/ns#Notice"/><cc:requires rdf:resource="http://creativecommons.org/ns#Attribution"/><cc:permits rdf:resource="http://creativecommons.org/ns#DerivativeWorks"/><cc:requires rdf:resource="http://creativecommons.org/ns#ShareAlike"/></cc:License></rdf:RDF></metadata><defs id="defs25"><linearGradient id="linearGradient1003" x1=".7169" x2="85.283" y1="85.283" y2=".7169" gradientUnits="userSpaceOnUse"><stop id="stop1008" stop-color="#eb424a" stop-opacity=".96078" offset="0"/><stop id="stop1010" stop-color="#ff7500" stop-opacity=".65882" offset="1"/></linearGradient><linearGradient id="linearGradient1139" x1=".7169" x2="85.283" y1="85.283" y2=".7169" gradientTransform="translate(-104.28)" gradientUnits="userSpaceOnUse"><stop id="stop1005" stop-color="#eb424a" stop-opacity=".96078" offset="0"/><stop id="stop1007" stop-color="#ff7500" stop-opacity=".65882" offset="1"/></linearGradient><linearGradient id="_Linear1-3" x2="1" gradientTransform="matrix(-84.566 84.566 -84.566 -84.566 85.283 .7169)" gradientUnits="userSpaceOnUse"><stop id="stop460" stop-color="#ee5151" offset="0"/><stop id="stop462" stop-color="#e6bc00" offset="1"/></linearGradient><linearGradient id="linearGradient1118" x1=".7169" x2="85.283" y1="85.283" y2=".7169" gradientTransform="translate(0 112.09)" gradientUnits="userSpaceOnUse"><stop id="stop1246" stop-color="#cf3535" offset="0"/><stop id="stop1248" stop-color="#ff7500" stop-opacity=".65882" offset="1"/></linearGradient></defs>
<path id="path1141" d="m84.277 0.3h-41.277c-23.583 0-42.7 19.118-42.7 42.7v41.277c0 0.786 0.637 1.423 1.423 1.423h41.277c23.583 0 42.7-19.118 42.7-42.7v-41.277c0-0.786-0.637-1.423-1.423-1.423z" fill="#fff"/>
<path id="path8" d="m84.277 0.3h-41.277c-23.583 0-42.7 19.118-42.7 42.7v41.277c0 0.786 0.637 1.423 1.423 1.423h41.277c23.583 0 42.7-19.118 42.7-42.7v-41.277c0-0.786-0.637-1.423-1.423-1.423z" fill="url(#linearGradient1003)"/>
<path id="path8-3" d="m-20.006 0.3h-41.277c-23.583 0-42.7 19.118-42.7 42.7v41.277c0 0.786 0.637 1.423 1.423 1.423h41.277c23.583 0 42.7-19.118 42.7-42.7v-41.277c0-0.786-0.637-1.423-1.423-1.423z" fill="url(#linearGradient1139)"/><path id="path856-6" d="m-37.487 19.689c-2.7037-0.45062-5.4066-0.9011-9.5884 0.47806-4.1818 1.3792-9.891 4.6167-15.241 8.4962s-10.364 8.4132-13.123 12.205c-2.7587 3.7917-3.2602 6.8392-3.1994 9.2215 0.06081 2.3823 0.6744 4.0704 1.312 5.111s1.2931 1.4187 2.5147 1.7201c1.2216 0.30142 3.0101 0.52628 4.7841 0.56483 1.7741 0.03854 3.536-0.10907 5.3742-0.7247 1.8382-0.61563 4.1862-1.9436 5.8291-3.6696s2.7991-3.9744 3.8129-6.0922c1.0137-2.1177 1.8866-4.1082 3.2756-6.835 1.3889-2.7268 3.2966-6.1952 5.5667-9.4587 2.2702-3.2635 4.9056-6.3265 6.4133-8.1289s1.8882-2.3445 2.2693-2.8875z" fill="#fcc7ae" fill-rule="evenodd" stroke="#fff" stroke-linecap="round" stroke-linejoin="round" stroke-width="1px"/><path id="path860-0" d="m-72.138 49.072c-1.6214 2.1607-3.242 4.3202-4.7873 6.2983-1.5454 1.9781-3.0132 3.7717-4.1371 5.1822s-1.9021 2.4358-2.6194 3.6674c-0.71726 1.2316-1.3719 2.6671-2.0268 4.103 0.51888-0.50888 1.0388-1.0188 1.5386-1.3221 0.49982-0.30336 0.98328-0.40253 1.3801-0.5571s0.70872-0.36454 1.021-0.57478c1.6282-2.2865 3.2572-4.5741 4.6149-6.5018s2.4459-3.4982 3.5296-5.0706c1.0837-1.5724 2.1643-3.1485 3.2448-4.7247 0 0-1.7584-0.49977-1.7584-0.49977z" fill="#fac0b8" fill-rule="evenodd" stroke="#fff" stroke-linecap="round" stroke-linejoin="round" stroke-width="1px"/><path id="path864-6" d="m-71.216 49.172c1.7482-2.049 3.4954-4.097 5.8092-7.1532 2.3138-3.0562 5.1943-7.1207 8.3849-10.405s6.6909-5.7897 10.19-8.2939" fill="none" stroke="#fff" stroke-linecap="round" stroke-width="1px"/><g id="g1198" transform="matrix(.48294 .056868 -.054563 .46351 10.415 -108.77)" clip-rule="evenodd" fill="#f2f2f2" fill-opacity=".90371" fill-rule="evenodd" stroke-linejoin="round" stroke-miterlimit="2" stroke-width="1.1892">
        <path id="path1196" d="m137.32 126.9c1-1.5 2-3.1 3-4.6-8.7372-0.85165-2.8989-3.4504 2-3.3 4.2-7.1 7.7-14.2 10.3-20.5-5.1075 0.46034-5.6322-0.58782 0.8-1.9 4.2-11 5.5-19.8 2.8-23.7-0.5-0.7-1-1.5-1.8-1.8s-1.6-0.1-2.4 0.1c-8 1.8-15.4 5.7-22.4 10.5-0.89412 3.6083-2.4496 5.6005-2.4 1.7-2.9 2.1-5.6 4.3-8.3 6.6s-5.3 4.6-7.9 7.1c-0.92827 5.151-1.6327 5.5595-1.3 1.3-3.9 3.8-7.6 7.7-11 11.8-1.7 4.3-3.1 6.8-2.8 3.4-6.6 8.5-12 17.9-15.4 28-2.3 6.8-4.1 26.8-1.3 20.7 22.4-47.6 59.8-73.4 60.1-72.6 0.4 0.8-18.1 15.9-30.7 32.2-8.5 11-29.1 41.4-39.8 74 0.2 0.1 5.5-3.3 5.5-3.3 2.9-13.9 9.7-25.1 10.1-25 5.1 1.3 10.5 2 14.9-0.8 13.3-8.4 25.8-22.2 35.8-36.6 2.1695-3.273 0 0 2.2-3.3z" fill="#f2f2f2" fill-opacity=".90371" fill-rule="nonzero" stroke-width="1.4141"/>
    </g><path id="path1627" d="m20.991 70.714c-0.88621 0.06656-1.7726 0.13244-2.6591 0.19833 0.04942 0.66483 0.96056 0.93206 2.734 0.79886 6.3369-0.47592 12.161-0.93889 13.944-1.4211 0.54424-0.14716 1.4111-0.63231 0.59285-1.2256-0.56502-0.40968-3.5265-0.70028-6.2404-1.025-1.2171-0.146-2.4239-0.28438-3.6039-0.50619-0.38021-0.07351-0.73632-0.13833-1.046-0.25603-0.09214-0.04291-0.14513-0.05417-0.13684-0.06015 0.08282 9e-3 0.09274 0.14026 0.08058 0.42215-1e-6 0-1e-6 0-1e-6 1e-6 -0.10797 0.12618-0.1025 0.16837-0.04351 0.09525 0.08951-0.04831 0.20871-0.08551 0.34775-0.1297h1e-6c0.46222-0.14159 0.95488-0.23445 1.4628-0.32786 1.7086-0.31155 3.4437-0.52102 5.1874-0.72774h1e-6c5.171-0.61232 10.363-1.0857 15.557-1.5802-5.2293 0.13049-10.443 0.33935-15.65 0.78949h-1e-6c-1.7516 0.15124-3.5088 0.31924-5.2602 0.6046-0.51482 0.08315-1.0438 0.17582-1.5741 0.32798 0 1e-6 -1e-6 1e-6 -1e-6 1e-6 -0.15495 0.04297-0.32761 0.09942-0.5089 0.18784-0.08941 5e-3 -0.2452 0.12378-0.40869 0.39003 0 0-3e-6 4e-6 -3e-6 4e-6 -0.05541 0.36629 0.02353 0.60572 0.18711 0.68778 0.16566 0.1293 0.31415 0.19783 0.42236 0.23114 0.41247 0.15537 0.82153 0.23911 1.2026 0.31202 1.224 0.24036 2.4522 0.38764 3.6664 0.53255 2.716 0.32498 5.5064 0.64899 5.7722 0.84167l-0.0016-0.63959s0.0038-0.0024 0.0023-0.0016c-0.0018 1e-3 -0.0058 0.0032-0.01246 0.0064-0.0074 0.0036-0.01719 0.0079-0.02975 0.01306-0.01395 0.0057-0.03048 0.01202-0.04991 0.0189-0.0216 0.0076-0.04606 0.01572-0.07364 0.02422-0.03065 0.0094-0.06452 0.01921-0.10182 0.0293-0.59516 0.16093-1.7747 0.33035-3.3763 0.505-2.6694 0.29108-6.4226 0.58688-10.382 0.88424z" fill="#fff" fill-opacity=".70341"/><g id="g454" transform="rotate(180 92.517 43)">
        <path id="path452" d="m84.277 0.3h-41.277c-23.583 0-42.7 19.118-42.7 42.7v41.277c0 0.786 0.637 1.423 1.423 1.423h41.277c23.583 0 42.7-19.118 42.7-42.7v-41.277c0-0.786-0.637-1.423-1.423-1.423z" fill="url(#_Linear1-3)"/>
    </g><g id="g458" transform="matrix(.57433 .067619 -.064888 .55114 78.45 -34.172)">
        <path id="path456" d="m139.6 118.8c-5.1-1.3-10.2-1.2-14.6 0 5.4-2.7 12.9-3.4 20.6-1.5 1.3 0.3 2.5 0.7 3.7 1.1 1-1.5 2-3.1 3-4.6-2.1-1.1-4.3-2-6.8-2.6-5.1-1.3-10.2-1.2-14.6 0 5.4-2.7 12.9-3.4 20.6-1.5 1 0.2 1.9 0.5 2.8 0.8 4.2-7.1 7.7-14.2 10.3-20.5-3.6 0-6.9 0.7-9.9 1.9 2.9-1.9 6.6-3.2 10.7-3.8 4.2-11 5.5-19.8 2.8-23.7-0.5-0.7-1-1.5-1.8-1.8s-1.6-0.1-2.4 0.1c-8 1.8-15.4 5.7-22.4 10.5-0.5 1.6-0.6 3.3-0.6 5-0.7-1.1-1.3-2.2-1.8-3.3-2.9 2.1-5.6 4.3-8.3 6.6s-5.3 4.6-7.9 7.1c-0.5 2.5-0.6 5.1-0.4 7.5-0.6-1.9-0.9-4-0.9-6.2-3.9 3.8-7.6 7.7-11 11.8-1.7 4.3-2.3 8.8-2 12.8-0.8-2.8-1.1-6-0.8-9.4-6.6 8.5-12 17.9-15.4 28-2.3 6.8-4.1 26.8-1.3 20.7 22.4-47.6 59.8-73.4 60.1-72.6 0.4 0.8-18.1 15.9-30.7 32.2-8.5 11-29.1 41.4-39.8 74 0.2 0.1 5.5-3.3 5.5-3.3 2.9-13.9 9.7-25.1 10.1-25 5.1 1.3 10.5 2 14.9-0.8 13.3-8.4 25.8-22.2 35.8-36.6-2.3-1.2-4.8-2.2-7.5-2.9z" fill="#fff"/>
    </g><g id="g415" transform="matrix(.48294 .056859 -.054562 .46344 -10.465 -21.892)" fill="#fff" fill-opacity=".65078" stroke-width="1.1892">
        <path id="path413" d="m139.6 118.8c-5.1-1.3-10.2-1.2-14.6 0 5.4-2.7 12.9-3.4 20.6-1.5 1.3 0.3 2.5 0.7 3.7 1.1 1-1.5 2-3.1 3-4.6-2.1-1.1-4.3-2-6.8-2.6-5.1-1.3-10.2-1.2-14.6 0 5.4-2.7 12.9-3.4 20.6-1.5 1 0.2 1.9 0.5 2.8 0.8 4.2-7.1 7.7-14.2 10.3-20.5-3.6 0-6.9 0.7-9.9 1.9 2.9-1.9 6.6-3.2 10.7-3.8 4.2-11 5.5-19.8 2.8-23.7-0.5-0.7-1-1.5-1.8-1.8s-1.6-0.1-2.4 0.1c-8 1.8-15.4 5.7-22.4 10.5-0.5 1.6-0.6 3.3-0.6 5-0.7-1.1-1.3-2.2-1.8-3.3-2.9 2.1-5.6 4.3-8.3 6.6s-5.3 4.6-7.9 7.1c-0.5 2.5-0.6 5.1-0.4 7.5-0.6-1.9-0.9-4-0.9-6.2-3.9 3.8-7.6 7.7-11 11.8-1.7 4.3-2.3 8.8-2 12.8-0.8-2.8-1.1-6-0.8-9.4-6.6 8.5-12 17.9-15.4 28-2.3 6.8-4.1 26.8-1.3 20.7 22.4-47.6 59.8-73.4 60.1-72.6 0.4 0.8-18.1 15.9-30.7 32.2-8.5 11-29.1 41.4-39.8 74 0.2 0.1 5.5-3.3 5.5-3.3 2.9-13.9 9.7-25.1 10.1-25 5.1 1.3 10.5 2 14.9-0.8 13.3-8.4 25.8-22.2 35.8-36.6-2.3-1.2-4.8-2.2-7.5-2.9z" fill="#fff" fill-opacity=".65078" stroke-width="1.3531"/>
    </g><path id="path1102" d="m84.277 112.39h-41.277c-23.583 0-42.7 19.118-42.7 42.7v41.277c0 0.786 0.637 1.423 1.423 1.423h41.277c23.583 0 42.7-19.118 42.7-42.7v-41.277c0-0.786-0.637-1.423-1.423-1.423z" fill="url(#linearGradient1118)"/><path id="path1104" d="m20.991 182.81c-0.88621 0.0666-1.7726 0.13243-2.6591 0.19833 0.04942 0.66483 0.96056 0.93205 2.734 0.79886 6.3369-0.47592 12.161-0.93889 13.944-1.4211 0.54424-0.14716 1.4111-0.63231 0.59286-1.2256-0.56502-0.40968-3.5265-0.70028-6.2404-1.025-1.2171-0.146-2.4239-0.28439-3.6039-0.5062-0.38021-0.0735-0.73632-0.13832-1.046-0.25603-0.09214-0.0429-0.14513-0.0542-0.13684-0.0601 0.08282 9e-3 0.09274 0.14026 0.08058 0.42215h-1e-6c-0.10797 0.12618-0.1025 0.16837-0.04351 0.0952 0.08951-0.0483 0.20871-0.0855 0.34775-0.1297 0.46222-0.14159 0.95488-0.23445 1.4628-0.32786 1.7086-0.31154 3.4437-0.52101 5.1874-0.72774h1e-6c5.171-0.61232 10.363-1.0856 15.557-1.5802-5.2293 0.13048-10.443 0.33934-15.65 0.78948h-1e-6c-1.7516 0.15124-3.5088 0.31924-5.2602 0.60461-0.51482 0.0831-1.0438 0.17581-1.5741 0.32797 0 1e-5 -1e-6 1e-5 -1e-6 1e-5 -0.15495 0.043-0.32761 0.0994-0.5089 0.18784-0.08941 5e-3 -0.2452 0.12378-0.40869 0.39003h-3e-6c-0.05541 0.36629 0.02353 0.60572 0.18711 0.68778l2e-6 1e-5c0.16566 0.12929 0.31415 0.19783 0.42235 0.23113 0.41247 0.15537 0.82153 0.23911 1.2026 0.31202 1.224 0.24037 2.4522 0.38764 3.6664 0.53255 2.716 0.32498 5.5064 0.64899 5.7722 0.84167l-0.0016-0.63959s0.0038-2e-3 0.0023-2e-3c-0.0018 1e-3 -0.0058 3e-3 -0.01246 6e-3 -0.0074 4e-3 -0.01719 8e-3 -0.02975 0.0131-0.01395 6e-3 -0.03048 0.012-0.04991 0.0189-0.0216 8e-3 -0.04606 0.0157-0.07364 0.0242-0.03065 9e-3 -0.06452 0.0192-0.10182 0.0293-0.59516 0.16094-1.7747 0.33036-3.3763 0.505-2.6694 0.29108-6.4226 0.58688-10.382 0.88425z" fill="#fff" fill-opacity=".70341"/><g id="g1108" transform="matrix(.48294 .056859 -.054562 .46344 -10.465 90.202)" stroke-width="1.1892">
        <path id="path1106" d="m139.6 118.8c-5.1-1.3-10.2-1.2-14.6 0 5.4-2.7 12.9-3.4 20.6-1.5 1.3 0.3 2.5 0.7 3.7 1.1 1-1.5 2-3.1 3-4.6-2.1-1.1-4.3-2-6.8-2.6-5.1-1.3-10.2-1.2-14.6 0 5.4-2.7 12.9-3.4 20.6-1.5 1 0.2 1.9 0.5 2.8 0.8 4.2-7.1 7.7-14.2 10.3-20.5-3.6 0-6.9 0.7-9.9 1.9 2.9-1.9 6.6-3.2 10.7-3.8 4.2-11 5.5-19.8 2.8-23.7-0.5-0.7-1-1.5-1.8-1.8s-1.6-0.1-2.4 0.1c-8 1.8-15.4 5.7-22.4 10.5-0.5 1.6-0.6 3.3-0.6 5-0.7-1.1-1.3-2.2-1.8-3.3-2.9 2.1-5.6 4.3-8.3 6.6s-5.3 4.6-7.9 7.1c-0.5 2.5-0.6 5.1-0.4 7.5-0.6-1.9-0.9-4-0.9-6.2-3.9 3.8-7.6 7.7-11 11.8-1.7 4.3-2.3 8.8-2 12.8-0.8-2.8-1.1-6-0.8-9.4-6.6 8.5-12 17.9-15.4 28-2.3 6.8-4.1 26.8-1.3 20.7 22.4-47.6 59.8-73.4 60.1-72.6 0.4 0.8-18.1 15.9-30.7 32.2-8.5 11-29.1 41.4-39.8 74 0.2 0.1 5.5-3.3 5.5-3.3 2.9-13.9 9.7-25.1 10.1-25 5.1 1.3 10.5 2 14.9-0.8 13.3-8.4 25.8-22.2 35.8-36.6-2.3-1.2-4.8-2.2-7.5-2.9z" fill="#fff" fill-opacity=".9002" stroke-width="1.3531"/>
    </g><g id="g1165" transform="matrix(.48294 .056859 -.054562 .46344 -29.038 -21.892)" fill="#fff" fill-opacity=".79971" stroke-width="1.1892">
        <path id="path1163" d="m187.23 113.75c1-1.5 2-3.1 3-4.6-4.7244-2.0141-0.14853-3.9331 2-3.3 4.2-7.1 7.7-14.2 10.3-20.5-3.6 0-3.3-1.3 0.8-1.9 4.2-11 5.5-19.8 2.8-23.7-0.5-0.7-1-1.5-1.8-1.8s-1.6-0.1-2.4 0.1c-8 1.8-15.4 5.7-22.4 10.5-0.5 1.6-1.9 2.8-2.4 1.7-2.9 2.1-5.6 4.3-8.3 6.6s-5.3 4.6-7.9 7.1c-0.5 2.5-1.3 3.5-1.3 1.3-3.9 3.8-7.6 7.7-11 11.8-1.7 4.3-3.1 6.8-2.8 3.4-6.6 8.5-12 17.9-15.4 28-2.3 6.8-4.1 26.8-1.3 20.7 22.4-47.6 59.8-73.4 60.1-72.6 0.4 0.8-18.1 15.9-30.7 32.2-8.5 11-29.1 41.4-39.8 74 0.2 0.1 5.5-3.3 5.5-3.3 2.9-13.9 9.7-25.1 10.1-25 5.1 1.3 10.5 2 14.9-0.8 13.3-8.4 25.8-22.2 35.8-36.6l2.2-3.3z" fill="#fff" fill-opacity=".9036" stroke-width="1.3531"/>
    </g><path id="path1091" d="m20.991-77.139c-0.88621 0.06656-1.7726 0.13244-2.6591 0.19833 0.04942 0.66483 0.96056 0.93206 2.734 0.79886 6.3369-0.47592 12.161-0.93889 13.944-1.4211 0.54424-0.14716 1.4111-0.63231 0.59285-1.2256-0.56502-0.40968-3.5265-0.70028-6.2404-1.025-1.2171-0.146-2.4239-0.28438-3.6039-0.50619-0.38021-0.07351-0.73632-0.13833-1.046-0.25603-0.09214-0.04291-0.14513-0.05417-0.13684-0.06015 0.08282 9e-3 0.09274 0.14026 0.08058 0.42215-1e-6 0-1e-6 0-1e-6 1e-6 -0.10797 0.12618-0.1025 0.16837-0.04351 0.09525 0.08951-0.04831 0.20871-0.08551 0.34775-0.1297h1e-6c0.46222-0.14159 0.95488-0.23445 1.4628-0.32786 1.7086-0.31155 3.4437-0.52102 5.1874-0.72774h1e-6c5.171-0.61232 10.363-1.0857 15.557-1.5802-5.2293 0.13049-10.443 0.33935-15.65 0.78949h-1e-6c-1.7516 0.15124-3.5088 0.31924-5.2602 0.6046-0.51482 0.08315-1.0438 0.17582-1.5741 0.32798 0 1e-6 -1e-6 1e-6 -1e-6 1e-6 -0.15495 0.04297-0.32761 0.09942-0.5089 0.18784-0.08941 5e-3 -0.2452 0.12378-0.40869 0.39003 0 0-3e-6 4e-6 -3e-6 4e-6 -0.05541 0.36629 0.02353 0.60572 0.18711 0.68778l2e-6 2e-6c0.16566 0.1293 0.31415 0.19783 0.42235 0.23114 0.41247 0.15537 0.82153 0.23911 1.2026 0.31202 1.224 0.24036 2.4522 0.38764 3.6664 0.53255 2.716 0.32498 5.5064 0.64899 5.7722 0.84167l-0.0016-0.63959s0.0038-0.0024 0.0023-0.0016c-0.0018 1e-3 -0.0058 0.0032-0.01246 0.0064-0.0074 0.0036-0.01719 0.0079-0.02975 0.01306-0.01395 0.0057-0.03048 0.01202-0.04991 0.0189-0.0216 0.0076-0.04606 0.01572-0.07364 0.02422-0.03065 0.0094-0.06452 0.01921-0.10182 0.0293-0.59516 0.16093-1.7747 0.33035-3.3763 0.505-2.6694 0.29108-6.4226 0.58688-10.382 0.88424z" fill="#fff" fill-opacity=".70341"/><g id="g1095" transform="matrix(.48294 .056859 -.054562 .46344 -10.465 -169.75)" fill="#fff" fill-opacity=".65078" stroke-width="1.1892">
        <path id="path1093" d="m139.6 118.8c-5.1-1.3-10.2-1.2-14.6 0 5.4-2.7 12.9-3.4 20.6-1.5 1.3 0.3 2.5 0.7 3.7 1.1 1-1.5 2-3.1 3-4.6-2.1-1.1-4.3-2-6.8-2.6-5.1-1.3-10.2-1.2-14.6 0 5.4-2.7 12.9-3.4 20.6-1.5 1 0.2 1.9 0.5 2.8 0.8 4.2-7.1 7.7-14.2 10.3-20.5-3.6 0-6.9 0.7-9.9 1.9 2.9-1.9 6.6-3.2 10.7-3.8 4.2-11 5.5-19.8 2.8-23.7-0.5-0.7-1-1.5-1.8-1.8s-1.6-0.1-2.4 0.1c-8 1.8-15.4 5.7-22.4 10.5-0.5 1.6-0.6 3.3-0.6 5-0.7-1.1-1.3-2.2-1.8-3.3-2.9 2.1-5.6 4.3-8.3 6.6s-5.3 4.6-7.9 7.1c-0.5 2.5-0.6 5.1-0.4 7.5-0.6-1.9-0.9-4-0.9-6.2-3.9 3.8-7.6 7.7-11 11.8-1.7 4.3-2.3 8.8-2 12.8-0.8-2.8-1.1-6-0.8-9.4-6.6 8.5-12 17.9-15.4 28-2.3 6.8-4.1 26.8-1.3 20.7 22.4-47.6 59.8-73.4 60.1-72.6 0.4 0.8-18.1 15.9-30.7 32.2-8.5 11-29.1 41.4-39.8 74 0.2 0.1 5.5-3.3 5.5-3.3 2.9-13.9 9.7-25.1 10.1-25 5.1 1.3 10.5 2 14.9-0.8 13.3-8.4 25.8-22.2 35.8-36.6-2.3-1.2-4.8-2.2-7.5-2.9z" fill="#fff" fill-opacity=".65078" stroke-width="1.3531"/>
    </g><g id="g1099" transform="matrix(.48294 .056859 -.054562 .46344 -29.038 -169.75)" fill="#fff" fill-opacity=".80307" stroke-width="1.1892">
        <path id="path1097" d="m187.23 113.75c1-1.5 2-3.1 3-4.6-4.7244-2.0141-0.14853-3.9331 2-3.3 4.2-7.1 7.7-14.2 10.3-20.5-3.6 0-3.3-1.3 0.8-1.9 4.2-11 5.5-19.8 2.8-23.7-0.5-0.7-1-1.5-1.8-1.8s-1.6-0.1-2.4 0.1c-8 1.8-15.4 5.7-22.4 10.5-0.5 1.6-1.9 2.8-2.4 1.7-2.9 2.1-5.6 4.3-8.3 6.6s-5.3 4.6-7.9 7.1c-0.5 2.5-1.3 3.5-1.3 1.3-3.9 3.8-7.6 7.7-11 11.8-1.7 4.3-3.1 6.8-2.8 3.4-6.6 8.5-12 17.9-15.4 28-2.3 6.8-4.1 26.8-1.3 20.7 22.4-47.6 59.8-73.4 60.1-72.6 0.4 0.8-18.1 15.9-30.7 32.2-8.5 11-29.1 41.4-39.8 74 0.2 0.1 5.5-3.3 5.5-3.3 2.9-13.9 9.7-25.1 10.1-25 5.1 1.3 10.5 2 14.9-0.8 13.3-8.4 25.8-22.2 35.8-36.6l2.2-3.3z" fill="#fff" fill-opacity=".80307" stroke-width="1.3531"/>
    </g></svg>
