<?xml version="1.0" encoding="UTF-8"?>
<svg id="svg8" width="128" height="128" version="1.1" viewBox="0 0 33.867 33.867" xmlns="http://www.w3.org/2000/svg" xmlns:cc="http://creativecommons.org/ns#" xmlns:dc="http://purl.org/dc/elements/1.1/" xmlns:rdf="http://www.w3.org/1999/02/22-rdf-syntax-ns#">
 <metadata id="metadata5">
  <rdf:RDF>
   <cc:Work rdf:about="">
    <dc:format>image/svg+xml</dc:format>
    <dc:type rdf:resource="http://purl.org/dc/dcmitype/StillImage"/>
    <dc:title/>
    <dc:creator>
     <cc:Agent>
      <dc:title>Mirian Margiani</dc:title>
     </cc:Agent>
    </dc:creator>
    <dc:date>2020-2021</dc:date>
    <cc:license rdf:resource="http://creativecommons.org/licenses/by-sa/4.0/"/>
   </cc:Work>
   <cc:License rdf:about="http://creativecommons.org/licenses/by-sa/4.0/">
    <cc:permits rdf:resource="http://creativecommons.org/ns#Reproduction"/>
    <cc:permits rdf:resource="http://creativecommons.org/ns#Distribution"/>
    <cc:requires rdf:resource="http://creativecommons.org/ns#Notice"/>
    <cc:requires rdf:resource="http://creativecommons.org/ns#Attribution"/>
    <cc:permits rdf:resource="http://creativecommons.org/ns#DerivativeWorks"/>
    <cc:requires rdf:resource="http://creativecommons.org/ns#ShareAlike"/>
   </cc:License>
  </rdf:RDF>
 </metadata>
 <g id="layer1" transform="translate(0 -263.13)">
  <path id="path28" d="m8.7965 264.91c-11.075 5.9978-11.866 22.418-1.3844 29.301 5.5375 3.638 13.646 3.7363 18.788 0.19677 9.9873-6.7843 10.284-21.828 0.49442-28.317-5.2409-3.4413-12.756-3.933-17.898-1.1799zm16.019 2.8514c8.9985 6.391 9.0974 18.485 0.19778 24.384-9.2951 6.1944-22.842-0.78658-22.842-11.799 0-11.602 13.547-19.173 22.644-12.585z"/>
  <path id="path30" d="m9.291 270.02c-2.1755 1.2782-2.9665 2.3598-2.2743 3.0481 1.1866 1.1799 7.3174-2.9497 6.5264-4.3263-0.79107-1.0816-0.39554-1.1799-4.252 1.2782z"/>
  <path id="path32" d="m20.465 268.74c-0.79107 1.2782 5.142 5.3095 6.5264 4.4246 0.79107-0.49162 0.59331-1.0816-0.69219-2.0648-3.4609-2.5564-5.2409-3.2447-5.8342-2.3598z"/>
  <path id="path34" d="m9.4887 275.23c-0.39554 0.88492-0.19778 2.0648 0.39554 2.6548 1.4833 1.4748 4.3509 0.0984 3.9554-1.8682-0.39554-2.2615-3.5598-2.8514-4.3509-0.78659z"/>
  <path id="path36" d="m20.366 275.23c-0.39554 0.88492-0.19778 2.0648 0.39554 2.6548 1.4833 1.4748 4.3509 0.0984 3.9554-1.8682-0.39554-2.2615-3.5598-2.8514-4.3509-0.78659z"/>
  <path id="path38" d="m10.379 284.57c-1.7799 1.0816-3.2632 2.3598-3.2632 2.753 0 1.9665 1.3844 1.9665 4.0543 0 3.2632-2.3598 7.9107-2.5564 11.273-0.39329 4.0543 2.6548 5.142 1.6715 1.681-1.3765-3.8565-3.5397-8.9985-3.933-13.745-0.98322z"/>
 </g>
</svg>
