<?xml version="1.0" encoding="UTF-8" standalone="no"?>
<!-- Created with Inkscape (http://www.inkscape.org/) -->

<svg
   xmlns:dc="http://purl.org/dc/elements/1.1/"
   xmlns:cc="http://creativecommons.org/ns#"
   xmlns:rdf="http://www.w3.org/1999/02/22-rdf-syntax-ns#"
   xmlns:svg="http://www.w3.org/2000/svg"
   xmlns="http://www.w3.org/2000/svg"
   xmlns:sodipodi="http://sodipodi.sourceforge.net/DTD/sodipodi-0.dtd"
   xmlns:inkscape="http://www.inkscape.org/namespaces/inkscape"
   width="128"
   height="128"
   viewBox="0 0 33.866666 33.866668"
   version="1.1"
   id="svg8"
   inkscape:version="0.92.4 (5da689c313, 2019-01-14)"
   sodipodi:docname="mood-0.svg">
  <defs
     id="defs2" />
  <sodipodi:namedview
     id="base"
     pagecolor="#ffffff"
     bordercolor="#666666"
     borderopacity="1.0"
     inkscape:pageopacity="0.0"
     inkscape:pageshadow="2"
     inkscape:zoom="6.40625"
     inkscape:cx="64"
     inkscape:cy="64"
     inkscape:document-units="px"
     inkscape:current-layer="layer1"
     showgrid="false"
     inkscape:pagecheckerboard="false"
     borderlayer="true"
     inkscape:showpageshadow="false"
     inkscape:window-width="1920"
     inkscape:window-height="1009"
     inkscape:window-x="0"
     inkscape:window-y="0"
     inkscape:window-maximized="1"
     units="px" />
  <metadata
     id="metadata5">
    <rdf:RDF>
      <cc:Work
         rdf:about="">
        <dc:format>image/svg+xml</dc:format>
        <dc:type
           rdf:resource="http://purl.org/dc/dcmitype/StillImage" />
        <dc:title />
        <dc:creator>
          <cc:Agent>
            <dc:title>Mirian Margiani</dc:title>
          </cc:Agent>
        </dc:creator>
      </cc:Work>
    </rdf:RDF>
  </metadata>
  <g
     inkscape:label="Ebene 1"
     inkscape:groupmode="layer"
     id="layer1"
     transform="translate(0,-263.1333)">
    <path
       style="fill:#000000;stroke:none;stroke-width:0.09860373"
       inkscape:connector-curvature="0"
       id="path4"
       d="m 25.070124,264.90832 c 11.075036,5.99775 11.866109,22.41786 1.38438,29.30055 -5.53752,3.63799 -13.646029,3.7363 -18.7880095,0.19677 -9.9873083,-6.78433 -10.2839602,-21.8279 -0.4944216,-28.3173 5.2408651,-3.44134 12.7560681,-3.93296 17.8980511,-1.17988 z m -16.0192495,2.85141 c -8.99846521,6.39104 -9.09735009,18.48491 -0.197781,24.38432 9.2951195,6.19441 22.8422605,-0.78659 22.8422605,-11.79887 0,-11.60224 -13.547141,-19.17319 -22.6444908,-12.58545 z" />
    <path
       style="fill:#000000;stroke:none;stroke-width:0.09860373"
       inkscape:connector-curvature="0"
       id="path6"
       d="m 25.564546,271.98765 c 1.18661,1.17987 1.681032,4.71954 0.593304,4.71954 -0.296652,0 -1.38438,-0.98322 -2.472106,-2.26145 l -1.504066,-1.27313 c 0,0 -0.631027,0.86004 -0.968042,1.27313 -0.633045,0.77594 -1.285495,2.26145 -1.977683,2.26145 -1.779917,0 -1.779917,-0.98322 0.197753,-3.7363 1.681031,-2.35978 4.252021,-2.85141 6.130826,-0.98324 z"
       sodipodi:nodetypes="csccasccc" />
    <path
       style="fill:#000000;stroke:none;stroke-width:0.09860373"
       inkscape:connector-curvature="0"
       id="path8"
       d="m 14.29174,272.97089 c 1.977686,2.75308 1.977686,3.7363 0.19778,3.7363 -0.692191,0 -1.372828,-1.46335 -1.977686,-2.26145 -0.37372,-0.49312 -1.014881,-1.55419 -1.014881,-1.55419 l -1.556109,1.75085 c -2.4721052,2.8514 -3.7576002,2.06479 -2.1754534,-1.37655 1.38438,-3.04803 4.5486764,-3.14637 6.5263604,-0.29496 z"
       sodipodi:nodetypes="csaccccc" />
    <path
       style="fill:#000000;stroke:none;stroke-width:0.09860373"
       inkscape:connector-curvature="0"
       id="path10"
       d="m 28.728838,282.50831 c 0,2.94974 -4.746442,7.86591 -8.800697,9.04582 -4.845328,1.47484 -10.185078,-0.68829 -12.953835,-5.21116 -3.3620663,-5.6045 -3.1642966,-5.70283 9.888424,-5.70283 11.075036,0 11.866108,0.0984 11.866108,1.86817 z m -20.7656916,0.78658 c 0.197781,2.85142 5.4386346,6.19442 9.6906566,6.19442 2.867645,0 8.10851,-3.83463 8.10851,-5.89943 0,-0.58995 -3.362064,-0.98324 -8.899583,-0.98324 -4.944214,0 -8.8995836,0.29497 -8.8995836,0.68825 z" />
  </g>
</svg>
