<?xml version="1.0" encoding="UTF-8"?>
<svg id="svg8" width="128" height="128" version="1.1" viewBox="0 0 33.867 33.867" xmlns="http://www.w3.org/2000/svg" xmlns:cc="http://creativecommons.org/ns#" xmlns:dc="http://purl.org/dc/elements/1.1/" xmlns:rdf="http://www.w3.org/1999/02/22-rdf-syntax-ns#">
 <metadata id="metadata5">
  <rdf:RDF>
   <cc:Work rdf:about="">
    <dc:format>image/svg+xml</dc:format>
    <dc:type rdf:resource="http://purl.org/dc/dcmitype/StillImage"/>
    <dc:title/>
    <dc:creator>
     <cc:Agent>
      <dc:title>Mirian Margiani</dc:title>
     </cc:Agent>
    </dc:creator>
    <dc:date>2020-2021</dc:date>
    <cc:license rdf:resource="http://creativecommons.org/licenses/by-sa/4.0/"/>
   </cc:Work>
   <cc:License rdf:about="http://creativecommons.org/licenses/by-sa/4.0/">
    <cc:permits rdf:resource="http://creativecommons.org/ns#Reproduction"/>
    <cc:permits rdf:resource="http://creativecommons.org/ns#Distribution"/>
    <cc:requires rdf:resource="http://creativecommons.org/ns#Notice"/>
    <cc:requires rdf:resource="http://creativecommons.org/ns#Attribution"/>
    <cc:permits rdf:resource="http://creativecommons.org/ns#DerivativeWorks"/>
    <cc:requires rdf:resource="http://creativecommons.org/ns#ShareAlike"/>
   </cc:License>
  </rdf:RDF>
 </metadata>
 <g id="layer1" transform="translate(0 -263.13)">
  <path id="path40" d="m10.041 264.78c-4.3762 2.2412-6.4184 4.3849-8.3633 8.6724-2.2367 4.9696-2.2367 8.6724 0 13.739 7.3909 16.37 32.189 11.011 32.189-6.9185 0-12.083-13.517-20.95-23.826-15.493zm14.587 3.2156c4.0844 2.2412 7.5854 9.3545 6.8074 13.739-1.6532 8.9648-6.6129 12.96-15.365 12.375-4.9597-0.29232-6.0294-0.77954-9.1413-3.8003-3.0147-3.0208-3.5982-4.3849-3.9872-8.9648-0.29174-4.19 0-6.0414 1.556-8.575 4.4734-7.1133 12.545-9.0622 20.13-4.7747z"/>
  <path id="path42" d="m9.0684 270.43c-1.556 1.2668-2.6257 2.631-2.2367 3.0207 0.87523 0.97443 6.6129-2.631 6.6129-4.0926 0-1.8514-1.0697-1.5591-4.3762 1.0719z"/>
  <path id="path44" d="m20.835 268.97c-0.38899 0.48721 0.58349 1.8514 1.945 2.9233 2.8202 2.2412 4.2789 2.631 4.2789 1.1693 0-1.4617-5.6404-5.067-6.2239-4.0926z"/>
  <path id="path46" d="m9.2629 275.21c-0.77798 2.0463 0.77798 3.8003 2.8202 3.4105 2.6257-0.48721 2.4312-4.0926-0.19448-4.4824-1.167-0.195-2.334 0.29235-2.6257 1.0719z"/>
  <path id="path48" d="m20.641 275.4c-0.38899 0.87698-0.19448 2.0463 0.38899 2.631 1.4587 1.4616 4.2789 0.0975 3.8899-1.8514-0.38899-2.2412-3.5009-2.8258-4.2789-0.77953z"/>
  <path id="path50" d="m13.834 281.82c-2.6257 1.0719-5.1934 4.4301-5.1934 6.7687 0 1.6566-0.15529 0.85895 8.208 0.85895 8.9468 0 8.0207 0.94181 8.0207-1.2019 0-2.5335-1.3106-4.7692-4.3253-6.3283-2.4312-1.2668-3.8899-1.2668-6.7101-0.0975zm7.8771 3.8977c0.97248 1.0719 1.556 2.2412 1.2642 2.5335-0.29174 0.29232-3.8786-0.82352-5.8489-0.86175-2.3749-0.0461-7.0851 0.76444-7.0851 0.76444l2.2367-2.2412c2.7229-2.7284 7.0991-2.8258 9.4331-0.19501z"/>
 </g>
</svg>
