<?xml version="1.0" encoding="UTF-8" standalone="no"?>
<!-- Created with Inkscape (http://www.inkscape.org/) -->

<svg
   xmlns:dc="http://purl.org/dc/elements/1.1/"
   xmlns:cc="http://creativecommons.org/ns#"
   xmlns:rdf="http://www.w3.org/1999/02/22-rdf-syntax-ns#"
   xmlns:svg="http://www.w3.org/2000/svg"
   xmlns="http://www.w3.org/2000/svg"
   xmlns:sodipodi="http://sodipodi.sourceforge.net/DTD/sodipodi-0.dtd"
   xmlns:inkscape="http://www.inkscape.org/namespaces/inkscape"
   width="128"
   height="128"
   viewBox="0 0 33.866666 33.866668"
   version="1.1"
   id="svg8"
   inkscape:version="0.92.4 (5da689c313, 2019-01-14)"
   sodipodi:docname="mood-1.svg">
  <defs
     id="defs2" />
  <sodipodi:namedview
     id="base"
     pagecolor="#ffffff"
     bordercolor="#666666"
     borderopacity="1.0"
     inkscape:pageopacity="0.0"
     inkscape:pageshadow="2"
     inkscape:zoom="6.40625"
     inkscape:cx="64"
     inkscape:cy="64"
     inkscape:document-units="px"
     inkscape:current-layer="layer1"
     showgrid="false"
     inkscape:pagecheckerboard="false"
     borderlayer="true"
     inkscape:showpageshadow="false"
     inkscape:window-width="1920"
     inkscape:window-height="1009"
     inkscape:window-x="0"
     inkscape:window-y="0"
     inkscape:window-maximized="1"
     units="px" />
  <metadata
     id="metadata5">
    <rdf:RDF>
      <cc:Work
         rdf:about="">
        <dc:format>image/svg+xml</dc:format>
        <dc:type
           rdf:resource="http://purl.org/dc/dcmitype/StillImage" />
        <dc:title />
        <dc:creator>
          <cc:Agent>
            <dc:title>Mirian Margiani</dc:title>
          </cc:Agent>
        </dc:creator>
      </cc:Work>
    </rdf:RDF>
  </metadata>
  <g
     inkscape:label="Ebene 1"
     inkscape:groupmode="layer"
     id="layer1"
     transform="translate(0,-263.1333)">
    <path
       style="fill:#000000;stroke:none;stroke-width:0.09785376"
       inkscape:connector-curvature="0"
       id="path12"
       d="m 23.648452,264.16535 c 4.194048,1.96343 9.070852,7.85379 9.851142,11.97705 1.365502,7.55928 -1.072898,13.64597 -7.412742,17.86737 -15.020551,10.30813 -33.3573313,-8.1483 -23.1160445,-23.26687 1.1704318,-1.7671 3.3162275,-4.12325 4.7792665,-5.20313 3.316227,-2.45433 11.801862,-3.2397 15.898378,-1.37442 z m -14.3377996,3.23967 c -3.9989786,2.06164 -6.6324522,7.1666 -6.6324522,13.15514 0,4.81045 0.2926073,5.49764 4.2915859,9.42454 3.9014419,4.02507 4.5841959,4.31961 9.4609959,4.31961 10.143751,0 16.971275,-8.44284 14.532873,-17.86741 -2.633474,-9.52271 -12.484614,-13.74415 -21.6530026,-9.03188 z" />
    <path
       style="fill:#000000;stroke:none;stroke-width:0.09785376"
       inkscape:connector-curvature="0"
       id="path14"
       d="m 25.501637,272.9027 c 1.95072,2.74883 1.95072,3.73056 0.195085,3.73056 -0.682754,0 -1.658115,-0.98173 -1.950722,-2.25797 l -0.585218,-2.15979 -1.950719,2.35612 c -2.438403,2.84702 -3.706372,2.06164 -2.145793,-1.37442 1.365502,-3.04334 4.486656,-3.14152 6.437379,-0.2945 z" />
    <path
       style="fill:#000000;stroke:none;stroke-width:0.09785376"
       inkscape:connector-curvature="0"
       id="path16"
       d="m 14.577599,273.1972 c 1.560576,3.43606 0.292608,4.22144 -2.145792,1.37442 l -1.950723,-2.35612 -0.5852171,2.15979 c -0.2926072,1.27624 -1.2679684,2.25797 -1.9507196,2.25797 -1.755649,0 -1.755649,-0.98173 0.1950568,-3.73056 1.9507219,-2.84702 5.0718769,-2.74884 6.4373819,0.2945 z" />
    <path
       style="fill:#000000;stroke:none;stroke-width:0.09785376"
       inkscape:connector-curvature="0"
       id="path18"
       d="m 26.086852,285.95962 c 0,2.06165 -5.071874,4.41777 -9.65607,4.41777 -3.998975,0 -10.143747,-3.9269 -8.680708,-5.49765 0.4876806,-0.39268 1.5605784,0 2.633473,0.98173 3.121155,2.84699 8.583175,3.14153 11.801863,0.6872 3.413764,-2.4543 3.901442,-2.55248 3.901442,-0.58905 z" />
  </g>
</svg>
