<?xml version="1.0" encoding="UTF-8"?>
<svg id="svg8" width="128" height="128" version="1.1" viewBox="0 0 33.867 33.867" xmlns="http://www.w3.org/2000/svg" xmlns:cc="http://creativecommons.org/ns#" xmlns:dc="http://purl.org/dc/elements/1.1/" xmlns:rdf="http://www.w3.org/1999/02/22-rdf-syntax-ns#">
 <metadata id="metadata5">
  <rdf:RDF>
   <cc:Work rdf:about="">
    <dc:format>image/svg+xml</dc:format>
    <dc:type rdf:resource="http://purl.org/dc/dcmitype/StillImage"/>
    <dc:title/>
    <dc:creator>
     <cc:Agent>
      <dc:title>Mirian Margiani</dc:title>
     </cc:Agent>
    </dc:creator>
    <dc:date>2020-2021</dc:date>
    <cc:license rdf:resource="http://creativecommons.org/licenses/by-sa/4.0/"/>
   </cc:Work>
   <cc:License rdf:about="http://creativecommons.org/licenses/by-sa/4.0/">
    <cc:permits rdf:resource="http://creativecommons.org/ns#Reproduction"/>
    <cc:permits rdf:resource="http://creativecommons.org/ns#Distribution"/>
    <cc:requires rdf:resource="http://creativecommons.org/ns#Notice"/>
    <cc:requires rdf:resource="http://creativecommons.org/ns#Attribution"/>
    <cc:permits rdf:resource="http://creativecommons.org/ns#DerivativeWorks"/>
    <cc:requires rdf:resource="http://creativecommons.org/ns#ShareAlike"/>
   </cc:License>
  </rdf:RDF>
 </metadata>
 <g id="layer1" transform="translate(0 -263.13)">
  <path id="path20" d="m9.168 265.06c-7.6646 3.7865-11.497 14.757-7.6646 22.039 3.1445 5.9224 9.7281 9.9031 16.214 9.9031 4.2254 0 10.907-3.8836 13.56-7.8642 4.2254-6.4079 3.1445-16.699-2.2601-21.36-5.7976-5.0486-13.069-6.0195-19.849-2.7185zm15.526 2.7185c4.1271 2.9127 6.8785 7.7671 6.8785 12.136 0 14.855-20.537 19.612-27.612 6.4078-3.341-6.2137-1.6705-13.398 4.1271-17.767 5.3063-3.8836 11.693-4.1748 16.607-0.77673z"/>
  <path id="path22" d="m23.472 272.44c1.7688 0.67961 1.5722 3.8836-0.29479 4.5632-2.0635 0.77673-3.341-0.0971-3.341-2.3301 0-1.8447 1.6705-2.9127 3.6358-2.233z"/>
  <path id="path24" d="m13.056 273.31c0.98264 1.165 0.88438 1.7476-0.29479 3.0098-1.867 1.7476-3.734 0.97089-3.734-1.6505 0-2.3301 2.4566-3.2039 4.0288-1.3592z"/>
  <path id="path26" d="m9.3478 287.26c0-1.1651 0.3115-3.6312 7.4848-3.6312 7.1733 0 6.8531 2.5518 6.8531 3.7168 0 1.165 0.32017-0.96807-6.8531-0.96807-7.1733 0-7.4848 2.0475-7.4848 0.88242z"/>
 </g>
</svg>
