<?xml version="1.0" encoding="UTF-8" standalone="no"?>
<!-- Created with Inkscape (http://www.inkscape.org/) -->

<svg
   xmlns:dc="http://purl.org/dc/elements/1.1/"
   xmlns:cc="http://creativecommons.org/ns#"
   xmlns:rdf="http://www.w3.org/1999/02/22-rdf-syntax-ns#"
   xmlns:svg="http://www.w3.org/2000/svg"
   xmlns="http://www.w3.org/2000/svg"
   xmlns:sodipodi="http://sodipodi.sourceforge.net/DTD/sodipodi-0.dtd"
   xmlns:inkscape="http://www.inkscape.org/namespaces/inkscape"
   width="128"
   height="128"
   viewBox="0 0 33.866666 33.866668"
   version="1.1"
   id="svg8"
   inkscape:version="0.92.4 (5da689c313, 2019-01-14)"
   sodipodi:docname="mood-3.svg">
  <defs
     id="defs2" />
  <sodipodi:namedview
     id="base"
     pagecolor="#ffffff"
     bordercolor="#666666"
     borderopacity="1.0"
     inkscape:pageopacity="0.0"
     inkscape:pageshadow="2"
     inkscape:zoom="6.40625"
     inkscape:cx="24.429268"
     inkscape:cy="64"
     inkscape:document-units="px"
     inkscape:current-layer="layer1"
     showgrid="false"
     inkscape:pagecheckerboard="false"
     borderlayer="true"
     inkscape:showpageshadow="false"
     inkscape:window-width="1920"
     inkscape:window-height="1009"
     inkscape:window-x="0"
     inkscape:window-y="0"
     inkscape:window-maximized="1"
     units="px" />
  <metadata
     id="metadata5">
    <rdf:RDF>
      <cc:Work
         rdf:about="">
        <dc:format>image/svg+xml</dc:format>
        <dc:type
           rdf:resource="http://purl.org/dc/dcmitype/StillImage" />
        <dc:title />
        <dc:creator>
          <cc:Agent>
            <dc:title>Mirian Margiani</dc:title>
          </cc:Agent>
        </dc:creator>
      </cc:Work>
    </rdf:RDF>
  </metadata>
  <g
     inkscape:label="Ebene 1"
     inkscape:groupmode="layer"
     id="layer1"
     transform="translate(0,-263.1333)">
    <path
       style="fill:#000000;stroke:none;stroke-width:0.09767471"
       inkscape:connector-curvature="0"
       id="path20"
       d="m 9.1680319,265.05775 c -7.6646007,3.78646 -11.4969038,14.75749 -7.6646007,22.03914 3.1444526,5.92244 9.7281498,9.90308 16.2135808,9.90308 4.225357,0 10.90732,-3.88358 13.560452,-7.86419 4.225356,-6.40788 3.144452,-16.69928 -2.260076,-21.35956 -5.797586,-5.04861 -13.06913,-6.0195 -19.8493561,-2.71847 z m 15.5257331,2.71847 c 4.127094,2.91268 6.87849,7.76712 6.87849,12.13612 0,14.85458 -20.537204,19.61193 -27.6122216,6.40785 -3.34097943,-6.21369 -1.6704898,-13.39824 4.1270945,-17.76724 5.3062631,-3.88355 11.6934301,-4.17483 16.6066371,-0.77673 z" />
    <path
       style="fill:#000000;stroke:none;stroke-width:0.09767471"
       inkscape:connector-curvature="0"
       id="path22"
       d="m 23.471532,272.4365 c 1.768755,0.67961 1.572228,3.88355 -0.294791,4.56316 -2.063546,0.77673 -3.340982,-0.0971 -3.340982,-2.33012 0,-1.84469 1.670492,-2.91268 3.635773,-2.23304 z" />
    <path
       style="fill:#000000;stroke:none;stroke-width:0.09767471"
       inkscape:connector-curvature="0"
       id="path24"
       d="m 13.055535,273.3103 c 0.982642,1.16505 0.884378,1.7476 -0.294791,3.00975 -1.867019,1.7476 -3.7340378,0.97089 -3.7340378,-1.65051 0,-2.33014 2.4566018,-3.20394 4.0288288,-1.35924 z" />
    <path
       style="fill:#000000;stroke:none;stroke-width:0.09767471"
       inkscape:connector-curvature="0"
       id="path26"
       d="m 9.3478483,287.25553 c 0,-1.16506 0.3115045,-3.63116 7.4847867,-3.63116 7.173283,0 6.853111,2.55175 6.853111,3.71681 0,1.16505 0.320172,-0.96807 -6.853111,-0.96807 -7.1732822,0 -7.4847867,2.04747 -7.4847867,0.88242 z"
       sodipodi:nodetypes="sssss" />
  </g>
</svg>
