<?xml version="1.0" encoding="UTF-8"?>
<svg id="svg8" width="128" height="128" version="1.1" viewBox="0 0 33.867 33.867" xmlns="http://www.w3.org/2000/svg" xmlns:cc="http://creativecommons.org/ns#" xmlns:dc="http://purl.org/dc/elements/1.1/" xmlns:rdf="http://www.w3.org/1999/02/22-rdf-syntax-ns#">
 <metadata id="metadata5">
  <rdf:RDF>
   <cc:Work rdf:about="">
    <dc:format>image/svg+xml</dc:format>
    <dc:type rdf:resource="http://purl.org/dc/dcmitype/StillImage"/>
    <dc:title/>
    <dc:creator>
     <cc:Agent>
      <dc:title>Mirian Margiani</dc:title>
     </cc:Agent>
    </dc:creator>
    <dc:date>2020-2021</dc:date>
    <cc:license rdf:resource="http://creativecommons.org/licenses/by-sa/4.0/"/>
   </cc:Work>
   <cc:License rdf:about="http://creativecommons.org/licenses/by-sa/4.0/">
    <cc:permits rdf:resource="http://creativecommons.org/ns#Reproduction"/>
    <cc:permits rdf:resource="http://creativecommons.org/ns#Distribution"/>
    <cc:requires rdf:resource="http://creativecommons.org/ns#Notice"/>
    <cc:requires rdf:resource="http://creativecommons.org/ns#Attribution"/>
    <cc:permits rdf:resource="http://creativecommons.org/ns#DerivativeWorks"/>
    <cc:requires rdf:resource="http://creativecommons.org/ns#ShareAlike"/>
   </cc:License>
  </rdf:RDF>
 </metadata>
 <g id="layer1" transform="translate(0 -263.13)">
  <path id="path12" d="m23.648 264.17c4.194 1.9634 9.0709 7.8538 9.8511 11.977 1.3655 7.5593-1.0729 13.646-7.4127 17.867-15.021 10.308-33.357-8.1483-23.116-23.267 1.1704-1.7671 3.3162-4.1232 4.7793-5.2031 3.3162-2.4543 11.802-3.2397 15.898-1.3744zm-14.338 3.2397c-3.999 2.0616-6.6325 7.1666-6.6325 13.155 0 4.8104 0.29261 5.4976 4.2916 9.4245 3.9014 4.0251 4.5842 4.3196 9.461 4.3196 10.144 0 16.971-8.4428 14.533-17.867-2.6335-9.5227-12.485-13.744-21.653-9.0319z"/>
  <path id="path14" d="m25.502 272.9c1.9507 2.7488 1.9507 3.7306 0.19508 3.7306-0.68275 0-1.6581-0.98173-1.9507-2.258l-0.58522-2.1598-1.9507 2.3561c-2.4384 2.847-3.7064 2.0616-2.1458-1.3744 1.3655-3.0433 4.4867-3.1415 6.4374-0.2945z"/>
  <path id="path16" d="m14.578 273.2c1.5606 3.4361 0.29261 4.2214-2.1458 1.3744l-1.9507-2.3561-0.58522 2.1598c-0.29261 1.2762-1.268 2.258-1.9507 2.258-1.7556 0-1.7556-0.98173 0.19506-3.7306 1.9507-2.847 5.0719-2.7488 6.4374 0.2945z"/>
  <path id="path18" d="m26.087 285.96c0 2.0616-5.0719 4.4178-9.6561 4.4178-3.999 0-10.144-3.9269-8.6807-5.4976 0.48768-0.39268 1.5606 0 2.6335 0.98173 3.1212 2.847 8.5832 3.1415 11.802 0.6872 3.4138-2.4543 3.9014-2.5525 3.9014-0.58905z"/>
 </g>
</svg>
