<?xml version="1.0" encoding="UTF-8"?>
<svg id="svg8" width="128" height="128" version="1.1" viewBox="0 0 33.867 33.867" xmlns="http://www.w3.org/2000/svg" xmlns:cc="http://creativecommons.org/ns#" xmlns:dc="http://purl.org/dc/elements/1.1/" xmlns:rdf="http://www.w3.org/1999/02/22-rdf-syntax-ns#">
 <metadata id="metadata5">
  <rdf:RDF>
   <cc:Work rdf:about="">
    <dc:format>image/svg+xml</dc:format>
    <dc:type rdf:resource="http://purl.org/dc/dcmitype/StillImage"/>
    <dc:title/>
    <dc:creator>
     <cc:Agent>
      <dc:title>Mirian Margiani</dc:title>
     </cc:Agent>
    </dc:creator>
    <dc:date>2020-2021</dc:date>
    <cc:license rdf:resource="http://creativecommons.org/licenses/by-sa/4.0/"/>
   </cc:Work>
   <cc:License rdf:about="http://creativecommons.org/licenses/by-sa/4.0/">
    <cc:permits rdf:resource="http://creativecommons.org/ns#Reproduction"/>
    <cc:permits rdf:resource="http://creativecommons.org/ns#Distribution"/>
    <cc:requires rdf:resource="http://creativecommons.org/ns#Notice"/>
    <cc:requires rdf:resource="http://creativecommons.org/ns#Attribution"/>
    <cc:permits rdf:resource="http://creativecommons.org/ns#DerivativeWorks"/>
    <cc:requires rdf:resource="http://creativecommons.org/ns#ShareAlike"/>
   </cc:License>
  </rdf:RDF>
 </metadata>
 <g id="layer1" transform="translate(0 -263.13)">
  <path id="path4" d="m25.07 264.91c11.075 5.9978 11.866 22.418 1.3844 29.301-5.5375 3.638-13.646 3.7363-18.788 0.19677-9.9873-6.7843-10.284-21.828-0.49442-28.317 5.2409-3.4413 12.756-3.933 17.898-1.1799zm-16.019 2.8514c-8.9985 6.391-9.0974 18.485-0.19778 24.384 9.2951 6.1944 22.842-0.78659 22.842-11.799 0-11.602-13.547-19.173-22.644-12.585z"/>
  <path id="path6" d="m25.565 271.99c1.1866 1.1799 1.681 4.7195 0.5933 4.7195-0.29665 0-1.3844-0.98322-2.4721-2.2614l-1.5041-1.2731s-0.63103 0.86004-0.96804 1.2731c-0.63304 0.77594-1.2855 2.2614-1.9777 2.2614-1.7799 0-1.7799-0.98322 0.19775-3.7363 1.681-2.3598 4.252-2.8514 6.1308-0.98324z"/>
  <path id="path8" d="m14.292 272.97c1.9777 2.7531 1.9777 3.7363 0.19778 3.7363-0.69219 0-1.3728-1.4634-1.9777-2.2614-0.37372-0.49312-1.0149-1.5542-1.0149-1.5542l-1.5561 1.7508c-2.4721 2.8514-3.7576 2.0648-2.1755-1.3766 1.3844-3.048 4.5487-3.1464 6.5264-0.29496z"/>
  <path id="path10" d="m28.729 282.51c0 2.9497-4.7464 7.8659-8.8007 9.0458-4.8453 1.4748-10.185-0.68829-12.954-5.2112-3.3621-5.6045-3.1643-5.7028 9.8884-5.7028 11.075 0 11.866 0.0984 11.866 1.8682zm-20.766 0.78658c0.19778 2.8514 5.4386 6.1944 9.6907 6.1944 2.8676 0 8.1085-3.8346 8.1085-5.8994 0-0.58995-3.3621-0.98324-8.8996-0.98324-4.9442 0-8.8996 0.29497-8.8996 0.68825z"/>
 </g>
</svg>
